<svg id="csv" xmlns="http://www.w3.org/2000/svg" width="18" height="21.721" viewBox="0 0 18 21.721">
  <g id="그룹_63" data-name="그룹 63">
    <path id="패스_108" data-name="패스 108" d="M12.581.226A.772.772,0,0,0,12.035,0H1.755A1.755,1.755,0,0,0,0,1.755v18.21a1.755,1.755,0,0,0,1.755,1.755h14.49A1.755,1.755,0,0,0,18,19.965v-14a.772.772,0,0,0-.226-.546ZM12.31,1.544l4.15,4.15-3.514.019a.632.632,0,0,1-.471-.206.661.661,0,0,1-.164-.447ZM1.755,1.124h9.43V5.042a1.808,1.808,0,0,0,.534,1.3,1.742,1.742,0,0,0,1.219.495h.014l3.923-.021V10.1H1.124V1.755a.631.631,0,0,1,.631-.631M13.783,11.935,12.567,15.29h-.856l-1.184-3.355h.779l.5,1.55c.151.469.267.867.344,1.21h.01c.069-.313.2-.723.359-1.2l.523-1.561ZM8.859,13.868c-.913-.214-1.139-.546-1.139-1,0-.585.437-.982,1.232-.982.891,0,1.246.479,1.294.97H9.514c-.035-.206-.149-.431-.582-.431-.294,0-.472.122-.472.36s.142.328.684.454c.976.23,1.19.593,1.19,1.066,0,.613-.464,1.033-1.35,1.033-.852,0-1.3-.419-1.381-1.031h.731c.077.337.318.485.706.485s.553-.153.553-.4c0-.273-.162-.392-.735-.525m-3.043.9a.667.667,0,0,0,.686-.513h.73a1.346,1.346,0,0,1-1.447,1.082,1.52,1.52,0,0,1-1.567-1.707,1.582,1.582,0,0,1,1.6-1.744,1.285,1.285,0,0,1,1.408,1.085H6.5a.658.658,0,0,0-.706-.516c-.6,0-.829.538-.829,1.149,0,.567.2,1.165.849,1.165M16.245,20.6H1.755a.631.631,0,0,1-.631-.631v-2.84H16.876v2.84a.631.631,0,0,1-.631.631" fill="#2f3233"/>
  </g>
</svg>
