<svg xmlns="http://www.w3.org/2000/svg" xmlns:xlink="http://www.w3.org/1999/xlink" width="44.171" height="38" viewBox="0 0 44.171 38">
  <defs>
    <clipPath id="clip-path">
      <rect id="사각형_57" data-name="사각형 57" width="44.171" height="38" fill="#2f3233"/>
    </clipPath>
  </defs>
  <g id="다운로드" clip-path="url(#clip-path)">
    <path id="패스_60" data-name="패스 60" d="M34.351,40.434a11.5,11.5,0,0,1-10.25-11.4,11.229,11.229,0,0,1,.5-3.331,17.2,17.2,0,1,0,9.78,15.517,7.218,7.218,0,0,0-.028-.783m-9.922,3.744-5.993,5.993a1.732,1.732,0,0,1-1.253.527,1.7,1.7,0,0,1-1.238-.527L9.951,44.178a1.745,1.745,0,0,1-.513-1.239,1.8,1.8,0,0,1,.513-1.253,1.77,1.77,0,0,1,2.491,0l2.989,2.99V33.5a1.758,1.758,0,1,1,3.517,0V44.677l2.989-2.99a1.744,1.744,0,0,1,1.239-.512,1.8,1.8,0,0,1,1.253.512,1.77,1.77,0,0,1,0,2.491" transform="translate(0 -20.414)" fill="#2f3233"/>
    <path id="패스_61" data-name="패스 61" d="M196.733,8.612a8.611,8.611,0,1,0-8.611,8.612,8.611,8.611,0,0,0,8.611-8.612m-9.816,4.006a1.24,1.24,0,0,1-.907-.395l-2.566-2.757a1.239,1.239,0,1,1,1.814-1.687l1.659,1.783,3.64-3.908a1.238,1.238,0,1,1,1.811,1.688l-4.546,4.882a1.236,1.236,0,0,1-.906.395" transform="translate(-152.562 -0.001)" fill="#2f3233"/>
  </g>
</svg>
