<svg width="20" height="20" viewBox="0 0 20 20" fill="none" xmlns="http://www.w3.org/2000/svg">
<circle cx="10" cy="10" r="10" fill="#181D2B"/>
<g clip-path="url(#clip0_5200_42)">
<path d="M9.69748 12.0126C9.33193 12.0126 9.06723 11.7353 9.01681 11.395L8.89076 10.5378C8.82773 10.1218 9.06723 9.83193 9.47059 9.78151C10.5672 9.64286 11.0714 9.30252 11.0714 8.68487V8.65966C11.0714 8.09244 10.6429 7.76471 9.91176 7.76471C9.36975 7.76471 8.90336 7.92857 8.44958 8.26891C8.29832 8.38235 8.09664 8.47059 7.88235 8.47059C7.40336 8.47059 7 8.06723 7 7.58824C7 7.34874 7.10084 7.09664 7.32773 6.90756C7.9958 6.35294 8.84034 6 9.94958 6C11.7647 6 13 6.93277 13 8.60924V8.63445C13 10.2353 11.8908 10.8908 10.5168 11.1681L10.479 11.395C10.4286 11.7227 10.1639 12.0126 9.79832 12.0126H9.69748ZM9.69748 12.8445C10.3277 12.8445 10.7941 13.3109 10.7941 13.916V13.9412C10.7941 14.5462 10.3277 15.0126 9.69748 15.0126C9.06723 15.0126 8.60084 14.5462 8.60084 13.9412V13.916C8.60084 13.3109 9.06723 12.8445 9.69748 12.8445Z" fill="white"/>
</g>
<defs>
<clipPath id="clip0_5200_42">
<rect width="6" height="9.0126" fill="white" transform="translate(7 6)"/>
</clipPath>
</defs>
</svg>
