<svg id="xs_xl" data-name="xs,xl" xmlns="http://www.w3.org/2000/svg" width="18" height="21.721" viewBox="0 0 18 21.721">
  <g id="그룹_62" data-name="그룹 62">
    <path id="패스_109" data-name="패스 109" d="M12.581.226A.772.772,0,0,0,12.035,0H1.755A1.755,1.755,0,0,0,0,1.755v18.21a1.755,1.755,0,0,0,1.755,1.755h14.49A1.755,1.755,0,0,0,18,19.965v-14a.772.772,0,0,0-.226-.546ZM12.31,1.544l4.15,4.15-3.514.019a.633.633,0,0,1-.471-.206.661.661,0,0,1-.164-.447ZM1.755,1.124h9.43V5.042a1.808,1.808,0,0,0,.534,1.3,1.742,1.742,0,0,0,1.219.495h.014l3.923-.021V10.1H1.124V1.755a.631.631,0,0,1,.631-.631M11.967,13.868c-.913-.214-1.139-.546-1.139-1,0-.585.437-.982,1.232-.982.891,0,1.246.479,1.294.97h-.731c-.035-.206-.149-.431-.582-.431-.294,0-.472.122-.472.36s.142.328.685.454c.976.23,1.19.593,1.19,1.066,0,.613-.463,1.033-1.35,1.033-.852,0-1.3-.419-1.381-1.031h.731c.076.337.318.485.706.485s.553-.153.553-.4c0-.273-.162-.392-.736-.525m-1.548.828-.083.595H8.022V11.935h.725V14.7ZM4.588,11.935H5.43l.678,1.112h0l.7-1.112h.769l-1.08,1.6L7.635,15.29H6.8l-.718-1.182h0L5.339,15.29H4.557L5.673,13.6ZM16.245,20.6H1.755a.631.631,0,0,1-.631-.631v-2.84H16.876v2.84a.631.631,0,0,1-.631.631" fill="#2f3233"/>
  </g>
</svg>
