<svg xmlns="http://www.w3.org/2000/svg" xmlns:xlink="http://www.w3.org/1999/xlink" width="40" height="39.997" viewBox="0 0 40 39.997">
  <defs>
    <clipPath id="clip-path">
      <rect id="사각형_58" data-name="사각형 58" width="40" height="39.997" fill="none"/>
    </clipPath>
  </defs>
  <g id="재분석장" clip-path="url(#clip-path)">
    <path id="패스_62" data-name="패스 62" d="M94.407,97.251H91.8a.974.974,0,0,0-.977.978v10.239a9.73,9.73,0,0,0,4.563,0V98.229a.974.974,0,0,0-.979-.978" transform="translate(-76.296 -81.696)" fill="#2f3233"/>
    <path id="패스_63" data-name="패스 63" d="M53.823,114.232H51.216a.974.974,0,0,0-.979.978v2.851a10.465,10.465,0,0,0,4.563,4.047v-6.9a.974.974,0,0,0-.977-.978" transform="translate(-42.202 -95.961)" fill="#2f3233"/>
    <path id="패스_64" data-name="패스 64" d="M135.159,80.271h-2.607a.974.974,0,0,0-.979.978v12.33a10.437,10.437,0,0,0,4.563-4.1V81.249a.974.974,0,0,0-.977-.978" transform="translate(-110.529 -67.432)" fill="#2f3233"/>
    <path id="패스_65" data-name="패스 65" d="M59.332,53.171l3.948-3.318a1.358,1.358,0,1,0-1.747-2.079l-3.02,2.537-1.464-1.388a1.357,1.357,0,0,0-1.816-.048L50.7,52.745a1.358,1.358,0,1,0,1.762,2.066l3.607-3.077,1.457,1.383a1.356,1.356,0,0,0,1.808.054" transform="translate(-42.188 -39.865)" fill="#2f3233"/>
    <path id="패스_66" data-name="패스 66" d="M39.443,36.752l-9.477-9.477a16.861,16.861,0,1,0-2.688,2.689l9.477,9.476a1.9,1.9,0,0,0,2.688-2.688M3.8,16.818A13.016,13.016,0,1,1,16.818,29.834,13.031,13.031,0,0,1,3.8,16.818" fill="#2f3233"/>
  </g>
</svg>
