<svg id="바람" xmlns="http://www.w3.org/2000/svg" xmlns:xlink="http://www.w3.org/1999/xlink" width="39.276" height="25" viewBox="0 0 39.276 25">
  <defs>
    <clipPath id="clip-path">
      <rect id="사각형_63" data-name="사각형 63" width="39.276" height="25" fill="none"/>
    </clipPath>
  </defs>
  <g id="그룹_52" data-name="그룹 52" clip-path="url(#clip-path)">
    <path id="패스_90" data-name="패스 90" d="M16.726,58.441a.576.576,0,0,1-.234-.4c-.487-4.2-.829-4.6-1.442-4.971l-1.981-1.21c-.379-.232-.737-.451-4.753-.255a4.586,4.586,0,0,0-2.366.8L3.3,54.229a1.411,1.411,0,1,0,1.6,2.325l2.651-1.823a1.751,1.751,0,0,1,.9-.307l.346-.016L6.286,57.336a2.757,2.757,0,0,0,.3,3.9l-6.2,7.225A1.623,1.623,0,0,0,2.854,70.58l6.29-7.333,1.52,1.185-1.275,4.7a1.623,1.623,0,1,0,3.132.851l1.357-5a2.766,2.766,0,0,0-.973-2.916L11.26,60.781,13.644,58c.015.121.029.237.044.366a3.411,3.411,0,0,0,1.366,2.347l2.316,1.706a1.412,1.412,0,0,0,1.673-2.275Z" transform="translate(0 -46.175)" fill="#2f3233"/>
    <path id="패스_91" data-name="패스 91" d="M128.467,5.724a3.129,3.129,0,1,0-.844-4.344,3.129,3.129,0,0,0,.844,4.344" transform="translate(-113.884 0)" fill="#2f3233"/>
    <path id="패스_92" data-name="패스 92" d="M281.044,34.417h6.2a1.058,1.058,0,1,0,0-2.116h-6.179a1.032,1.032,0,1,1-.018-2.063,1.019,1.019,0,0,1,.748.321,1.058,1.058,0,1,0,1.535-1.458,3.148,3.148,0,1,0-2.283,5.315" transform="translate(-249.023 -25.199)" fill="#2f3233"/>
    <path id="패스_93" data-name="패스 93" d="M232.475,149.476H219.946a3.148,3.148,0,1,0,2.371,5.2,1.058,1.058,0,1,0-1.607-1.378,1.031,1.031,0,1,1-.783-1.7h12.548a1.059,1.059,0,0,0,0-2.117" transform="translate(-194.256 -133.946)" fill="#2f3233"/>
    <path id="패스_94" data-name="패스 94" d="M216.855,63.278h-13.8a1.587,1.587,0,1,1,1.448-2.24,1.058,1.058,0,1,0,1.928-.87,3.7,3.7,0,1,0-3.376,5.227h13.8a1.059,1.059,0,0,0,0-2.117" transform="translate(-178.636 -51.962)" fill="#2f3233"/>
  </g>
</svg>
