<svg id="avg" xmlns="http://www.w3.org/2000/svg" xmlns:xlink="http://www.w3.org/1999/xlink" width="18" height="30.038" viewBox="0 0 18 30.038">
  <defs>
    <clipPath id="clip-path">
      <rect id="사각형_59" data-name="사각형 59" width="18" height="30.038" fill="none"/>
    </clipPath>
  </defs>
  <g id="그룹_44" data-name="그룹 44" clip-path="url(#clip-path)">
    <path id="패스_67" data-name="패스 67" d="M33.771,129.152a.956.956,0,0,0-.955.955v3.313a2.5,2.5,0,0,1-1,1.982,3.322,3.322,0,1,0,3.916,0h0a2.5,2.5,0,0,1-1-1.982v-3.313a.956.956,0,0,0-.955-.955" transform="translate(-27.054 -114.75)" fill="#2f3233"/>
    <path id="패스_68" data-name="패스 68" d="M11.11,18.248l-.04-.035V4.344a4.353,4.353,0,0,0-8.707,0v13.87l-.04.035a6.716,6.716,0,1,0,8.787,0m-4.394,9.9a4.823,4.823,0,0,1-2.851-8.716.948.948,0,0,0,.387-.762V4.344a2.464,2.464,0,0,1,4.928,0V18.67a.948.948,0,0,0,.387.762,4.823,4.823,0,0,1-2.851,8.716" transform="translate(0 0.001)" fill="#2f3233"/>
    <path id="패스_69" data-name="패스 69" d="M119.958,141.617h0a.945.945,0,0,1-.945.945H115.7a.945.945,0,1,1,0-1.889h3.314a.945.945,0,0,1,.945.945" transform="translate(-101.958 -124.985)" fill="#2f3233"/>
    <path id="패스_70" data-name="패스 70" d="M119.958,103.714h0a.945.945,0,0,1-.945.945H115.7a.945.945,0,1,1,0-1.889h3.314a.945.945,0,0,1,.945.945" transform="translate(-101.958 -91.309)" fill="#2f3233"/>
    <path id="패스_71" data-name="패스 71" d="M119.958,65.81h0a.945.945,0,0,1-.945.945H115.7a.945.945,0,1,1,0-1.889h3.314a.945.945,0,0,1,.945.945" transform="translate(-101.958 -57.632)" fill="#2f3233"/>
    <path id="패스_72" data-name="패스 72" d="M119.958,27.907h0a.945.945,0,0,1-.945.945H115.7a.945.945,0,1,1,0-1.889h3.314a.945.945,0,0,1,.945.945" transform="translate(-101.958 -23.955)" fill="#2f3233"/>
  </g>
</svg>
