<svg xmlns="http://www.w3.org/2000/svg" width="35.75" height="35.75" viewBox="0 0 35.75 35.75">
  <g id="전지구" transform="translate(-0.125 -0.125)">
    <g id="그룹_41" data-name="그룹 41">
      <path id="패스_51" data-name="패스 51" d="M30.025,27.314a1.313,1.313,0,0,1-.352-1.683,10.161,10.161,0,0,0,1.022-3.673c.066-.551.4-1.152.168-1.654-.308-.676.489-1.557.071-2.062-.45-.541-.066-1.394-.181-2.064-.346-.506-1.043.02-1.583-.327-.588-.377-1.318.089-2.05.327-1.249-.29-1.146-1.72-1.854-2.552-.182-.215-.926-.087-1.051-.353-.214-.459.54-1.025.505-1.494-.168-2.267-1.469-3.484,1.563-4.471a2.158,2.158,0,0,1,2.426,1.2c.294.5.691-.537,1.468-.294.673.21.495-1.511.09-1.395-.468.136-.921-.107-1.452.163-.359.182-.577-.978-.948-1a1.733,1.733,0,0,1-1.23-.452c-1.162-.115-.531,1.566-1.694,1.452-.138-.573-.666.076-1.314-.07-.718-.161-.041-.966.253-1.343-.217-1.155-1.8-.312-1.6-1.428.111-.6,1.9.3,1.386-.8C23.017,1.945,20,.632,17.875,1.658a3.09,3.09,0,0,0-.4.233c-.287.194-.485.969-.761.729-.341-.3-.306-1.427-.875-1.387-.2.013-.187.387-.819.177-.624.059.608.756,0,.969-1.006.351-2-.1-2.815.5-.421.307-.973-.019-1.059.468a1.151,1.151,0,0,0,.726,1.211c.843.43,1.054-1.529,2.179-1.7.723.184,1.968,1.579,1.694,2.179-.258.567-.826-.71-1.694-.242-.814.39.76.766,0,1.211-2.087.443-3.662,1.951-3.892,3.179-.083.434.3,1.012.093,1.088-.431.157-.79-.5-.957-.623-.393-.286-1.116-1.185-1.3-.738-.675,1.676-1.632,1.585-1.3,3.062.126.567.975-.243,1.3.326-.366.749.044,1.152.379,1.7.171.277.008.942.237,1.056.43.216,1.722-.467,2.4-.5.55-.026.9.324,1.408.2a2.224,2.224,0,0,1,2.413.72c.315.582,1.136.554,1.393.941.559.847-.485.862-.028,1.428.3.368.79.131,1.29.144a1.3,1.3,0,0,1,.387.084,8.2,8.2,0,0,0,1.5.64,1.386,1.386,0,0,1,1.2.852c.412.957-.157,2-.481,2.958-.146.434.079.92-.094,1.259a9.471,9.471,0,0,1-2.132,2.327,6.158,6.158,0,0,0-.606.665c-.4.525-.332,1.423-.9,1.851-.64.478-.324,1.1-.476,1.632-.1.346-.427.836-.542,1.145-.15.408-.093.62-.314.912-.487.646-1.733-.705-1.67-1.385.127-1.354-1.044-2.323-.692-3.9a4.14,4.14,0,0,0-.078-2.376c-.336-.89-1.235-.949-1.937-1.936-.192-.271-.017-.948-.241-1.454C9.9,20.1,9.061,20.253,8.963,19.567c-.145-1.018.514-1.652.924-2.476a.889.889,0,0,0-.153-.926,13.262,13.262,0,0,0-2.358-1.494c-1.5-.9-2.756-2.212-2.044-4.788-1.043-.317-.577,1.648-1.21.969-.355-.381.538-3.067,1.267-4.355l-.018.017A16.877,16.877,0,1,0,33.3,24.688c.017-.037.029-.074.045-.111-.938,1.025-2.524,2.933-3.324,2.737" transform="translate(0.125 0.154)" fill="#2f3233"/>
      <circle id="타원_4" data-name="타원 4" cx="16.875" cy="16.875" r="16.875" transform="translate(1.125 1.125)" fill="none" stroke="#2f3233" stroke-width="2"/>
    </g>
  </g>
</svg>
