<svg id="비행기" xmlns="http://www.w3.org/2000/svg" xmlns:xlink="http://www.w3.org/1999/xlink" width="25" height="19.251" viewBox="0 0 25 19.251">
  <defs>
    <clipPath id="clip-path">
      <rect id="사각형_72" data-name="사각형 72" width="25" height="19.251" fill="rgba(0,0,0,0)"/>
    </clipPath>
  </defs>
  <g id="그룹_66" data-name="그룹 66" clip-path="url(#clip-path)">
    <path id="패스_122" data-name="패스 122" d="M2.5,6.348l.2-.6A1.8,1.8,0,0,1,4.507,4.524l9.416.554L9.487,9.514ZM24.953,1.182l-.675,2.024a2.693,2.693,0,0,1-.65,1.052L19.635,8.252l2.822,8.467a1.8,1.8,0,0,1-.434,1.837l-.485.485L14.558,12.06,10.2,16.418a9.065,9.065,0,0,1-1.632,1.3c-2.05,1.27-4.178,1.889-4.8,1.322,0,0-.459-1.466-1.167-1.769L.544,16.39a.9.9,0,0,1-.281-1.46l.7-.7a.9.9,0,0,1,.635-.263H6.307L19.481.79A2.693,2.693,0,0,1,21.385,0H24.1a.9.9,0,0,1,.852,1.181m-1.959.088H21.725a.449.449,0,0,0-.317.131L19.953,2.857a.449.449,0,0,0,0,.635l.635.635a.449.449,0,0,0,.635,0l2.09-2.09a.449.449,0,0,0-.317-.766" transform="translate(0 -0.001)" fill="#2f3233"/>
  </g>
</svg>
