<svg id="로켓" xmlns="http://www.w3.org/2000/svg" xmlns:xlink="http://www.w3.org/1999/xlink" width="14.382" height="27.035" viewBox="0 0 14.382 27.035">
  <defs>
    <clipPath id="clip-path">
      <rect id="사각형_73" data-name="사각형 73" width="14.382" height="27.035" fill="none"/>
    </clipPath>
  </defs>
  <g id="그룹_67" data-name="그룹 67" clip-path="url(#clip-path)">
    <path id="패스_126" data-name="패스 126" d="M7.2,6.187A1.719,1.719,0,1,1,5.482,7.906,1.719,1.719,0,0,1,7.2,6.187M8.538,17.471c.736,1.54.3,3.829-1.323,5.98C5.5,21.2,5.065,18.907,5.922,17.471H4.808q-1.9,3.889,2.328,9.564,4.44-5.542,2.407-9.564ZM4.02,16.678h.491v.249a.3.3,0,0,0,.3.3h4.8a.3.3,0,0,0,.3-.3v-.249h.48A3.786,3.786,0,0,0,11.4,14.6l2.986,2.089,0-3.358-2.8-3.617C11.215,6.171,9.889,2.207,7.319.044a.184.184,0,0,0-.237,0C4.52,2.2,3.194,6.15,2.828,9.687L0,13.333l0,3.358,3-2.1A3.8,3.8,0,0,0,4.02,16.678" transform="translate(0 0)" fill="#2f3233" fill-rule="evenodd"/>
  </g>
</svg>
