<svg xmlns="http://www.w3.org/2000/svg" width="16" height="16.001" viewBox="0 0 16 16.001">
  <g id="톱니" transform="translate(0 -0.001)">
    <g id="그룹_60" data-name="그룹 60" transform="translate(0 0.001)">
      <path id="패스_113" data-name="패스 113" d="M471.96,476.767a4.762,4.762,0,1,0,4.762-4.762,4.767,4.767,0,0,0-4.762,4.762m8.079-.29a3.33,3.33,0,1,1-3.607-3.027,3.33,3.33,0,0,1,3.607,3.027" transform="translate(-468.721 -468.766)" fill="#2f3233"/>
      <path id="패스_114" data-name="패스 114" d="M14.529,10.635l.787-.03a.486.486,0,0,0,.421-.335L16,9.023a.486.486,0,0,0-.252-.476L15.035,8.2a.594.594,0,0,1-.3-.479s0-.092-.02-.307L14.7,7.344c-.01-.081.108-.227.263-.325l.668-.421a.486.486,0,0,0,.2-.5l-.395-1.209a.486.486,0,0,0-.456-.286l-.789.057a.564.564,0,0,1-.483-.222c-.082-.136-.253-.609-.167-.771l.367-.7a.484.484,0,0,0-.08-.532l-.948-.848a.485.485,0,0,0-.538-.021l-.653.443a.563.563,0,0,1-.528.049c-.139-.076-.524-.4-.531-.586L10.6.686a.485.485,0,0,0-.335-.421L9.02.006a.485.485,0,0,0-.475.251L8.2.967a.594.594,0,0,1-.479.3s-.092,0-.307.02L7.341,1.3c-.081.01-.227-.109-.324-.264L6.6.366a.485.485,0,0,0-.5-.2L4.885.564a.485.485,0,0,0-.286.455l.057.79a.564.564,0,0,1-.223.483c-.136.083-.608.253-.771.168l-.7-.367a.485.485,0,0,0-.532.079l-.848.949a.485.485,0,0,0-.02.537l.443.654a.562.562,0,0,1,.048.528c-.076.139-.4.523-.586.531L.683,5.4a.486.486,0,0,0-.421.335L0,6.982a.486.486,0,0,0,.252.475l.71.343a.592.592,0,0,1,.3.479s0,.092.02.307l.007.075c.01.081-.109.227-.264.325l-.668.421a.485.485,0,0,0-.2.5l.395,1.209a.485.485,0,0,0,.456.286l.789-.057a.563.563,0,0,1,.483.222c.083.135.253.609.168.771l-.367.7a.485.485,0,0,0,.08.532l.949.849a.486.486,0,0,0,.538.02l.653-.443a.56.56,0,0,1,.528-.048c.139.076.523.4.531.586l.031.788a.486.486,0,0,0,.335.421L6.979,16a.486.486,0,0,0,.476-.251l.344-.71a.6.6,0,0,1,.479-.3s.092,0,.307-.019l.074-.006c.081-.011.226.108.324.263l.422.669a.484.484,0,0,0,.5.2l1.209-.4a.485.485,0,0,0,.286-.455l-.057-.79a.565.565,0,0,1,.223-.483c.135-.083.609-.253.771-.168l.7.367a.485.485,0,0,0,.532-.08l.848-.949a.485.485,0,0,0,.02-.538l-.443-.653a.562.562,0,0,1-.049-.528c.076-.139.4-.524.586-.531M8,13.428A5.426,5.426,0,1,1,13.426,8,5.432,5.432,0,0,1,8,13.428" transform="translate(0 -0.002)" fill="#2f3233"/>
    </g>
  </g>
</svg>
