<svg width="18" height="18" viewBox="0 0 18 18" fill="none" xmlns="http://www.w3.org/2000/svg">
<mask id="mask0_4217_2317" style="mask-type:alpha" maskUnits="userSpaceOnUse" x="0" y="0" width="18" height="18">
<rect width="18" height="18" fill="#D9D9D9"/>
</mask>
<g mask="url(#mask0_4217_2317)">
<path d="M3 14.25V7.5C3 7.2625 3.05313 7.0375 3.15938 6.825C3.26562 6.6125 3.4125 6.4375 3.6 6.3L8.1 2.925C8.3625 2.725 8.6625 2.625 9 2.625C9.3375 2.625 9.6375 2.725 9.9 2.925L14.4 6.3C14.5875 6.4375 14.7344 6.6125 14.8406 6.825C14.9469 7.0375 15 7.2625 15 7.5V14.25C15 14.6625 14.8531 15.0156 14.5594 15.3094C14.2656 15.6031 13.9125 15.75 13.5 15.75H11.25C11.0375 15.75 10.8594 15.6781 10.7156 15.5344C10.5719 15.3906 10.5 15.2125 10.5 15V11.25C10.5 11.0375 10.4281 10.8594 10.2844 10.7156C10.1406 10.5719 9.9625 10.5 9.75 10.5H8.25C8.0375 10.5 7.85938 10.5719 7.71562 10.7156C7.57188 10.8594 7.5 11.0375 7.5 11.25V15C7.5 15.2125 7.42812 15.3906 7.28438 15.5344C7.14062 15.6781 6.9625 15.75 6.75 15.75H4.5C4.0875 15.75 3.73438 15.6031 3.44063 15.3094C3.14688 15.0156 3 14.6625 3 14.25Z" fill="#7386B6"/>
</g>
</svg>
