<svg id="일조량" xmlns="http://www.w3.org/2000/svg" xmlns:xlink="http://www.w3.org/1999/xlink" width="24" height="24.001" viewBox="0 0 24 24.001">
  <defs>
    <clipPath id="clip-path">
      <rect id="사각형_64" data-name="사각형 64" width="24" height="24.001" fill="none"/>
    </clipPath>
  </defs>
  <g id="그룹_54" data-name="그룹 54" clip-path="url(#clip-path)">
    <path id="패스_95" data-name="패스 95" d="M129.519,5.133a.837.837,0,0,0,.837-.838V.838a.837.837,0,1,0-1.674,0V4.3a.837.837,0,0,0,.837.838" transform="translate(-117.519 0)" fill="#2f3233"/>
    <path id="패스_96" data-name="패스 96" d="M66.181,21.486a.837.837,0,0,0,1.45-.838L65.9,17.654a.837.837,0,1,0-1.45.838Z" transform="translate(-58.758 -15.74)" fill="#2f3233"/>
    <path id="패스_97" data-name="패스 97" d="M17.655,65.906l2.994,1.729a.837.837,0,1,0,.838-1.45l-2.994-1.729a.837.837,0,0,0-.838,1.45" transform="translate(-15.741 -58.762)" fill="#2f3233"/>
    <path id="패스_98" data-name="패스 98" d="M5.132,129.521a.837.837,0,0,0-.837-.838H.837a.838.838,0,0,0,0,1.675H4.295a.837.837,0,0,0,.837-.838" transform="translate(0 -117.52)" fill="#2f3233"/>
    <path id="패스_99" data-name="패스 99" d="M21.792,173.511a.836.836,0,0,0-1.144-.306l-2.994,1.729a.837.837,0,1,0,.838,1.45l2.994-1.729a.837.837,0,0,0,.306-1.144" transform="translate(-15.74 -158.077)" fill="#2f3233"/>
    <path id="패스_100" data-name="패스 100" d="M67.324,205.725a.837.837,0,0,0-1.144.306l-1.729,2.994a.837.837,0,1,0,1.45.838l1.729-2.994a.837.837,0,0,0-.306-1.144" transform="translate(-58.758 -187.777)" fill="#2f3233"/>
    <path id="패스_101" data-name="패스 101" d="M129.519,217.507a.837.837,0,0,0-.837.838V221.8a.837.837,0,1,0,1.674,0v-3.458a.837.837,0,0,0-.837-.838" transform="translate(-117.519 -198.639)" fill="#2f3233"/>
    <path id="패스_102" data-name="패스 102" d="M174.655,206.032a.837.837,0,0,0-1.45.838l1.729,2.994a.837.837,0,0,0,1.45-.838Z" transform="translate(-158.078 -187.777)" fill="#2f3233"/>
    <path id="패스_103" data-name="패스 103" d="M209.854,174.935l-2.994-1.729a.837.837,0,1,0-.838,1.45l2.994,1.729a.837.837,0,0,0,.838-1.45" transform="translate(-187.768 -158.078)" fill="#2f3233"/>
    <path id="패스_104" data-name="패스 104" d="M221.8,128.682h-3.458a.838.838,0,0,0,0,1.675H221.8a.838.838,0,0,0,0-1.675" transform="translate(-198.639 -117.519)" fill="#2f3233"/>
    <path id="패스_105" data-name="패스 105" d="M205.717,67.329a.836.836,0,0,0,1.144.306l2.994-1.729a.837.837,0,0,0-.838-1.45l-2.994,1.729a.837.837,0,0,0-.306,1.144" transform="translate(-187.768 -58.762)" fill="#2f3233"/>
    <path id="패스_106" data-name="패스 106" d="M173.512,21.792a.836.836,0,0,0,1.144-.306l1.729-2.994a.837.837,0,0,0-1.45-.838l-1.729,2.994a.837.837,0,0,0,.306,1.144" transform="translate(-158.078 -15.74)" fill="#2f3233"/>
    <path id="패스_107" data-name="패스 107" d="M82.486,77.185a5.3,5.3,0,1,0,5.3,5.3,5.3,5.3,0,0,0-5.3-5.3" transform="translate(-70.486 -70.489)" fill="#2f3233"/>
  </g>
</svg>
