<svg xmlns="http://www.w3.org/2000/svg" width="19" height="13" viewBox="0 0 19 13">
  <g id="잘모름" transform="translate(-1852 -400)">
    <g id="사각형_53" data-name="사각형 53" transform="translate(1852 400)" fill="none" stroke="#2f3233" stroke-linejoin="round" stroke-width="2">
      <rect width="18" height="10" stroke="none"/>
      <rect x="1" y="1" width="16" height="8" fill="none"/>
    </g>
    <g id="합치기_2" data-name="합치기 2" transform="translate(3903 405)" fill="#2f3233">
      <path d="M -2036.500244140625 7.500200271606445 C -2037.327270507812 7.500200271606445 -2038.000122070312 6.82735013961792 -2038.000122070312 6.00029993057251 L -2038.000122070312 5 L -2039.00048828125 5 C -2039.827514648438 5 -2040.500366210938 4.327150344848633 -2040.500366210938 3.500100135803223 C -2040.500366210938 2.673050165176392 -2039.827514648438 2.000200033187866 -2039.00048828125 2.000200033187866 L -2038.000122070312 2.000200033187866 L -2038.000122070312 0.9999001622200012 C -2038.000122070312 0.1728501319885254 -2037.327270507812 -0.4999998509883881 -2036.500244140625 -0.4999998509883881 C -2035.673217773438 -0.4999998509883881 -2035.000366210938 0.1728501319885254 -2035.000366210938 0.9999001622200012 L -2035.000366210938 2.000200033187866 L -2034 2.000200033187866 C -2033.172973632812 2.000200033187866 -2032.500122070312 2.673050165176392 -2032.500122070312 3.500100135803223 C -2032.500122070312 4.327150344848633 -2033.172973632812 5 -2034 5 L -2035.000366210938 5 L -2035.000366210938 6.00029993057251 C -2035.000366210938 6.82735013961792 -2035.673217773438 7.500200271606445 -2036.500244140625 7.500200271606445 Z" stroke="none"/>
      <path d="M -2036.500244140625 7.000200271606445 C -2035.947631835938 7.000200271606445 -2035.500366210938 6.552000045776367 -2035.500366210938 6.00029993057251 L -2035.500366210938 4.5 L -2034 4.5 C -2033.447509765625 4.5 -2033.000122070312 4.052700042724609 -2033.000122070312 3.500100135803223 C -2033.000122070312 2.947500228881836 -2033.447509765625 2.500200033187866 -2034 2.500200033187866 L -2035.500366210938 2.500200033187866 L -2035.500366210938 0.9999001622200012 C -2035.500366210938 0.447300136089325 -2035.947631835938 1.358032193365943e-07 -2036.500244140625 1.358032193365943e-07 C -2037.052001953125 1.358032193365943e-07 -2037.500122070312 0.447300136089325 -2037.500122070312 0.9999001622200012 L -2037.500122070312 2.500200033187866 L -2039.00048828125 2.500200033187866 C -2039.552124023438 2.500200033187866 -2040.000366210938 2.947500228881836 -2040.000366210938 3.500100135803223 C -2040.000366210938 4.052700042724609 -2039.552124023438 4.5 -2039.00048828125 4.5 L -2037.500122070312 4.5 L -2037.500122070312 6.00029993057251 C -2037.500122070312 6.552000045776367 -2037.052001953125 7.000200271606445 -2036.500244140625 7.000200271606445 M -2036.500244140625 8.000200271606445 C -2037.60302734375 8.000200271606445 -2038.500122070312 7.103050231933594 -2038.500122070312 6.00029993057251 L -2038.500122070312 5.5 L -2039.00048828125 5.5 C -2040.103271484375 5.5 -2041.000366210938 4.602849960327148 -2041.000366210938 3.500100135803223 C -2041.000366210938 2.397350072860718 -2040.103271484375 1.500200152397156 -2039.00048828125 1.500200152397156 L -2038.500122070312 1.500200152397156 L -2038.500122070312 0.9999001622200012 C -2038.500122070312 -0.1028498634696007 -2037.60302734375 -0.9999998807907104 -2036.500244140625 -0.9999998807907104 C -2035.3974609375 -0.9999998807907104 -2034.500366210938 -0.1028498634696007 -2034.500366210938 0.9999001622200012 L -2034.500366210938 1.500200152397156 L -2034 1.500200152397156 C -2032.897216796875 1.500200152397156 -2032.000122070312 2.397350072860718 -2032.000122070312 3.500100135803223 C -2032.000122070312 4.602849960327148 -2032.897216796875 5.5 -2034 5.5 L -2034.500366210938 5.5 L -2034.500366210938 6.00029993057251 C -2034.500366210938 7.103050231933594 -2035.3974609375 8.000200271606445 -2036.500244140625 8.000200271606445 Z" stroke="none" fill="#fff"/>
    </g>
  </g>
</svg>
