<svg xmlns="http://www.w3.org/2000/svg" xmlns:xlink="http://www.w3.org/1999/xlink" width="127.095" height="50" viewBox="0 0 127.095 50">
  <defs>
    <clipPath id="clip-path">
      <rect id="사각형_22" data-name="사각형 22" width="127.095" height="50" fill="none"/>
    </clipPath>
  </defs>
  <g id="기상청로고" transform="translate(0 0)">
    <path id="패스_40" data-name="패스 40" d="M132.68,48.332h-2.539V34.023h-7.893V31.716H132.68ZM137.2,30.446h2.562V51.032H137.2Z" transform="translate(-59.882 -14.909)" fill="#464545"/>
    <g id="그룹_12" data-name="그룹 12" transform="translate(0 0)">
      <g id="그룹_11" data-name="그룹 11" clip-path="url(#clip-path)">
        <path id="패스_41" data-name="패스 41" d="M176.967,40.385l-4.3-6.257L168.4,40.546l-2.055-1.363,6.327-9.235,6.349,9.029Zm5.679,6.026a4.558,4.558,0,0,1-.427,1.952,5.109,5.109,0,0,1-2.838,2.7,5.4,5.4,0,0,1-2.069.4,5.466,5.466,0,0,1-2.078-.4,5.6,5.6,0,0,1-1.732-1.1,5.425,5.425,0,0,1-1.142-1.6,4.672,4.672,0,0,1,0-3.9,5.4,5.4,0,0,1,1.142-1.606,5.556,5.556,0,0,1,1.732-1.1,5.458,5.458,0,0,1,2.078-.4,5.4,5.4,0,0,1,2.069.4,5.1,5.1,0,0,1,2.838,2.7,4.539,4.539,0,0,1,.427,1.95m-2.494-.023A2.673,2.673,0,0,0,179.3,44.4a2.789,2.789,0,0,0-2.009-.831,2.743,2.743,0,0,0-2,.831,2.773,2.773,0,0,0,0,3.984,2.77,2.77,0,0,0,2,.819,2.816,2.816,0,0,0,2.009-.819,2.669,2.669,0,0,0,.854-2m3.533-12.515h2.956V36.39h-2.956v4.364h-2.54V30.2h2.54Z" transform="translate(-81.489 -14.671)" fill="#464545"/>
        <path id="패스_42" data-name="패스 42" d="M213.479,34.058V31.909H218.3V29.947h2.725v1.962h4.6v2.149h-5.011l5.2,5.263-1.663,1.571-4.479-4.665-4.433,5.034-1.709-1.592,5.22-5.611Zm16.44,12.352a4.576,4.576,0,0,1-.425,1.953,5.454,5.454,0,0,1-1.144,1.6,5.369,5.369,0,0,1-1.7,1.1,5.592,5.592,0,0,1-4.169,0,5.344,5.344,0,0,1-1.708-1.1,5.4,5.4,0,0,1-1.142-1.6,4.668,4.668,0,0,1,0-3.9,5.369,5.369,0,0,1,1.142-1.606,5.309,5.309,0,0,1,1.708-1.1,5.572,5.572,0,0,1,4.169,0,5.332,5.332,0,0,1,1.7,1.1,5.422,5.422,0,0,1,1.144,1.606,4.555,4.555,0,0,1,.425,1.95m-2.516-.023a2.691,2.691,0,0,0-.843-1.985,2.776,2.776,0,0,0-2.021-.832,2.817,2.817,0,1,0,0,5.634,2.8,2.8,0,0,0,2.021-.819,2.685,2.685,0,0,0,.843-2m1.709-5.218V37.244h-3.6V35.05h3.6V30.2h2.562V41.169Z" transform="translate(-104.579 -14.67)" fill="#464545"/>
        <path id="패스_43" data-name="패스 43" d="M38.6,23.861a9.014,9.014,0,0,0-12.823,2.691A9.023,9.023,0,0,1,9.466,24.072h0c-.01-.034-.015-.061-.025-.094s-.021-.075-.03-.115a11.547,11.547,0,0,1-.462-3.584c0-8.087,8.3-17.09,20.246-17.09,12.235,0,19.236,9.314,21.04,14.492-.031-.091-.059-.182-.091-.275A25.769,25.769,0,0,0,0,25.766C0,38.485,9.174,49.372,21.9,49.372c10.151,0,16.971-5.69,20.1-13.532a9.931,9.931,0,0,0-3.4-11.978" transform="translate(0 0)" fill="#002b51"/>
        <path id="패스_44" data-name="패스 44" d="M58.988,21.247c-1.5-5.05-8.558-15-21.2-15-11.951,0-20.246,9-20.246,17.09A11.547,11.547,0,0,0,18,26.926a7.548,7.548,0,0,1-.238-1.839c0-8.42,8.433-14.256,17.1-14.256A21.244,21.244,0,0,1,56.11,32.074,23.417,23.417,0,0,1,43.126,53.057l0,.006A25.773,25.773,0,0,0,60.122,28.829a25.464,25.464,0,0,0-1.134-7.582" transform="translate(-8.593 -3.063)" fill="#da0021"/>
      </g>
    </g>
  </g>
</svg>
