<svg id="강수량" xmlns="http://www.w3.org/2000/svg" xmlns:xlink="http://www.w3.org/1999/xlink" width="22.898" height="24" viewBox="0 0 22.898 24">
  <defs>
    <clipPath id="clip-path">
      <rect id="사각형_62" data-name="사각형 62" width="22.898" height="24" fill="none"/>
    </clipPath>
  </defs>
  <g id="그룹_50" data-name="그룹 50" clip-path="url(#clip-path)">
    <path id="패스_85" data-name="패스 85" d="M23.323,176.4a1.019,1.019,0,0,1-.2-.019,1,1,0,0,1-.789-1.178l1.177-5.961a1.006,1.006,0,0,1,.985-.808,1.026,1.026,0,0,1,.194.019,1,1,0,0,1,.787,1.177L24.3,175.6a1,1,0,0,1-.982.808" transform="translate(-20.194 -152.403)" fill="#2f3233"/>
    <path id="패스_86" data-name="패스 86" d="M69.065,176.4a1.018,1.018,0,0,1-.2-.019,1,1,0,0,1-.789-1.178l1.177-5.961a1.006,1.006,0,0,1,.986-.808,1.023,1.023,0,0,1,.194.019,1,1,0,0,1,.787,1.177L70.047,175.6a1,1,0,0,1-.982.808" transform="translate(-61.582 -152.403)" fill="#2f3233"/>
    <path id="패스_87" data-name="패스 87" d="M114.807,176.4a1.018,1.018,0,0,1-.2-.019,1,1,0,0,1-.789-1.178L115,169.246a1.006,1.006,0,0,1,.986-.808,1.021,1.021,0,0,1,.194.019,1,1,0,0,1,.787,1.177l-1.177,5.961a1,1,0,0,1-.982.808" transform="translate(-102.97 -152.403)" fill="#2f3233"/>
    <path id="패스_88" data-name="패스 88" d="M160.55,176.4a1.018,1.018,0,0,1-.2-.019,1,1,0,0,1-.789-1.178l1.177-5.961a1.006,1.006,0,0,1,.985-.808,1.024,1.024,0,0,1,.194.019,1,1,0,0,1,.787,1.177l-1.177,5.961a1,1,0,0,1-.982.808" transform="translate(-144.358 -152.403)" fill="#2f3233"/>
    <path id="패스_89" data-name="패스 89" d="M18.065,4.863a4.84,4.84,0,0,0-1.081.126A6.355,6.355,0,0,0,4.426,6.136c-.075,0-.148-.011-.224-.011a4.2,4.2,0,1,0,0,8.4H18.065a4.833,4.833,0,0,0,0-9.666" fill="#2f3233"/>
  </g>
</svg>
