<svg id="pdf" xmlns="http://www.w3.org/2000/svg" width="18" height="21.721" viewBox="0 0 18 21.721">
  <g id="그룹_61" data-name="그룹 61">
    <path id="패스_110" data-name="패스 110" d="M12.581.226A.772.772,0,0,0,12.035,0H1.755A1.755,1.755,0,0,0,0,1.755v18.21a1.755,1.755,0,0,0,1.755,1.755h14.49A1.755,1.755,0,0,0,18,19.965v-14a.772.772,0,0,0-.226-.546ZM12.31,1.544l4.15,4.15-3.514.019a.633.633,0,0,1-.471-.206.661.661,0,0,1-.164-.447ZM1.755,1.124h9.43V5.042a1.808,1.808,0,0,0,.534,1.3,1.742,1.742,0,0,0,1.219.495h.014l3.923-.021V10.1H1.124V1.755a.631.631,0,0,1,.631-.631M13.423,13.351v.595h-1.53V15.29h-.708V11.935h2.342v.595H11.893v.822Zm-2.874.219A1.6,1.6,0,0,1,8.9,15.29H7.6V11.935h1.33a1.527,1.527,0,0,1,1.616,1.636m-3.491-.6c0,.729-.552,1.063-1.214,1.063H5.2V15.29H4.474V11.935H5.862a1.058,1.058,0,0,1,1.2,1.039M16.245,20.6H1.755a.631.631,0,0,1-.631-.631v-2.84H16.876v2.84a.631.631,0,0,1-.631.631" fill="#2f3233"/>
    <path id="패스_111" data-name="패스 111" d="M89.676,215.789v.947h.554c.336,0,.573-.129.573-.472s-.25-.475-.558-.475Z" transform="translate(-84.476 -203.277)" fill="#2f3233"/>
    <path id="패스_112" data-name="패스 112" d="M143.633,215.937v2.183h.544c.643,0,.928-.478.928-1.132,0-.548-.266-1.051-.923-1.051Z" transform="translate(-135.305 -203.416)" fill="#2f3233"/>
  </g>
</svg>
