<svg xmlns="http://www.w3.org/2000/svg" width="38" height="38" viewBox="0 0 38 38">
  <g id="남한상세" transform="translate(0 0)">
    <path id="패스_59" data-name="패스 59" d="M16.215,35.752l1.533-.441.722.072,1.961-.042.709-.293,1.127-.042.746-.446.4.322-.229.552,2.331-.746-.413-.822,1.043-1.145,1.067-1.7-.241-1.233.771-.687.852-.242.183.458-.623.318-.461.508.114.835.368.3.667-.166.1-.423,2.047-.743,1.561-1.967,1.627-1.186.416-1.484.569-.963.715-3.222-.406-.488-.387.141-.3-.424.525-.123.372-.454-.25-1.521.3-.349.733-.525.263-1.246.08-.017c-.06-.377-.132-.751-.216-1.124l-.317.347-.729-.246.089-.708.348-.818L35.2,12.162l.127-.822A18.042,18.042,0,0,0,21.553,1.181l-.111-.012c-.317-.047-.644-.081-.974-.106-.1-.01-.2-.018-.31-.022C19.8,1.017,19.443,1,19.074,1H19.02c-.1,0-.209,0-.309.008-.246,0-.493.012-.739.029l-.5.038a18.079,18.079,0,0,0-2.763.475l.36.077.39.242.847,1.115L17,3.467l.173.178.4.246.161.169-.094.059a.7.7,0,0,0-.261.267l-.273.5a.307.307,0,0,0-.034.072l-.223.555-.125.181-.113.072-.145.052-.453.037-.394-.034-.085-.034a.842.842,0,0,0-.246-.047l-.79.042a.259.259,0,0,0-.1.018l-.136.02-.995-.042a.826.826,0,0,0-.09,0l-.565.052a.771.771,0,0,0-.161.034l-.36.119a.919.919,0,0,0-.173.093l-.365.255a.657.657,0,0,0-.131.127l-.322.381c-.012.018-.025.035-.037.055l-.255.386-.53.7-.348.327a.7.7,0,0,0-.225.5V9.19a.183.183,0,0,1-.025.043.544.544,0,0,0-.127.084l-.5-.272-.759.3L8.1,9.729,7.9,9.856,7.6,9.1l-.5-.02-.78-.662-.335.136L5.9,8.813l-.424.615-.6.5-.193.064-.221-.03.035-.139-.25-.568L4.006,9.2A18.234,18.234,0,0,0,1,19.18v.076c0,.081,0,.161,0,.238A18.03,18.03,0,0,0,9.785,34.506l.734-.23.3-.022.637.216.139.407-.119.352-.082.131a18.014,18.014,0,0,0,4.213,1.37l.538-.53Zm14.91-8.51h-.162l-.008-.2.619-.937.178-.017.109.381-.287.377.1.1h.207l.017.245-.572.644-.381.026.029-.166.305-.386ZM15.147,26.179l-.256.161-.093.216.109.267.366.352-.127.356-.374.179-.31-.437-.181-.433-.217-.02-.329.123-.067.463.153.317.252.361-.354.424-.09.3-.255.216-.686-.48.1-.339.3-.322.038-.344-.1-.2-.985.86-.6.971-.327-.072-.132-.251-.191-.1-.648.623-.123.5-.241.017-.107-.213-.008-.445-.113-.382-.674-.55-.31-.483.166-.268.568.144.448-.017-.088-.233-.15-.106.3-.131.25-.263-.208-.072-.32.153-.257-.077-.106-.631-.318-.649-.169-.632L9,24.661l.161-.568.292-.818.144-.267.411-.195.144-.208-.226-.114-.354-.1.008-.233.24-.132.273-.258.524-.322.161-.6-.147-.148-.332-.144.073-.305.136-.23-.053-.136-.38-.4-.258-.357.071-.4-.054-.619.034-.522-.017-.275-.192-.636-.083-.636-.251.093-.195.161-.716-.225-.229-.017L8.1,15.58,8.353,15l.605-.513.352-.062.263-.23.416-.067.49.347.446.072.246.6.153.127.029-.22.36-.26L11.8,14.6l-.076-.106-.414-.106-.369-.751-.05-.326-.136-.208.2-.6-.431-.683-.209-.215.03-.615-.22-.394L10,10.382l-.077-.374.065-.165.19-.064.06-.157.138-.111.01-.165V8.821l.4-.369.561-.75.279-.416.314-.386.369-.258.36-.123.563-.052,1.085.047.213-.042.753-.042.174.072.551.042.6-.047.308-.114L17.2,6.2l.25-.349.255-.636.267-.5.161-.094,1.11,2.663L20.309,9l.9,1.238,1.284,2.382.377,1.273.034.784.216,1.077-.18.624.054.971-.082.5-.16.369,0,.7.05.374,0,.5.1.2.144.067.238-.178.284-.076-.049.6-.347,1.513-.3,1.1-.411.963-.521.877-.623.344-.44.123-.83.043-.7-.149-.6.106-.238.183-.179.314.133.483-.017.357-.261-.025-.5-.208-.563-.03-.264-.1-.261-.513-.278.022-.465.3Z" transform="translate(0)" fill="#2f3233"/>
    <ellipse id="타원_5" data-name="타원 5" cx="18" cy="18" rx="18" ry="18" transform="translate(1 1)" fill="none" stroke="#2f3233" stroke-width="2"/>
  </g>
</svg>
