<svg width="24" height="24" viewBox="0 0 24 24" fill="none" xmlns="http://www.w3.org/2000/svg">
<mask id="mask0_4217_2519" style="mask-type:alpha" maskUnits="userSpaceOnUse" x="0" y="0" width="24" height="24">
<rect width="24" height="24" fill="#D9D9D9"/>
</mask>
<g mask="url(#mask0_4217_2519)">
<path d="M12.5996 11.9998L8.69956 8.0998C8.51623 7.91647 8.42456 7.68314 8.42456 7.3998C8.42456 7.11647 8.51623 6.88314 8.69956 6.6998C8.88289 6.51647 9.11623 6.4248 9.39956 6.4248C9.68289 6.4248 9.91623 6.51647 10.0996 6.6998L14.6996 11.2998C14.7996 11.3998 14.8704 11.5081 14.9121 11.6248C14.9537 11.7415 14.9746 11.8665 14.9746 11.9998C14.9746 12.1331 14.9537 12.2581 14.9121 12.3748C14.8704 12.4915 14.7996 12.5998 14.6996 12.6998L10.0996 17.2998C9.91623 17.4831 9.68289 17.5748 9.39956 17.5748C9.11623 17.5748 8.88289 17.4831 8.69956 17.2998C8.51623 17.1165 8.42456 16.8831 8.42456 16.5998C8.42456 16.3165 8.51623 16.0831 8.69956 15.8998L12.5996 11.9998Z" fill="white"/>
</g>
</svg>
