<svg width="82" height="86" viewBox="0 0 82 86" fill="none" xmlns="http://www.w3.org/2000/svg">
<path fill-rule="evenodd" clip-rule="evenodd" d="M9.7619 61.1985L9.11111 62.4869L8.13492 62.1648L6.18254 61.5206L4.88095 60.8764L2.92857 60.5543L2.60317 59.2659L0.976191 58.6217H0L0.976191 57.3333L1.62698 56.367L1.95238 54.7566L1.62698 54.1124L2.92857 53.7903L2.60317 52.824L1.30159 50.8914V49.9251L2.60317 47.9925L3.57937 47.3483L2.60317 46.382V44.7715L3.90476 43.4831L5.20635 43.161L4.88095 41.2285L2.92857 39.618L2.27778 38.9738L3.25397 37.3633L3.90476 36.7191L4.88095 36.397V34.7865L5.20635 33.8202H6.18254L7.15873 34.1423L7.80952 33.8202L8.46032 32.8539H9.43651L10.0873 32.2097L12.0397 31.8876L12.6905 29.9551L14.6429 27.0562L14.9683 25.7678L15.9444 24.1573L16.5952 21.9026L18.2222 23.191L18.873 23.5131H22.4524L23.1032 23.8352L24.4048 24.1573L25.0556 23.191L26.3571 22.8689L27.6587 24.1573L28.3095 23.5131L29.6111 22.2247V19.97L30.2619 19.0037L30.9127 18.0375L30.2619 16.427L29.9365 15.1386L30.5873 14.1723L31.2381 12.5618L32.5397 11.2734L34.4921 9.98502L36.4444 9.34082L36.7698 8.37453L36.4444 7.73034V7.08614H38.0714L39.373 6.11985H40.6746L41.6508 5.79775L41.9762 4.83146V4.18727L42.3016 2.89888L41.9762 1.93258L43.6032 0.644195H44.5794L45.2302 0.966292L46.5317 0H48.1587L49.7857 1.93258L50.4365 2.25468L51.4127 2.57678L52.3889 1.93258L52.7143 3.54307L53.6905 3.86517L54.3413 5.15356V6.11985L54.6667 6.44195L55.9683 5.47566L56.9444 6.44195L58.5714 7.73034L57.5952 8.69663L58.246 9.01873L60.1984 10.3071L59.873 11.2734L59.2222 12.2397L59.873 13.206V14.1723L59.2222 15.1386L59.873 15.7828L58.5714 17.7154L58.246 20.2921L57.5952 20.6142L56.619 20.2921L53.3651 21.5805L52.0635 21.9026L50.7619 22.2247L51.0873 22.8689L52.0635 23.5131L52.7143 25.1236L53.6905 25.7678L54.6667 26.0899L56.2937 25.4457L56.9444 26.412L55.6429 28.0225L55.9683 29.3109L56.619 29.633L57.5952 29.3109L58.8968 28.6667L59.873 28.3446L60.8492 28.9888L62.1508 28.6667L62.4762 28.3446L63.7778 28.6667L64.754 28.9888V29.633L64.4286 30.9213L66.381 32.2097L68.0079 32.8539L69.3095 31.8876V30.5993L70.2857 29.9551L71.2619 30.2772L73.2143 31.8876L73.8651 33.176V33.8202L74.8413 34.4644H75.8175L77.119 36.0749H78.4206L78.0952 37.0412V38.6517H76.1429L78.746 41.2285H81.0238L81.6746 42.839L81.3492 43.8052V46.0599L80.0476 47.6704L81.3492 48.6367L82 49.603L81.3492 50.2472L80.373 50.5693L79.0714 49.603L77.4445 50.2472L76.7937 51.2135L78.0952 52.1798L78.4206 52.824L77.7698 53.7903L77.119 54.7566L76.4683 56.0449L76.1429 57.3333L74.8413 58.2996H73.5397L72.2381 59.2659L70.9365 60.8764L71.9127 62.4869L72.5635 63.1311L73.5397 64.7416L72.2381 66.03L70.9365 66.3521V67.3184L69.6349 68.9288L68.6587 69.573L67.0317 69.8951L66.381 70.5393H65.4048L64.4286 71.1835L63.7778 70.8614L62.8016 72.1498L61.1746 73.4382L60.5238 74.0824L59.5476 75.0487H58.5714L58.246 78.5918L57.2698 79.5581V81.1685L56.2937 82.4569L55.3175 83.1011L54.6667 83.4232L53.6905 82.779L52.7143 82.4569L52.3889 83.1011L51.4127 83.7453L51.0873 84.3895L50.1111 84.7116L49.4603 86L48.4841 85.6779L47.1825 84.3895V81.4906L46.5317 80.8464V79.5581L47.1825 78.9139L47.5079 77.9476L46.2064 77.3034L44.9048 76.3371L43.2778 76.015V74.7266L43.6032 73.7603L42.3016 73.1161H41.3254L40.0238 73.7603L39.6984 72.794L38.7222 72.4719L37.4206 71.1835L38.0714 70.2172V68.9288L39.0476 68.6067V66.6742L40.0238 66.03L39.6984 62.4869L39.0476 60.8764L35.7937 57.3333H34.4921L33.1905 56.367H31.5635L30.9127 57.0112L29.2857 56.6891L27.9841 57.0112L27.3333 57.3333L27.0079 57.9775L26.6825 58.9438L27.3333 59.588L24.4048 61.1985L22.127 60.5543L20.1746 60.2322L18.5476 59.588H16.5952L15.9444 59.9101L13.6667 58.2996L12.3651 58.9438L11.7143 60.2322V61.1985H9.7619Z" fill="#A5ADC4"/>
</svg>
