<svg width="5" height="8" viewBox="0 0 5 8" fill="none" xmlns="http://www.w3.org/2000/svg">
<path id="Vector" d="M1.25075 7.24155C1.18146 7.24134 1.11293 7.22704 1.04933 7.19954C0.985723 7.17204 0.928372 7.1319 0.880753 7.08155C0.791193 6.98391 0.744048 6.85472 0.749673 6.72235C0.755298 6.58997 0.813233 6.46524 0.910753 6.37555L3.51075 3.99255L0.910753 1.60905C0.820933 1.51768 0.769619 1.39531 0.767401 1.2672C0.765183 1.13909 0.81223 1.01502 0.898832 0.920593C0.985435 0.826164 1.10498 0.768585 1.23281 0.759739C1.36063 0.750893 1.48697 0.791455 1.58575 0.873054L4.58575 3.62655C4.63815 3.67075 4.68012 3.72599 4.70865 3.78832C4.73717 3.85064 4.75155 3.91851 4.75075 3.98705C4.75037 4.0564 4.73601 4.12495 4.70852 4.18861C4.68102 4.25227 4.64097 4.30973 4.59075 4.35755L1.59075 7.11105C1.49657 7.19365 1.37601 7.23993 1.25075 7.24155Z" fill="black"/>
</svg>
