<svg width="26" height="92" viewBox="0 0 26 92" fill="none" xmlns="http://www.w3.org/2000/svg">
<path d="M0 92V90C0 87.8 1.53 85.06 3.41 83.9L22.6 72.09C24.47 70.94 26.01 68.19 26.01 65.99V26C26.01 23.8 24.48 21.06 22.6 19.9L3.41 8.1C1.53 6.94 0 4.2 0 2V0V92Z" fill="#1F2330"/>
<mask id="mask0_586_7187" style="mask-type:alpha" maskUnits="userSpaceOnUse" x="1" y="34" width="24" height="24">
<rect x="1" y="34" width="24" height="24" fill="#D9D9D9"/>
</mask>
<g mask="url(#mask0_586_7187)">
<path d="M11.8 46L15.7 49.9C15.8834 50.0833 15.975 50.3167 15.975 50.6C15.975 50.8833 15.8834 51.1167 15.7 51.3C15.5167 51.4833 15.2834 51.575 15 51.575C14.7167 51.575 14.4834 51.4833 14.3 51.3L9.70005 46.7C9.60005 46.6 9.52922 46.4917 9.48755 46.375C9.44588 46.2583 9.42505 46.1333 9.42505 46C9.42505 45.8667 9.44588 45.7417 9.48755 45.625C9.52922 45.5083 9.60005 45.4 9.70005 45.3L14.3 40.7C14.4834 40.5167 14.7167 40.425 15 40.425C15.2834 40.425 15.5167 40.5167 15.7 40.7C15.8834 40.8833 15.975 41.1167 15.975 41.4C15.975 41.6833 15.8834 41.9167 15.7 42.1L11.8 46Z" fill="white"/>
</g>
</svg>
