<svg width="26" height="92" viewBox="0 0 26 92" fill="none" xmlns="http://www.w3.org/2000/svg">
<path d="M0 92V90C0 87.8 1.53 85.06 3.41 83.9L22.6 72.09C24.47 70.94 26.01 68.19 26.01 65.99V26C26.01 23.8 24.48 21.06 22.6 19.9L3.41 8.1C1.53 6.94 0 4.2 0 2V0V92Z" fill="#1F2330"/>
<mask id="mask0_901_5023" style="mask-type:alpha" maskUnits="userSpaceOnUse" x="1" y="34" width="24" height="24">
<rect x="1" y="34" width="24" height="24" fill="#D9D9D9"/>
</mask>
<g mask="url(#mask0_901_5023)">
<path d="M13.6 46L9.70005 42.1C9.51672 41.9167 9.42505 41.6833 9.42505 41.4C9.42505 41.1167 9.51672 40.8833 9.70005 40.7C9.88338 40.5167 10.1167 40.425 10.4 40.425C10.6834 40.425 10.9167 40.5167 11.1 40.7L15.7 45.3C15.8 45.4 15.8709 45.5083 15.9125 45.625C15.9542 45.7417 15.975 45.8667 15.975 46C15.975 46.1333 15.9542 46.2583 15.9125 46.375C15.8709 46.4917 15.8 46.6 15.7 46.7L11.1 51.3C10.9167 51.4833 10.6834 51.575 10.4 51.575C10.1167 51.575 9.88338 51.4833 9.70005 51.3C9.51672 51.1167 9.42505 50.8833 9.42505 50.6C9.42505 50.3167 9.51672 50.0833 9.70005 49.9L13.6 46Z" fill="white"/>
</g>
</svg>
