<svg width="14" height="9" viewBox="0 0 14 9" fill="none" xmlns="http://www.w3.org/2000/svg">
<path id="Vector" d="M0.516404 1.5016C0.516836 1.36301 0.545423 1.22595 0.600431 1.09874C0.655439 0.971538 0.735722 0.856835 0.836405 0.761597C1.03168 0.582477 1.29007 0.488187 1.55482 0.499437C1.81957 0.510687 2.06903 0.626557 2.2484 0.821597L7.0144 6.0216L11.7814 0.821598C11.9642 0.641958 12.2089 0.53933 12.4651 0.534894C12.7213 0.530457 12.9695 0.624551 13.1583 0.797756C13.3472 0.970961 13.4623 1.21006 13.48 1.4657C13.4977 1.72135 13.4166 1.97403 13.2534 2.1716L7.7464 8.1716C7.65802 8.27639 7.54754 8.36033 7.42288 8.41739C7.29822 8.47444 7.16249 8.5032 7.0254 8.5016C6.88672 8.50084 6.74961 8.47211 6.62229 8.41712C6.49497 8.36214 6.38004 8.28203 6.2844 8.1816L0.777405 2.1816C0.612209 1.99324 0.519657 1.75211 0.516404 1.5016Z" fill="black"/>
</svg>
