<svg width="81" height="32" viewBox="0 0 81 32" fill="none" xmlns="http://www.w3.org/2000/svg">
<path d="M7.395 11.715H5.775V2.625H0.765V1.17H7.395V11.715ZM10.665 0.36H12.285V13.425H10.665V0.36ZM18.0766 0.285L22.0966 6.06L20.8066 6.945L18.0766 2.985L15.3766 7.05L14.0566 6.165L18.0766 0.285ZM25.1116 7.29H23.4916V0.36H25.1116V2.895H26.9866V4.5H25.1116V7.29ZM24.4516 10.65C24.4516 11.09 24.3616 11.505 24.1816 11.895C24.0016 12.275 23.7616 12.61 23.4616 12.9C23.1516 13.19 22.7866 13.42 22.3666 13.59C21.9566 13.76 21.5216 13.845 21.0616 13.845C20.6016 13.845 20.1616 13.76 19.7416 13.59C19.3216 13.42 18.9566 13.19 18.6466 12.9C18.3466 12.61 18.1066 12.275 17.9266 11.895C17.7466 11.505 17.6566 11.09 17.6566 10.65C17.6566 10.21 17.7466 9.795 17.9266 9.405C18.1066 9.015 18.3466 8.675 18.6466 8.385C18.9566 8.095 19.3216 7.865 19.7416 7.695C20.1616 7.525 20.6016 7.44 21.0616 7.44C21.5216 7.44 21.9566 7.525 22.3666 7.695C22.7866 7.865 23.1516 8.095 23.4616 8.385C23.7616 8.675 24.0016 9.015 24.1816 9.405C24.3616 9.795 24.4516 10.21 24.4516 10.65ZM22.8616 10.635C22.8616 10.145 22.6816 9.725 22.3216 9.375C21.9616 9.015 21.5366 8.835 21.0466 8.835C20.5566 8.835 20.1316 9.015 19.7716 9.375C19.4216 9.725 19.2466 10.145 19.2466 10.635C19.2466 11.125 19.4216 11.545 19.7716 11.895C20.1316 12.245 20.5566 12.42 21.0466 12.42C21.5366 12.42 21.9616 12.245 22.3216 11.895C22.6816 11.545 22.8616 11.125 22.8616 10.635ZM28.1133 2.85V1.485H31.1733V0.21H32.8983V1.485H35.8083V2.85H32.6583L35.9283 6.18L34.8483 7.185L32.0283 4.26L29.2533 7.425L28.1433 6.39L31.4133 2.85H28.1133ZM38.0283 7.665V4.695H35.7483V3.3H38.0283V0.36H39.6483V7.665H38.0283ZM38.5383 10.65C38.5383 11.09 38.4483 11.505 38.2683 11.895C38.0883 12.275 37.8483 12.61 37.5483 12.9C37.2383 13.19 36.8733 13.42 36.4533 13.59C36.0433 13.76 35.6083 13.845 35.1483 13.845C34.6883 13.845 34.2483 13.76 33.8283 13.59C33.4083 13.42 33.0433 13.19 32.7333 12.9C32.4333 12.61 32.1933 12.275 32.0133 11.895C31.8333 11.505 31.7433 11.09 31.7433 10.65C31.7433 10.21 31.8333 9.795 32.0133 9.405C32.1933 9.015 32.4333 8.675 32.7333 8.385C33.0433 8.095 33.4083 7.865 33.8283 7.695C34.2483 7.525 34.6883 7.44 35.1483 7.44C35.6083 7.44 36.0433 7.525 36.4533 7.695C36.8733 7.865 37.2383 8.095 37.5483 8.385C37.8483 8.675 38.0883 9.015 38.2683 9.405C38.4483 9.795 38.5383 10.21 38.5383 10.65ZM36.9483 10.635C36.9483 10.145 36.7683 9.725 36.4083 9.375C36.0483 9.015 35.6233 8.835 35.1333 8.835C34.6433 8.835 34.2183 9.015 33.8583 9.375C33.5083 9.725 33.3333 10.145 33.3333 10.635C33.3333 11.125 33.5083 11.545 33.8583 11.895C34.2183 12.245 34.6433 12.42 35.1333 12.42C35.6233 12.42 36.0483 12.245 36.4083 11.895C36.7683 11.545 36.9483 11.125 36.9483 10.635ZM7.395 29.715H5.775V20.625H0.765V19.17H7.395V29.715ZM10.665 18.36H12.285V31.425H10.665V18.36ZM25.6816 19.59V20.985H23.1166C23.6166 21.575 23.8666 22.22 23.8666 22.92C23.8666 23.34 23.7766 23.74 23.5966 24.12C23.4166 24.5 23.1766 24.83 22.8766 25.11C22.5766 25.39 22.2216 25.615 21.8116 25.785C21.4116 25.945 20.9816 26.025 20.5216 26.025C20.0616 26.025 19.6266 25.945 19.2166 25.785C18.8166 25.615 18.4666 25.39 18.1666 25.11C17.8666 24.83 17.6266 24.5 17.4466 24.12C17.2666 23.74 17.1766 23.34 17.1766 22.92C17.1766 22.21 17.4266 21.565 17.9266 20.985H15.3616V19.59H19.6366V18.15H21.3916V19.59H25.6816ZM22.2766 22.92C22.2766 22.44 22.1016 22.03 21.7516 21.69C21.4116 21.35 21.0016 21.18 20.5216 21.18C20.0416 21.18 19.6266 21.35 19.2766 21.69C18.9366 22.03 18.7666 22.44 18.7666 22.92C18.7666 23.4 18.9366 23.81 19.2766 24.15C19.6266 24.49 20.0416 24.66 20.5216 24.66C21.0016 24.66 21.4116 24.49 21.7516 24.15C22.1016 23.81 22.2766 23.4 22.2766 22.92ZM14.5216 28.5V27.075H26.5216V28.5H21.3316V31.425H19.6966V28.5H14.5216ZM28.1583 20.13V18.735H35.6583V20.13H32.4633L35.7933 24.195L34.6533 25.125L31.9833 21.795L29.3283 25.35L28.1433 24.39L31.4583 20.13H28.1583ZM38.0283 25.29V22.455H35.5983V21.06H38.0283V18.36H39.6483V25.29H38.0283ZM38.5383 28.65C38.5383 29.09 38.4483 29.505 38.2683 29.895C38.0883 30.275 37.8483 30.61 37.5483 30.9C37.2383 31.19 36.8733 31.42 36.4533 31.59C36.0433 31.76 35.6083 31.845 35.1483 31.845C34.6883 31.845 34.2483 31.76 33.8283 31.59C33.4083 31.42 33.0433 31.19 32.7333 30.9C32.4333 30.61 32.1933 30.275 32.0133 29.895C31.8333 29.505 31.7433 29.09 31.7433 28.65C31.7433 28.21 31.8333 27.795 32.0133 27.405C32.1933 27.015 32.4333 26.675 32.7333 26.385C33.0433 26.095 33.4083 25.865 33.8283 25.695C34.2483 25.525 34.6883 25.44 35.1483 25.44C35.6083 25.44 36.0433 25.525 36.4533 25.695C36.8733 25.865 37.2383 26.095 37.5483 26.385C37.8483 26.675 38.0883 27.015 38.2683 27.405C38.4483 27.795 38.5383 28.21 38.5383 28.65ZM36.9483 28.635C36.9483 28.145 36.7683 27.725 36.4083 27.375C36.0483 27.015 35.6233 26.835 35.1333 26.835C34.6433 26.835 34.2183 27.015 33.8583 27.375C33.5083 27.725 33.3333 28.145 33.3333 28.635C33.3333 29.125 33.5083 29.545 33.8583 29.895C34.2183 30.245 34.6433 30.42 35.1333 30.42C35.6233 30.42 36.0483 30.245 36.4083 29.895C36.7683 29.545 36.9483 29.125 36.9483 28.635ZM51.3199 24.96V22.335H44.4499V24.96H51.3199ZM51.3199 20.925V18.915H52.9249V26.385H48.6949V29.025H53.8849V30.465H41.8849V29.025H47.0599V26.385H42.8449V18.915H44.4499V20.925H51.3199ZM56.3766 19.035H66.7566V20.46H65.0316V24.6H66.7566V26.01H62.3766V29.025H67.5666V30.465H55.5666V29.025H60.7416V26.01H56.3766V24.6H58.1016V20.46H56.3766V19.035ZM63.4566 20.46H59.6766V24.6H63.4566V20.46ZM76.7782 23.385V24.63H69.7282V18.735H76.6282V20.025H71.3332V21.075H76.1482V22.275H71.3332V23.385H76.7782ZM79.0732 18.36H80.6932V24.9H79.0732V22.5H77.0482V21.075H79.0732V18.36ZM70.4332 25.545H80.6932V28.92H72.0532V29.85H80.8432V31.17H70.4332V27.705H79.0732V26.82H70.4332V25.545Z" fill="white"/>
</svg>
