<svg width="46" height="46" viewBox="0 0 46 46" fill="none" xmlns="http://www.w3.org/2000/svg">
<circle cx="23" cy="23" r="23" fill="white"/>
<path d="M33.46 21.45C29.92 19.04 25.39 20.02 23.01 23.64C21.02 26.66 18.02 27.04 16.86 27.04C13.07 27.04 10.48 24.38 9.71 21.62C9.7 21.59 9.7 21.57 9.69 21.54C9.68 21.51 9.67 21.48 9.67 21.45C9.37 20.3 9.29 19.75 9.29 18.53C9.29 11.94 16.05 4.6 25.79 4.6C35.76 4.6 41.47 12.19 42.94 16.41C42.91 16.34 42.89 16.26 42.87 16.19C40.04 7.94 32.21 2 23 2C11.41 2 2 11.4 2 23C2 33.37 9.48 42.24 19.85 42.24C28.12 42.24 33.68 37.6 36.23 31.21C37.63 27.72 36.64 23.61 33.46 21.45Z" fill="#003668"/>
<path d="M43.08 16.82C41.85 12.7 36.1 4.6 25.8 4.6C16.06 4.6 9.3 11.94 9.3 18.53C9.3 19.75 9.37 20.3 9.68 21.45C9.55 20.95 9.49 20.44 9.49 19.95C9.49 13.09 16.36 8.33 23.43 8.33C32.99 8.33 40.75 16.08 40.75 25.64C40.75 33.14 36.44 39.63 30.17 42.74C38.23 39.83 44 32.09 44 23C44 20.85 43.71 18.96 43.08 16.82Z" fill="#E6002D"/>
</svg>
