<svg width="24" height="24" viewBox="0 0 24 24" fill="none" xmlns="http://www.w3.org/2000/svg">
<mask id="mask0_155_908" style="mask-type:alpha" maskUnits="userSpaceOnUse" x="0" y="0" width="24" height="24">
<rect width="24" height="24" fill="#D9D9D9"/>
</mask>
<g mask="url(#mask0_155_908)">
<path d="M13 3C13 2.44775 12.5523 2 12 2C11.4477 2 11 2.44775 11 3V4C11 4.55225 11.4477 5 12 5C12.5523 5 13 4.55225 13 4V3Z" fill="#FF6700"/>
<path d="M6.30713 4.89294C5.91656 4.50232 5.28345 4.50232 4.89288 4.89294C4.50238 5.28345 4.50238 5.91663 4.89288 6.30713L5.5929 7.00708C5.9834 7.39758 6.61658 7.39758 7.00708 7.00708C7.39764 6.61658 7.39764 5.9834 7.00708 5.5929L6.30713 4.89294Z" fill="#FF6700"/>
<path d="M19.1071 6.30713C19.4976 5.91663 19.4976 5.28345 19.1071 4.89294C18.7166 4.50232 18.0834 4.50232 17.6929 4.89294L16.9929 5.5929C16.6024 5.9834 16.6024 6.61658 16.9929 7.00708C17.3834 7.39758 18.0166 7.39758 18.4071 7.00708L19.1071 6.30713Z" fill="#FF6700"/>
<path d="M12 7C9.23859 7 7 9.23853 7 12C7 14.7615 9.23859 17 12 17C14.7614 17 17 14.7615 17 12C17 9.23853 14.7614 7 12 7Z" fill="#FF6700"/>
<path d="M3 11C2.44769 11 2 11.4478 2 12C2 12.5522 2.44769 13 3 13H4C4.55231 13 5 12.5522 5 12C5 11.4478 4.55231 11 4 11H3Z" fill="#FF6700"/>
<path d="M20 11C19.4477 11 19 11.4478 19 12C19 12.5522 19.4477 13 20 13H21C21.5523 13 22 12.5522 22 12C22 11.4478 21.5523 11 21 11H20Z" fill="#FF6700"/>
<path d="M7.00708 18.4071C7.39764 18.0166 7.39764 17.3834 7.00708 16.9929C6.61658 16.6024 5.9834 16.6024 5.5929 16.9929L4.89288 17.6929C4.50238 18.0834 4.50238 18.7166 4.89288 19.1071C5.28339 19.4977 5.91656 19.4977 6.30713 19.1071L7.00708 18.4071Z" fill="#FF6700"/>
<path d="M18.4071 16.9929C18.0166 16.6024 17.3834 16.6024 16.9929 16.9929C16.6024 17.3834 16.6024 18.0166 16.9929 18.4071L17.6929 19.1071C18.0834 19.4977 18.7166 19.4977 19.1071 19.1071C19.4976 18.7166 19.4976 18.0834 19.1071 17.6929L18.4071 16.9929Z" fill="#FF6700"/>
<path d="M13 20C13 19.4478 12.5523 19 12 19C11.4477 19 11 19.4478 11 20V21C11 21.5522 11.4477 22 12 22C12.5523 22 13 21.5522 13 21V20Z" fill="#FF6700"/>
</g>
</svg>
