<svg width="24" height="24" viewBox="0 0 24 24" fill="none" xmlns="http://www.w3.org/2000/svg">
<mask id="mask0_3053_103" style="mask-type:alpha" maskUnits="userSpaceOnUse" x="0" y="0" width="24" height="24">
<rect width="24" height="24" fill="#D9D9D9"/>
</mask>
<g mask="url(#mask0_3053_103)">
<path d="M1 22V4H11V6H3V20H17V14H19V22H1ZM5 18H7V11H5V18ZM9 18H11V8H9V18ZM13 18H15V14H13V18ZM18 12C17.5 12 17.0083 11.925 16.525 11.775C16.0417 11.625 15.5917 11.4083 15.175 11.125L14.075 12.15L12.7 10.775L13.8 9.675C13.5333 9.275 13.3333 8.85 13.2 8.4C13.0667 7.95 13 7.48333 13 7C13 5.61667 13.4875 4.4375 14.4625 3.4625C15.4375 2.4875 16.6167 2 18 2H23V7C23 8.38333 22.5125 9.5625 21.5375 10.5375C20.5625 11.5125 19.3833 12 18 12ZM18 10C18.8333 10 19.5417 9.70833 20.125 9.125C20.7083 8.54167 21 7.83333 21 7V4H18C17.1667 4 16.4583 4.29167 15.875 4.875C15.2917 5.45833 15 6.16667 15 7C15 7.21667 15.0208 7.425 15.0625 7.625C15.1042 7.825 15.1667 8.025 15.25 8.225L18.55 4.925L19.975 6.325L16.65 9.65C16.8667 9.75 17.0875 9.83333 17.3125 9.9C17.5375 9.96667 17.7667 10 18 10Z" fill="#24D130"/>
</g>
</svg>
