<svg width="20" height="20" viewBox="0 0 20 20" fill="none" xmlns="http://www.w3.org/2000/svg">
<mask id="mask0_901_4584" style="mask-type:alpha" maskUnits="userSpaceOnUse" x="0" y="0" width="20" height="20">
<rect width="20" height="20" fill="#D9D9D9"/>
</mask>
<g mask="url(#mask0_901_4584)">
<path d="M10.9138 16.9116C10.8527 16.9641 10.7877 17.0045 10.7188 17.0329C10.6499 17.0611 10.5746 17.0751 10.4927 17.0751C10.4111 17.0751 10.328 17.0589 10.2436 17.0264C10.1593 16.9938 10.0861 16.9465 10.024 16.8845C9.51872 16.3322 9.13469 15.7539 8.87192 15.1497C8.609 14.5456 8.47754 13.9063 8.47754 13.232C8.47754 12.7429 8.54858 12.2283 8.69067 11.6883C8.83289 11.1481 9.08344 10.4481 9.44233 9.58807C9.7458 8.82307 9.96004 8.22675 10.085 7.79911C10.21 7.37147 10.2725 6.97536 10.2725 6.61078C10.2725 6.13411 10.1684 5.68425 9.96004 5.26119C9.75171 4.83814 9.42532 4.41557 8.98087 3.99348C8.91976 3.93043 8.87136 3.85689 8.83567 3.77286C8.79997 3.68883 8.78212 3.6048 8.78212 3.52077C8.78212 3.44175 8.79629 3.36779 8.82462 3.2989C8.85296 3.23001 8.8933 3.16452 8.94567 3.10244C9.00858 3.0405 9.0799 2.99272 9.15962 2.95911C9.23921 2.9255 9.32143 2.90869 9.40629 2.90869C9.49129 2.90869 9.56928 2.92515 9.64025 2.95807C9.71136 2.99098 9.77733 3.03487 9.83817 3.08973C10.3798 3.60043 10.7959 4.14959 11.0865 4.73723C11.3772 5.32473 11.5225 5.94841 11.5225 6.60827C11.5225 7.07022 11.4538 7.55522 11.3163 8.06327C11.1788 8.57147 10.9398 9.23466 10.5994 10.0529C10.2629 10.8594 10.0334 11.4876 9.91108 11.9374C9.78872 12.3872 9.72754 12.8134 9.72754 13.2162C9.72754 13.7117 9.82692 14.1895 10.0257 14.6495C10.2244 15.1097 10.5321 15.5662 10.9488 16.0191C11.0012 16.082 11.0431 16.1501 11.0746 16.2235C11.1062 16.2968 11.1219 16.3754 11.1219 16.4591C11.1219 16.543 11.105 16.6236 11.0713 16.701C11.0377 16.7785 10.9852 16.8487 10.9138 16.9116ZM14.8082 16.9101C14.7469 16.9636 14.682 17.0058 14.6134 17.0368C14.5446 17.0678 14.468 17.0833 14.3834 17.0833C14.2988 17.0833 14.2155 17.0654 14.1336 17.0297C14.0515 16.994 13.9798 16.9456 13.9184 16.8845C13.413 16.3376 13.0275 15.7628 12.7621 15.1602C12.4966 14.5577 12.3638 13.9212 12.3638 13.2508C12.3638 12.7645 12.4362 12.2454 12.5809 11.6933C12.7257 11.1413 12.9776 10.4396 13.3365 9.58807C13.6452 8.81779 13.8608 8.22341 13.9832 7.80494C14.1055 7.38633 14.1667 6.99571 14.1667 6.63307C14.1667 6.15057 14.0625 5.69286 13.8542 5.25994C13.6459 4.82716 13.3195 4.40501 12.875 3.99348C12.8131 3.93001 12.7666 3.85869 12.7357 3.77952C12.7047 3.70022 12.6892 3.61827 12.6892 3.53369C12.6892 3.453 12.7012 3.37994 12.7252 3.31452C12.7493 3.24911 12.7876 3.1848 12.8402 3.12161C12.9033 3.05855 12.977 3.00862 13.0613 2.97182C13.1455 2.93501 13.2291 2.91661 13.3121 2.91661C13.3952 2.91661 13.4704 2.93237 13.5377 2.9639C13.6052 2.99529 13.6701 3.03723 13.7323 3.08973C14.274 3.60043 14.6902 4.14959 14.9809 4.73723C15.2714 5.32473 15.4167 5.94841 15.4167 6.60827C15.4167 7.07022 15.3478 7.5539 15.21 8.05932C15.0721 8.56459 14.8307 9.23605 14.4857 10.0737C14.1491 10.8856 13.9197 11.5138 13.7973 11.9583C13.675 12.4027 13.6138 12.8217 13.6138 13.2154C13.6138 13.7074 13.718 14.1874 13.9263 14.6554C14.1346 15.1233 14.4471 15.5848 14.8638 16.0399C14.9145 16.1019 14.9525 16.169 14.978 16.2414C15.0034 16.3136 15.0161 16.3859 15.0161 16.4583C15.0161 16.5409 14.9992 16.6236 14.9655 16.7062C14.9318 16.7887 14.8794 16.8567 14.8082 16.9101ZM7.01962 16.9101C6.95851 16.9636 6.89358 17.0058 6.82483 17.0368C6.75608 17.0678 6.67942 17.0833 6.59483 17.0833C6.51025 17.0833 6.42699 17.0654 6.34504 17.0297C6.2631 16.994 6.19136 16.9456 6.12983 16.8845C5.62455 16.3376 5.24046 15.7628 4.97754 15.1602C4.71476 14.5577 4.58337 13.9212 4.58337 13.2508C4.58337 12.7645 4.65442 12.2454 4.7965 11.6933C4.93858 11.1413 5.18914 10.4396 5.54817 9.58807C5.85692 8.81779 6.07247 8.22341 6.19483 7.80494C6.31719 7.38633 6.37837 6.99571 6.37837 6.63307C6.37837 6.15057 6.27421 5.69286 6.06587 5.25994C5.85754 4.82716 5.53115 4.40501 5.08671 3.99348C5.01532 3.93001 4.96435 3.85862 4.93379 3.77932C4.90324 3.69987 4.88796 3.61883 4.88796 3.53619C4.88796 3.45369 4.90212 3.37626 4.93046 3.3039C4.95865 3.23168 4.999 3.16452 5.0515 3.10244C5.11442 3.0405 5.18594 2.99272 5.26608 2.95911C5.34622 2.9255 5.42712 2.90869 5.50879 2.90869C5.5906 2.90869 5.66796 2.92515 5.74087 2.95807C5.81379 2.99098 5.8815 3.03487 5.944 3.08973C6.48567 3.60043 6.90178 4.14779 7.19233 4.73182C7.48289 5.31598 7.62817 5.94279 7.62817 6.61223C7.62817 7.06626 7.56275 7.54591 7.43192 8.05119C7.30108 8.55661 7.06324 9.22494 6.71837 10.0562C6.38699 10.8605 6.15879 11.4876 6.03379 11.9374C5.90879 12.3872 5.84629 12.8134 5.84629 13.2162C5.84629 13.713 5.94699 14.1958 6.14837 14.6647C6.34976 15.1336 6.65879 15.592 7.07546 16.0399C7.12615 16.1019 7.16421 16.169 7.18962 16.2414C7.2149 16.3136 7.22754 16.3859 7.22754 16.4583C7.22754 16.5409 7.21074 16.6236 7.17712 16.7062C7.14351 16.7887 7.09101 16.8567 7.01962 16.9101Z" fill="#fff"/>
</g>
</svg>
