<svg width="24" height="24" viewBox="0 0 24 24" fill="none" xmlns="http://www.w3.org/2000/svg">
<mask id="mask0_901_4841" style="mask-type:alpha" maskUnits="userSpaceOnUse" x="0" y="0" width="24" height="24">
<rect width="24" height="24" fill="#D9D9D9"/>
</mask>
<g mask="url(#mask0_901_4841)">
<path d="M12.5996 11.9998L8.69962 8.0998C8.51629 7.91647 8.42462 7.68314 8.42462 7.3998C8.42462 7.11647 8.51629 6.88314 8.69962 6.6998C8.88295 6.51647 9.11629 6.4248 9.39962 6.4248C9.68295 6.4248 9.91629 6.51647 10.0996 6.6998L14.6996 11.2998C14.7996 11.3998 14.8705 11.5081 14.9121 11.6248C14.9538 11.7415 14.9746 11.8665 14.9746 11.9998C14.9746 12.1331 14.9538 12.2581 14.9121 12.3748C14.8705 12.4915 14.7996 12.5998 14.6996 12.6998L10.0996 17.2998C9.91629 17.4831 9.68295 17.5748 9.39962 17.5748C9.11629 17.5748 8.88295 17.4831 8.69962 17.2998C8.51629 17.1165 8.42462 16.8831 8.42462 16.5998C8.42462 16.3165 8.51629 16.0831 8.69962 15.8998L12.5996 11.9998Z" fill="white"/>
</g>
</svg>
