<svg width="22" height="22" viewBox="0 0 22 22" fill="none" xmlns="http://www.w3.org/2000/svg">
<path d="M11.005 0C4.92223 0 0 4.92224 0 11.005C0 12.2656 0.2201 13.4761 0.620282 14.6066C1.5507 17.2779 3.46157 19.4789 5.9427 20.7594C7.46339 21.5498 9.18417 22 11.005 22C13.9563 22 16.6275 20.8295 18.5984 18.9386C20.1591 17.4479 21.2797 15.507 21.7499 13.3161C21.9099 12.5657 22 11.7854 22 10.985C22.01 4.92224 17.0878 0 11.005 0ZM18.0582 13.146C18.0582 14.7967 13.306 15.7372 13.306 17.508C13.306 18.2983 14.3565 18.9486 16.4575 18.9486H17.0477C15.367 20.2292 13.276 21.0096 10.995 21.0096C9.65438 21.0096 8.3638 20.7394 7.19326 20.2592C6.90313 19.829 6.73306 19.3888 6.73306 18.9586C6.73306 15.5671 15.2069 14.6266 15.2069 12.8358C15.2069 12.0255 13.8463 11.8054 12.5457 11.7653L8.65393 6.3729C8.07366 5.56253 7.12323 5.56253 6.53297 6.3729L1.35061 13.5862C1.13051 12.7558 1.00045 11.8954 1.00045 11.005C1.00045 5.4925 5.49249 1.00045 11.005 1.00045C16.5175 1.00045 21.0095 5.4925 21.0095 11.005C21.0095 11.4052 20.9795 11.8054 20.9295 12.1955L17.648 7.66348C17.0677 6.85312 16.1073 6.85312 15.517 7.66348L12.9159 11.2651C16.5975 11.4352 18.0582 12.2656 18.0582 13.156V13.146Z" fill="#49577C"/>
</svg>
