<svg width="24" height="24" viewBox="0 0 24 24" fill="none" xmlns="http://www.w3.org/2000/svg">
<mask id="mask0_3055_951" style="mask-type:alpha" maskUnits="userSpaceOnUse" x="0" y="0" width="24" height="24">
<rect width="24" height="24" fill="#D9D9D9"/>
</mask>
<g mask="url(#mask0_3055_951)">
<path d="M15 22C14.15 22 13.4375 21.7125 12.8625 21.1375C12.2875 20.5625 12 19.85 12 19C12 18.5667 12.0875 18.1625 12.2625 17.7875C12.4375 17.4125 12.6833 17.0833 13 16.8V14C13 13.45 13.1958 12.9792 13.5875 12.5875C13.9792 12.1958 14.45 12 15 12C15.55 12 16.0208 12.1958 16.4125 12.5875C16.8042 12.9792 17 13.45 17 14V16.8C17.3 17.0833 17.5417 17.4125 17.725 17.7875C17.9083 18.1625 18 18.5667 18 19C18 19.85 17.7083 20.5625 17.125 21.1375C16.5417 21.7125 15.8333 22 15 22ZM13.5 19H16.5C16.5 18.6167 16.3958 18.3208 16.1875 18.1125C15.9792 17.9042 15.75 17.6833 15.5 17.45V14C15.5 13.8667 15.45 13.75 15.35 13.65C15.25 13.55 15.1333 13.5 15 13.5C14.8667 13.5 14.75 13.55 14.65 13.65C14.55 13.75 14.5 13.8667 14.5 14V17.45C14.2333 17.6833 14 17.9042 13.8 18.1125C13.6 18.3208 13.5 18.6167 13.5 19ZM18 16.5V15H21V16.5H18ZM18 14V12.5H22V14H18ZM20.775 10H18.7C18.2667 8.53333 17.4417 7.33333 16.225 6.4C15.0083 5.46667 13.6 5 12 5C10.05 5 8.39583 5.67917 7.0375 7.0375C5.67917 8.39583 5 10.05 5 12C5 13.2 5.27083 14.3 5.8125 15.3C6.35417 16.3 7.08333 17.1167 8 17.75V15H10V21H4V19H6.35C5.31667 18.1667 4.5 17.1458 3.9 15.9375C3.3 14.7292 3 13.4167 3 12C3 10.75 3.2375 9.57917 3.7125 8.4875C4.1875 7.39583 4.82917 6.44583 5.6375 5.6375C6.44583 4.82917 7.39583 4.1875 8.4875 3.7125C9.57917 3.2375 10.75 3 12 3C14.15 3 16.0375 3.6625 17.6625 4.9875C19.2875 6.3125 20.325 7.98333 20.775 10Z" fill="#0EB0F6"/>
</g>
</svg>
