<svg width="24" height="24" viewBox="0 0 24 24" fill="none" xmlns="http://www.w3.org/2000/svg">
<mask id="mask0_901_4812" style="mask-type:alpha" maskUnits="userSpaceOnUse" x="0" y="0" width="24" height="24">
<rect width="24" height="24" fill="#D9D9D9"/>
</mask>
<g mask="url(#mask0_901_4812)">
<path d="M4.85695 23L4 21.68L5.2025 19.37V17.28L5.32689 16.84L6.76436 14.365L6.30824 12.8937L5.81066 12.77L5.16103 12.1788L4.38701 9.95125L4.70491 8.93375L6.23913 7.82L5.71391 6.98125L5.57569 6.43125L5.6448 5.455L5.86595 4.9325L8.31241 2.1275L9.01732 1.81125H12.224L13.2192 1L14.4631 1.055L17.034 3.57125L19.4251 6.98125L19.591 7.47625L19.6601 12.6875L20.6 13.4988L19.7707 16.6337L19.591 16.9775L17.96 18.9575L17.2966 19.3013L15.5965 19.4113L15.3615 20.14L14.1729 20.7313L12.3898 20.1262L9.80516 21.1163L8.93439 22.4775L8.17419 22.9038L4.85695 23ZM7.06844 17.5275V19.59L6.97169 20.0025L6.37735 21.1437L7.62132 21.1025L8.38152 19.8925L8.82381 19.5212L12.0167 18.2975H12.6663L13.8688 18.6962L14.007 18.2563L14.8363 17.6238L16.7575 17.5L18.0015 15.9738L18.4991 14.09L17.7942 13.6362L17.7251 7.75125L15.555 4.64375L13.7582 2.91125L13.15 3.40625L12.5557 3.6125H9.4458L7.46928 5.8675L7.44163 6.2525L8.25712 7.545L8.02215 8.755L6.34971 9.97875L6.75054 11.12L7.26195 11.2437L7.9254 11.8625L8.65795 14.1863L8.57502 14.9012L7.06844 17.5138V17.5275Z" fill="white"/>
</g>
</svg>
