<svg width="22" height="22" viewBox="0 0 22 22" fill="none" xmlns="http://www.w3.org/2000/svg">
<path fill-rule="evenodd" clip-rule="evenodd" d="M21.5798 7.98637C21.5798 7.98637 21.5798 7.95638 21.5698 7.94639C21.4998 7.71649 21.4297 7.49659 21.3497 7.27669C21.3197 7.18673 21.2797 7.08678 21.2497 6.99682C21.1796 6.80691 21.0996 6.61699 21.0096 6.43707C20.9595 6.31713 20.8995 6.19718 20.8395 6.07724C20.7594 5.91731 20.6794 5.74739 20.5894 5.59746C20.5093 5.45752 20.4193 5.31758 20.3393 5.17765C20.2592 5.04771 20.1792 4.90777 20.0891 4.78782C19.9191 4.53794 19.739 4.28805 19.5389 4.05816C17.508 1.57928 14.4466 0 11.005 0C7.18327 0 3.82174 1.93912 1.85085 4.89777C1.64075 5.21763 1.44066 5.54748 1.26058 5.88732C1.24057 5.9373 1.21056 5.98728 1.19055 6.02726C1.03047 6.33712 0.89041 6.64698 0.760351 6.97683C0.750346 7.01681 0.730337 7.0468 0.720333 7.08678C0.590274 7.43662 0.470219 7.78646 0.380178 8.15629C0.380178 8.16629 0.380178 8.18628 0.370174 8.19627C0.270128 8.5861 0.190092 8.97592 0.130064 9.37574C0.0900461 9.61563 0.0600325 9.84552 0.0400234 10.0954H0.050028C0.0300189 10.3553 0.0100098 10.6252 0.0100098 10.895C0.0100098 10.935 0.0100098 10.965 0.0100098 11.005C0.0100098 11.1149 0.0200143 11.2149 0.0300189 11.3249C0.0300189 11.4748 0.0400234 11.6247 0.050028 11.7746H0.0400234C0.0800416 12.4044 0.180087 13.0041 0.320151 13.6038C0.330155 13.6538 0.350164 13.7038 0.360169 13.7537C1.58072 18.4916 5.88268 22 11.005 22C17.0878 22 22.01 17.0822 22.01 11.005C22.01 9.96547 21.8499 8.95593 21.5798 7.99637V7.98637ZM11.005 20.9905C6.62302 20.9905 2.89132 18.1517 1.54071 14.2135C1.58072 14.1736 1.63075 14.1236 1.65076 14.1036C1.69077 14.0636 1.71078 14.0236 1.71078 13.9736V13.5638C1.71078 13.5139 1.69077 13.4639 1.65076 13.4339C1.61074 13.3939 1.57072 13.3739 1.5207 13.3739H1.3006C1.29059 13.3139 1.27058 13.264 1.26058 13.204H1.72079C1.77081 13.204 1.82083 13.184 1.85085 13.144C1.98091 13.0141 2.30105 12.6942 2.49114 12.5043C2.56117 12.4343 2.56117 12.3144 2.49114 12.2344C2.49114 12.2344 2.49114 12.2344 2.48113 12.2244C2.44111 12.1845 2.4011 12.1645 2.35107 12.1645H1.87086C1.87086 12.1645 1.77081 12.1445 1.7408 12.1045C1.70078 12.0645 1.65076 12.0145 1.60073 11.9646C1.56071 11.9246 1.54071 11.8546 1.57072 11.8046C1.60073 11.7547 1.65076 11.7147 1.71078 11.7147H1.72079C1.72079 11.7147 1.73079 11.7147 1.7408 11.7147L1.91087 11.8846C1.91087 11.8846 1.99091 11.9446 2.04093 11.9446H2.38109C2.38109 11.9446 2.48113 11.9646 2.51115 12.0045L2.53116 12.0245C2.53116 12.0245 2.61119 12.0845 2.66122 12.0845H3.2815C3.33152 12.0845 3.38154 12.1045 3.41156 12.1445L4.08186 12.8142C4.08186 12.8142 4.14189 12.8941 4.14189 12.9441V13.194C4.14189 13.244 4.1619 13.294 4.20191 13.3239C4.21192 13.3239 4.22192 13.3439 4.23193 13.3539C4.27195 13.3939 4.29196 13.4339 4.29196 13.4839V13.5738C4.29196 13.6238 4.31196 13.6738 4.35198 13.7038C4.382 13.7338 4.41201 13.7637 4.44202 13.7937C4.51206 13.8637 4.63211 13.8637 4.71215 13.7937C4.74216 13.7637 4.78218 13.7238 4.80219 13.7038C4.84221 13.6638 4.86222 13.6238 4.86222 13.5738V13.274C4.86222 13.224 4.88222 13.174 4.92224 13.144C5.0523 13.0141 5.38245 12.6842 5.51251 12.5543C5.55253 12.5143 5.59255 12.4943 5.64257 12.4943H5.94271C5.99273 12.4943 6.04275 12.5143 6.07277 12.5543L7.32333 13.8037C7.32333 13.8037 7.40337 13.8637 7.45339 13.8637C7.50342 13.8637 7.55344 13.8437 7.58345 13.8037C7.66349 13.7238 7.75353 13.6338 7.83357 13.5538C7.87358 13.5139 7.89359 13.4739 7.89359 13.4239C7.89359 13.3739 7.87358 13.3239 7.83357 13.294C7.76353 13.224 7.67349 13.134 7.60346 13.0641C7.56344 13.0241 7.54343 12.9841 7.54343 12.9341C7.54343 12.8841 7.56344 12.8342 7.60346 12.8042C7.70351 12.7042 7.84357 12.5643 7.9136 12.4943C7.95362 12.4543 7.99364 12.4343 8.04366 12.4343H8.50387C8.55389 12.4343 8.60392 12.4144 8.63393 12.3744C8.73398 12.2744 8.95408 12.0545 9.05412 11.9546C9.09414 11.9146 9.11415 11.8746 9.11415 11.8246V10.4952C9.11415 10.3953 9.19418 10.3053 9.30423 10.3053H9.40428C9.40428 10.3053 9.50432 10.3253 9.53434 10.3653C9.58436 10.4153 9.65439 10.4852 9.70442 10.5352C9.74443 10.5752 9.76444 10.6152 9.76444 10.6652V10.8351C9.76444 10.8351 9.78445 10.915 9.80446 10.935C9.82447 10.955 9.87449 10.975 9.90451 10.975C9.98454 10.975 10.0546 10.905 10.0546 10.8251V10.6951C10.0546 10.6951 10.0346 10.5952 9.99455 10.5652C9.97454 10.5452 9.95453 10.5252 9.93452 10.5052C9.8945 10.4652 9.87449 10.4253 9.87449 10.3753C9.87449 10.3253 9.8945 10.2753 9.93452 10.2453L11.2051 8.97592V8.15629C11.2051 8.15629 11.1851 8.07633 11.1651 8.04634C11.1451 8.01636 11.095 8.00636 11.055 8.00636C10.985 8.00636 10.925 7.96638 10.895 7.89641C10.8649 7.83644 10.885 7.75647 10.935 7.7065C11.1551 7.4866 11.4352 7.20672 11.5453 7.09677C11.5853 7.05679 11.6253 7.0368 11.6753 7.0368H12.4657C12.4657 7.0368 12.5657 7.01681 12.5957 6.97683L13.0059 6.56702C13.0059 6.56702 13.086 6.50704 13.136 6.50704H13.226C13.3061 6.50704 13.3761 6.55702 13.3961 6.62699C13.4261 6.69696 13.4061 6.77692 13.3561 6.83689C13.156 7.0368 12.9159 7.2667 12.8158 7.37665C12.7758 7.41663 12.7558 7.45661 12.7558 7.50659V8.22626C12.7558 8.30622 12.8058 8.37619 12.8759 8.39618C12.9459 8.42617 13.0259 8.40618 13.086 8.3562C13.246 8.19627 13.4161 8.02635 13.4961 7.94639C13.5362 7.90641 13.5562 7.86642 13.5562 7.81645V7.17674C13.5562 7.12676 13.5762 7.07678 13.6162 7.0468C13.6562 7.01681 13.6962 6.98682 13.7463 6.98682H14.1764C14.2265 6.98682 14.2765 6.96683 14.3065 6.92685C14.5066 6.72694 15.1969 6.03726 15.397 5.82735C15.437 5.78737 15.477 5.76738 15.5271 5.76738H15.9573C16.0073 5.76738 16.0573 5.74739 16.0873 5.70741C16.1273 5.66742 16.1473 5.62744 16.1473 5.57746V5.35756C16.1473 5.30759 16.1273 5.25761 16.0873 5.22762C15.9473 5.08769 15.5571 4.69786 15.417 4.55793C15.377 4.51795 15.337 4.49796 15.287 4.49796H13.0359C12.9859 4.49796 12.9359 4.47796 12.9059 4.43798C12.7558 4.28805 12.3356 3.86824 12.1855 3.71831C12.1455 3.67833 12.1055 3.65834 12.0555 3.65834H10.3547C10.3047 3.65834 10.2547 3.63835 10.2247 3.59836C10.0746 3.44843 9.65439 3.02862 9.50433 2.87869C9.46431 2.83871 9.42429 2.81872 9.37427 2.81872C9.25421 2.81872 9.03411 2.81872 8.92406 2.81872C8.87404 2.81872 8.82402 2.79873 8.794 2.75875C8.62393 2.58882 8.08368 2.04907 7.9136 1.87915C7.87358 1.83916 7.83357 1.81917 7.78354 1.81917H6.99318C8.23375 1.26942 9.59437 0.959564 11.025 0.959564C13.5762 0.959564 15.8972 1.92912 17.668 3.49841H17.3279C17.2779 3.49841 17.2278 3.5184 17.1978 3.55838C17.1778 3.57837 17.1678 3.58837 17.1478 3.60836C17.1078 3.64834 17.0878 3.68832 17.0878 3.7383V5.07769C17.0878 5.12767 17.0678 5.17765 17.0277 5.20763C16.9177 5.31758 16.6676 5.56747 16.5575 5.67742C16.5175 5.7174 16.4975 5.75738 16.4975 5.80736V6.64698C16.4975 6.69696 16.5175 6.74693 16.5575 6.77692C16.6976 6.91686 17.0578 7.27669 17.0778 7.29668C17.0778 7.29668 18.0082 6.36711 18.2383 6.13721C18.2783 6.09723 18.3183 6.07724 18.3684 6.07724H19.0187C19.0187 6.07724 19.1187 6.09723 19.1487 6.13721C19.3188 6.30713 19.849 6.83689 20.3092 7.29668C20.7594 8.42617 21.0096 9.65561 21.0096 10.945C21.0096 16.4525 16.5175 20.9405 11.005 20.9405V20.9905Z" fill="#fff"/>
<path fill-rule="evenodd" clip-rule="evenodd" d="M11.7553 16.8424C11.7553 16.8424 11.6953 16.7624 11.6953 16.7124V16.4725C11.6953 16.4725 11.6953 16.4325 11.6753 16.4125L11.6453 16.3826C11.5952 16.3326 11.5152 16.3126 11.4452 16.3426C11.3751 16.3726 11.3351 16.4325 11.3351 16.5125V16.5325C11.3351 16.5325 11.3351 16.5725 11.3151 16.5925C11.3151 16.5925 11.2951 16.6125 11.2851 16.6225C11.2551 16.6524 11.2051 16.6724 11.155 16.6724C11.105 16.6724 11.055 16.6524 11.025 16.6225C10.8949 16.4825 10.6848 16.2826 10.5848 16.1827C10.5448 16.1427 10.5048 16.1227 10.4547 16.1227H10.0946C10.0445 16.1227 9.99452 16.1427 9.96451 16.1827C9.80443 16.3426 9.36423 16.7824 9.21417 16.9323C9.17415 16.9723 9.13413 16.9923 9.08411 16.9923H8.82399C8.82399 16.9923 8.72394 17.0123 8.69393 17.0523C8.6239 17.1222 8.50384 17.2422 8.44382 17.3021C8.4038 17.3421 8.38379 17.3821 8.38379 17.4321V17.8619C8.38379 17.8619 8.4038 17.9618 8.44382 17.9918C8.44382 17.9918 8.45382 18.0018 8.46383 18.0118C8.50384 18.0518 8.52385 18.0918 8.52385 18.1418V18.4616C8.52385 18.5116 8.54386 18.5616 8.58388 18.5916C8.60389 18.6116 8.6339 18.6415 8.66392 18.6715C8.70393 18.7115 8.74395 18.7315 8.79398 18.7315C8.844 18.7315 8.89402 18.7115 8.92403 18.6715C8.95405 18.6415 8.97406 18.6215 9.00407 18.5916C9.04409 18.5516 9.08411 18.5316 9.13413 18.5316H9.48429C9.48429 18.5316 9.58433 18.5116 9.61435 18.4716C9.64436 18.4416 9.67438 18.4116 9.70439 18.3817C9.74441 18.3417 9.78443 18.3217 9.83445 18.3217H10.3047C10.3047 18.3217 10.4047 18.3417 10.4347 18.3817L11.1651 19.1113C11.1651 19.1113 11.2451 19.1713 11.2951 19.1713H11.7653C11.8153 19.1713 11.8654 19.1513 11.8954 19.1113L12.3256 18.6815C12.3256 18.6815 12.3856 18.6016 12.3856 18.5516V18.4116C12.3856 18.4116 12.4056 18.3117 12.4456 18.2817L12.4756 18.2517C12.4756 18.2517 12.5357 18.1717 12.5357 18.1218V17.692C12.5357 17.692 12.5157 17.592 12.4756 17.562C12.3256 17.4121 11.9154 17.0023 11.7653 16.8524L11.7553 16.8424Z" fill="#fff"/>
<path fill-rule="evenodd" clip-rule="evenodd" d="M11.4847 15.1831H11.2747C11.2747 15.1831 11.2347 15.1831 11.2247 15.1631C11.1947 15.1331 11.1447 15.0831 11.1147 15.0531C11.1047 15.0431 11.0847 15.0331 11.0647 15.0331H10.8547C10.8547 15.0331 10.8147 15.0331 10.8047 15.0531C10.8047 15.0531 10.8047 15.0531 10.7947 15.0631C10.7647 15.0931 10.7147 15.0931 10.6847 15.0631C10.6547 15.0331 10.6247 15.0031 10.6047 14.9831C10.5947 14.9731 10.5747 14.9631 10.5547 14.9631H10.4147C10.4147 14.9631 10.3547 14.9831 10.3447 15.0131C10.3347 15.0431 10.3447 15.0731 10.3647 15.0931L10.5947 15.3231C10.5947 15.3231 10.6247 15.3431 10.6447 15.3431H10.7747C10.7747 15.3431 10.8147 15.3431 10.8247 15.3631C10.9047 15.4431 11.1547 15.6931 11.2347 15.7731C11.2447 15.7831 11.2647 15.7931 11.2847 15.7931H11.3947C11.3947 15.7931 11.4347 15.7931 11.4447 15.7731C11.4747 15.7431 11.5247 15.6931 11.5547 15.6631C11.5647 15.6531 11.5847 15.6431 11.6047 15.6431H11.7547C11.7547 15.6431 11.7947 15.6431 11.8047 15.6631C11.8647 15.7231 12.0247 15.8831 12.0747 15.9331C12.0847 15.9431 12.1047 15.9531 12.1147 15.9531C12.1447 15.9531 12.1747 15.9331 12.1847 15.9031C12.1947 15.8731 12.1847 15.8431 12.1647 15.8231C11.9747 15.6331 11.6247 15.2831 11.5347 15.1931C11.5247 15.1831 11.5047 15.1731 11.4847 15.1731V15.1831Z" fill="#fff"/>
<path fill-rule="evenodd" clip-rule="evenodd" d="M8.50353 15.1935C8.55353 15.1435 8.68352 15.0135 8.73352 14.9635C8.74352 14.9535 8.75353 14.9335 8.75353 14.9135V14.4535C8.75353 14.4535 8.75353 14.4135 8.77353 14.4035L8.82352 14.3535C8.82352 14.3535 8.85352 14.2735 8.82352 14.2435C8.79352 14.2135 8.76352 14.1835 8.73352 14.1535C8.72352 14.1435 8.70353 14.1335 8.68353 14.1335C8.66353 14.1335 8.64353 14.1335 8.63353 14.1535C8.51353 14.2735 8.22353 14.5635 8.14353 14.6435C8.13353 14.6535 8.11353 14.6635 8.09353 14.6635H7.93353C7.93353 14.6635 7.89353 14.6635 7.88353 14.6835C7.87353 14.6935 7.86353 14.7135 7.86353 14.7335V14.8935C7.86353 14.8935 7.86353 14.9335 7.88353 14.9435C7.93353 14.9935 8.06353 15.1235 8.12353 15.1835C8.13353 15.1935 8.15353 15.2035 8.17353 15.2035H8.45353C8.45353 15.2035 8.49353 15.2035 8.50353 15.1835V15.1935Z" fill="#fff"/>
<path fill-rule="evenodd" clip-rule="evenodd" d="M9.10408 13.3342C9.10408 13.3342 9.15408 13.2942 9.15408 13.2642V13.2342C9.15408 13.2342 9.15408 13.1942 9.17408 13.1842C9.18408 13.1742 9.20408 13.1542 9.22408 13.1342C9.24408 13.1142 9.24408 13.1042 9.24408 13.0842V12.9642C9.24408 12.9642 9.21408 12.8842 9.16408 12.8842H9.07408C9.07408 12.8842 8.99408 12.9142 8.99408 12.9642V13.2742C8.99408 13.2742 8.99408 13.3142 9.01408 13.3242C9.03408 13.3442 9.06408 13.3542 9.09408 13.3442L9.10408 13.3342Z" fill="#fff"/>
<path fill-rule="evenodd" clip-rule="evenodd" d="M7.47296 15.1135C7.35296 14.9935 6.81296 14.4435 6.69296 14.3335C6.68296 14.3235 6.66296 14.3135 6.64296 14.3135H6.52296C6.52296 14.3135 6.46296 14.3335 6.45296 14.3635C6.44296 14.3935 6.45296 14.4235 6.47296 14.4435L6.95296 14.9235C6.95296 14.9235 6.97296 14.9535 6.97296 14.9735V15.0935C6.97296 15.0935 6.97296 15.1335 6.99296 15.1435L7.26296 15.4135C7.26296 15.4135 7.29296 15.4335 7.31296 15.4335H7.42296C7.42296 15.4335 7.46296 15.4335 7.47296 15.4135C7.48296 15.3935 7.49296 15.3835 7.49296 15.3635C7.49296 15.3035 7.49296 15.2135 7.49296 15.1735C7.49296 15.1535 7.49296 15.1335 7.47296 15.1235V15.1135Z" fill="#fff"/>
<path fill-rule="evenodd" clip-rule="evenodd" d="M10.1746 11.3153L10.3746 11.1153C10.3746 11.1153 10.4046 11.0953 10.4246 11.0953H10.6546C10.6546 11.0953 10.6946 11.0953 10.7046 11.0753L10.8346 10.9453C10.8346 10.9453 10.8646 10.9253 10.8846 10.9253H10.9746C10.9746 10.9253 11.0146 10.9253 11.0246 10.9053C11.0546 10.8753 11.1246 10.8053 11.1546 10.7753C11.1646 10.7653 11.1746 10.7453 11.1746 10.7253V10.5553C11.1746 10.5553 11.1746 10.5153 11.1946 10.5053C11.2146 10.4853 11.2546 10.4453 11.2846 10.4153C11.2946 10.4053 11.3046 10.3853 11.3046 10.3653V10.3053C11.3046 10.3053 11.3046 10.2653 11.2846 10.2553C11.2746 10.2453 11.2446 10.2153 11.2246 10.1953C11.2046 10.1753 11.1746 10.1653 11.1446 10.1753C11.1146 10.1853 11.0946 10.2153 11.0946 10.2453V10.3853C11.0946 10.3853 11.0946 10.4253 11.0746 10.4353C11.0046 10.5053 10.7746 10.7353 10.6946 10.8153C10.6846 10.8253 10.6646 10.8353 10.6446 10.8353H10.3746C10.3746 10.8353 10.3346 10.8353 10.3246 10.8553C10.2646 10.9153 10.1046 11.0753 10.0446 11.1353C10.0346 11.1453 10.0246 11.1653 10.0246 11.1853V11.2653C10.0246 11.2653 10.0446 11.3253 10.0746 11.3353C10.1046 11.3453 10.1346 11.3353 10.1546 11.3153H10.1746Z" fill="#fff"/>
<path fill-rule="evenodd" clip-rule="evenodd" d="M11.3851 10.0056C11.3851 10.0056 11.4851 9.90557 11.5451 9.84557C11.5551 9.83557 11.5651 9.81557 11.5651 9.79557C11.5651 9.77557 11.5651 9.75557 11.5451 9.74557C11.5051 9.70557 11.4451 9.64557 11.3851 9.58557C11.3651 9.56557 11.3351 9.55557 11.3051 9.56557C11.2751 9.57557 11.2551 9.60557 11.2551 9.63557V9.84557C11.2551 9.84557 11.2551 9.88557 11.2751 9.89557L11.3851 10.0056Z" fill="#fff"/>
</svg>
