<svg width="78" height="78" viewBox="0 0 78 78" fill="none" xmlns="http://www.w3.org/2000/svg">
<circle cx="39" cy="39" r="39" fill="#F7F8FB"/>
<mask id="mask0_1759_925" style="mask-type:alpha" maskUnits="userSpaceOnUse" x="27" y="27" width="24" height="24">
<rect x="27" y="27" width="24" height="24" fill="#D9D9D9"/>
</mask>
<g mask="url(#mask0_1759_925)">
<path d="M39 48C38.45 48 37.9792 47.8042 37.5875 47.4125C37.1958 47.0208 37 46.55 37 46C37 45.45 37.1958 44.9792 37.5875 44.5875C37.9792 44.1958 38.45 44 39 44C39.55 44 40.0208 44.1958 40.4125 44.5875C40.8042 44.9792 41 45.45 41 46C41 46.55 40.8042 47.0208 40.4125 47.4125C40.0208 47.8042 39.55 48 39 48ZM39 42C38.45 42 37.9792 41.8042 37.5875 41.4125C37.1958 41.0208 37 40.55 37 40V32C37 31.45 37.1958 30.9792 37.5875 30.5875C37.9792 30.1958 38.45 30 39 30C39.55 30 40.0208 30.1958 40.4125 30.5875C40.8042 30.9792 41 31.45 41 32V40C41 40.55 40.8042 41.0208 40.4125 41.4125C40.0208 41.8042 39.55 42 39 42Z" fill="#1C1B1F"/>
</g>
</svg>
