<svg width="20" height="20" viewBox="0 0 20 20" fill="none" xmlns="http://www.w3.org/2000/svg">
<mask id="mask0_901_4578" style="mask-type:alpha" maskUnits="userSpaceOnUse" x="0" y="0" width="20" height="20">
<rect width="20" height="20" fill="#D9D9D9"/>
</mask>
<g mask="url(#mask0_901_4578)">
<path d="M2.91663 17.9167V11.843H3.74996V8.33337C3.74996 7.47018 3.91288 6.659 4.23871 5.89983C4.56454 5.1408 5.01065 4.47789 5.57704 3.91108C6.14329 3.34414 6.80718 2.89782 7.56871 2.57212C8.33038 2.24629 9.14079 2.08337 9.99996 2.08337C10.8632 2.08337 11.6743 2.24629 12.4335 2.57212C13.1925 2.89796 13.8554 3.34428 14.4223 3.91108C14.9891 4.47789 15.4354 5.1408 15.7612 5.89983C16.087 6.659 16.25 7.47018 16.25 8.33337V11.843H17.0833V17.9167H2.91663ZM4.16663 16.6667H6.04163V13.093H4.16663V16.6667ZM7.29163 16.6667H9.37496V13.093H7.29163V16.6667ZM4.99996 11.843H9.37496V3.37983C8.18593 3.51011 7.15947 4.03705 6.29558 4.96067C5.43183 5.88428 4.99996 7.00851 4.99996 8.33337V11.843ZM10.625 11.843H15V8.33337C15 7.00851 14.5681 5.88428 13.7043 4.96067C12.8404 4.03705 11.814 3.51011 10.625 3.37983V11.843ZM10.625 16.6667H12.7083V13.093H10.625V16.6667ZM13.9583 16.6667H15.8333V13.093H13.9583V16.6667Z" fill="#49577C"/>
</g>
</svg>
