<svg width="24" height="24" viewBox="0 0 24 24" fill="none" xmlns="http://www.w3.org/2000/svg">
<mask id="mask0_1759_1079" style="mask-type:alpha" maskUnits="userSpaceOnUse" x="0" y="0" width="24" height="24">
<rect width="24" height="24" fill="#D9D9D9"/>
</mask>
<g mask="url(#mask0_1759_1079)">
<path d="M7.82499 12.0001L11.7 15.9001C11.8833 16.0834 11.9792 16.3126 11.9875 16.5876C11.9958 16.8626 11.9 17.1001 11.7 17.3001C11.5167 17.4834 11.2833 17.5751 11 17.5751C10.7167 17.5751 10.4833 17.4834 10.3 17.3001L5.69999 12.7001C5.59999 12.6001 5.52915 12.4918 5.48749 12.3751C5.44582 12.2584 5.42499 12.1334 5.42499 12.0001C5.42499 11.8668 5.44582 11.7418 5.48749 11.6251C5.52915 11.5084 5.59999 11.4001 5.69999 11.3001L10.3 6.70011C10.4833 6.51678 10.7125 6.42094 10.9875 6.41261C11.2625 6.40428 11.5 6.50011 11.7 6.70011C11.8833 6.88344 11.975 7.11678 11.975 7.40011C11.975 7.68344 11.8833 7.91678 11.7 8.10011L7.82499 12.0001ZM14.425 12.0001L18.3 15.9001C18.4833 16.0834 18.5792 16.3126 18.5875 16.5876C18.5958 16.8626 18.5 17.1001 18.3 17.3001C18.1167 17.4834 17.8833 17.5751 17.6 17.5751C17.3167 17.5751 17.0833 17.4834 16.9 17.3001L12.3 12.7001C12.2 12.6001 12.1292 12.4918 12.0875 12.3751C12.0458 12.2584 12.025 12.1334 12.025 12.0001C12.025 11.8668 12.0458 11.7418 12.0875 11.6251C12.1292 11.5084 12.2 11.4001 12.3 11.3001L16.9 6.70011C17.0833 6.51678 17.3125 6.42094 17.5875 6.41261C17.8625 6.40428 18.1 6.50011 18.3 6.70011C18.4833 6.88344 18.575 7.11678 18.575 7.40011C18.575 7.68344 18.4833 7.91678 18.3 8.10011L14.425 12.0001Z" fill="#27355A"/>
</g>
</svg>
