<svg width="20" height="20" viewBox="0 0 20 20" fill="none" xmlns="http://www.w3.org/2000/svg">
<mask id="mask0_634_55" style="mask-type:alpha" maskUnits="userSpaceOnUse" x="0" y="0" width="20" height="20">
<rect width="20" height="20" fill="#D9D9D9"/>
</mask>
<g mask="url(#mask0_634_55)">
<path d="M9.99999 10.5625L8.02082 8.58332C7.86805 8.43055 7.67707 8.35416 7.44791 8.35416C7.21874 8.35416 7.02082 8.43055 6.85416 8.58332C6.68749 8.74999 6.60416 8.94791 6.60416 9.17707C6.60416 9.40624 6.68749 9.60416 6.85416 9.77082L9.41666 12.3333C9.58332 12.5 9.77777 12.5833 9.99999 12.5833C10.2222 12.5833 10.4167 12.5 10.5833 12.3333L13.1667 9.74999C13.3333 9.58332 13.4132 9.38888 13.4062 9.16666C13.3993 8.94443 13.3125 8.74999 13.1458 8.58332C12.9792 8.43055 12.7847 8.35068 12.5625 8.34374C12.3403 8.33679 12.1458 8.41666 11.9792 8.58332L9.99999 10.5625ZM9.99999 18.3333C8.84721 18.3333 7.76388 18.1146 6.74999 17.6771C5.7361 17.2396 4.85416 16.6458 4.10416 15.8958C3.35416 15.1458 2.76041 14.2639 2.32291 13.25C1.88541 12.2361 1.66666 11.1528 1.66666 9.99999C1.66666 8.84721 1.88541 7.76388 2.32291 6.74999C2.76041 5.7361 3.35416 4.85416 4.10416 4.10416C4.85416 3.35416 5.7361 2.76041 6.74999 2.32291C7.76388 1.88541 8.84721 1.66666 9.99999 1.66666C11.1528 1.66666 12.2361 1.88541 13.25 2.32291C14.2639 2.76041 15.1458 3.35416 15.8958 4.10416C16.6458 4.85416 17.2396 5.7361 17.6771 6.74999C18.1146 7.76388 18.3333 8.84721 18.3333 9.99999C18.3333 11.1528 18.1146 12.2361 17.6771 13.25C17.2396 14.2639 16.6458 15.1458 15.8958 15.8958C15.1458 16.6458 14.2639 17.2396 13.25 17.6771C12.2361 18.1146 11.1528 18.3333 9.99999 18.3333ZM9.99999 16.6667C11.8611 16.6667 13.4375 16.0208 14.7292 14.7292C16.0208 13.4375 16.6667 11.8611 16.6667 9.99999C16.6667 8.13888 16.0208 6.56249 14.7292 5.27082C13.4375 3.97916 11.8611 3.33332 9.99999 3.33332C8.13888 3.33332 6.56249 3.97916 5.27082 5.27082C3.97916 6.56249 3.33332 8.13888 3.33332 9.99999C3.33332 11.8611 3.97916 13.4375 5.27082 14.7292C6.56249 16.0208 8.13888 16.6667 9.99999 16.6667Z" fill="#2F3139"/>
</g>
</svg>
