<svg width="22" height="22" viewBox="0 0 22 22" fill="none" xmlns="http://www.w3.org/2000/svg">
<path d="M11 0C4.92 0 0 4.92 0 11C0 17.08 4.92 22 11 22C17.08 22 22 17.08 22 11C22 4.92 17.08 0 11 0ZM11 21C5.49 21 1 16.51 1 11C1 5.49 5.49 1 11 1C16.51 1 21 5.49 21 11C21 16.51 16.51 21 11 21Z" fill="#49577C"/>
<path d="M11.19 16.7801H11.74L11.82 16.3H11.11L11.19 16.7801Z" fill="#49577C"/>
<path d="M6.07001 18.06H6.48001L6.90001 17.59L6.56001 17.17L6.07001 18.06Z" fill="#49577C"/>
<path d="M7.34002 6.18002L6.96002 6.02002V6.43002L7.34002 6.68002V6.18002Z" fill="#49577C"/>
<path d="M15.73 9.40998L15.23 7.65998L12.56 3.22998L12.35 3.42998L12.27 4.01998L11.77 4.20998H9.28002L8.23002 5.38998H7.92002V6.06998H7.51002V6.54998L8.22002 7.83998V8.70998L8.59002 9.08998H8.16002L7.88002 8.80998L6.52002 9.15998V9.76998L7.43002 10.04L7.55002 11.78L7.98002 12.3V13.01H7.69002L7.24002 13.67V14.05L6.74002 14.99L7.03002 15.43V16.4L6.62002 16.71L7.17002 17.52V18.23H7.93002L9.15002 16.81H9.31002V17.35L9.63002 17.66L10.01 17.17L9.72002 16.74V16.51L10.15 16.21L10.36 16.71V17.01L10.84 16.58V16.27L10.62 16.06L11.72 15.51V16H12.46L12.72 16.26L13.33 15.25L14.46 15.56L15.54 14.42L16.07 12.16L15.54 11.9L15.73 9.40998Z" fill="#49577C"/>
<path d="M7.06999 10.26L6.79999 10.17L6.87999 10.68L7.06999 10.88V10.26Z" fill="#49577C"/>
<path d="M12.99 16.24L13.36 16.84L13.65 15.89H13.39L12.99 16.24Z" fill="#49577C"/>
</svg>
