<svg width="20" height="20" viewBox="0 0 20 20" fill="none" xmlns="http://www.w3.org/2000/svg">
<mask id="mask0_901_4590" style="mask-type:alpha" maskUnits="userSpaceOnUse" x="0" y="0" width="20" height="20">
<rect width="20" height="20" fill="#D9D9D9"/>
</mask>
<g mask="url(#mask0_901_4590)">
<path d="M10 17.9167C8.91462 17.9167 7.89032 17.7087 6.92712 17.2925C5.96393 16.8764 5.12393 16.3099 4.40712 15.593C3.69018 14.8762 3.12365 14.0362 2.70754 13.073C2.29143 12.1098 2.08337 11.0855 2.08337 10C2.08337 8.90601 2.29143 7.87955 2.70754 6.92067C3.12365 5.96178 3.69018 5.12393 4.40712 4.40712C5.12393 3.69018 5.96393 3.12365 6.92712 2.70754C7.89032 2.29143 8.91462 2.08337 10 2.08337C11.0941 2.08337 12.1205 2.29143 13.0794 2.70754C14.0383 3.12365 14.8762 3.69018 15.593 4.40712C16.3099 5.12393 16.8764 5.96178 17.2925 6.92067C17.7087 7.87955 17.9167 8.90601 17.9167 10C17.9167 11.0855 17.7087 12.1098 17.2925 13.073C16.8764 14.0362 16.3099 14.8762 15.593 15.593C14.8762 16.3099 14.0383 16.8764 13.0794 17.2925C12.1205 17.7087 11.0941 17.9167 10 17.9167ZM10 16.649C10.4253 16.085 10.7832 15.5161 11.0738 14.9423C11.3643 14.3686 11.601 13.7414 11.7838 13.0609H8.21629C8.40976 13.7628 8.64914 14.4007 8.93442 14.9744C9.21955 15.5482 9.57476 16.1064 10 16.649ZM8.38629 16.4198C8.06685 15.9615 7.77997 15.4405 7.52567 14.8567C7.27136 14.2728 7.07372 13.6742 6.93275 13.0609H4.10587C4.54601 13.9263 5.13629 14.6534 5.87671 15.2421C6.61712 15.8307 7.45365 16.2233 8.38629 16.4198ZM11.6138 16.4198C12.5464 16.2233 13.383 15.8307 14.1234 15.2421C14.8638 14.6534 15.4541 13.9263 15.8942 13.0609H13.0673C12.8996 13.6795 12.6885 14.2807 12.4342 14.8646C12.18 15.4485 11.9066 15.9669 11.6138 16.4198ZM3.58171 11.8109H6.67962C6.62726 11.5012 6.58928 11.1975 6.56567 10.8998C6.54219 10.6023 6.53046 10.3024 6.53046 10C6.53046 9.69768 6.54219 9.39775 6.56567 9.10025C6.58928 8.80261 6.62726 8.49893 6.67962 8.18921H3.58171C3.50157 8.47226 3.44018 8.76657 3.39754 9.07212C3.35476 9.37768 3.33337 9.68699 3.33337 10C3.33337 10.3131 3.35476 10.6224 3.39754 10.928C3.44018 11.2335 3.50157 11.5278 3.58171 11.8109ZM7.92942 11.8109H12.0707C12.1229 11.5012 12.1608 11.2002 12.1844 10.908C12.2079 10.6157 12.2196 10.3131 12.2196 10C12.2196 9.68699 12.2079 9.38435 12.1844 9.09212C12.1608 8.7999 12.1229 8.49893 12.0707 8.18921H7.92942C7.87719 8.49893 7.83928 8.7999 7.81567 9.09212C7.79219 9.38435 7.78046 9.68699 7.78046 10C7.78046 10.3131 7.79219 10.6157 7.81567 10.908C7.83928 11.2002 7.87719 11.5012 7.92942 11.8109ZM13.3205 11.8109H16.4184C16.4985 11.5278 16.5599 11.2335 16.6025 10.928C16.6453 10.6224 16.6667 10.3131 16.6667 10C16.6667 9.68699 16.6453 9.37768 16.6025 9.07212C16.5599 8.76657 16.4985 8.47226 16.4184 8.18921H13.3205C13.3728 8.49893 13.4108 8.80261 13.4344 9.10025C13.4579 9.39775 13.4696 9.69768 13.4696 10C13.4696 10.3024 13.4579 10.6023 13.4344 10.8998C13.4108 11.1975 13.3728 11.5012 13.3205 11.8109ZM13.0673 6.93921H15.8942C15.4488 6.0631 14.8625 5.33601 14.1355 4.75796C13.4084 4.18004 12.5678 3.78476 11.6138 3.57212C11.9332 4.05712 12.2174 4.58761 12.4663 5.16358C12.7153 5.73942 12.9157 6.33129 13.0673 6.93921ZM8.21629 6.93921H11.7838C11.5903 6.24254 11.347 5.60067 11.0538 5.01358C10.7605 4.4265 10.4092 3.87233 10 3.35108C9.59087 3.87233 9.23962 4.4265 8.94629 5.01358C8.6531 5.60067 8.40976 6.24254 8.21629 6.93921ZM4.10587 6.93921H6.93275C7.08442 6.33129 7.28476 5.73942 7.53379 5.16358C7.78268 4.58761 8.06685 4.05712 8.38629 3.57212C7.42685 3.78476 6.58497 4.18143 5.86067 4.76212C5.13622 5.34268 4.55129 6.06837 4.10587 6.93921Z" fill="#49577C"/>
</g>
</svg>
