<svg width="9" height="14" viewBox="0 0 9 14" fill="none" xmlns="http://www.w3.org/2000/svg">
<path d="M1.50111 13.4831C1.36252 13.4827 1.22546 13.4541 1.09826 13.3991C0.97105 13.3441 0.856348 13.2638 0.76111 13.1631C0.581989 12.9678 0.4877 12.7094 0.498949 12.4447C0.510199 12.1799 0.626069 11.9305 0.82111 11.7511L6.02111 6.98511L0.82111 2.21811C0.64147 2.03536 0.538842 1.79062 0.534405 1.5344C0.529969 1.27819 0.624063 1.03004 0.797268 0.841186C0.970473 0.652328 1.20957 0.53717 1.46521 0.519478C1.72086 0.501786 1.97354 0.58291 2.17111 0.746107L8.17111 6.25311C8.27591 6.34149 8.35984 6.45198 8.4169 6.57663C8.47395 6.70129 8.50271 6.83702 8.50111 6.97411C8.50035 7.11279 8.47162 7.2499 8.41664 7.37722C8.36165 7.50455 8.28155 7.61947 8.18111 7.71511L2.18111 13.2221C1.99275 13.3873 1.75162 13.4799 1.50111 13.4831Z" fill="#313EC0"/>
</svg>
