<svg width="22" height="22" viewBox="0 0 22 22" fill="none" xmlns="http://www.w3.org/2000/svg">
<path d="M21.0195 15.5371C21.0496 15.477 21.0796 15.417 21.1096 15.347C21.6798 14.0164 22 12.5457 22 11.005C22.01 4.92224 17.0878 0 11.005 0C4.92223 0 0 4.92224 0 11.005C0 12.5457 0.320145 14.0164 0.890404 15.347C0.940427 15.477 1.01046 15.5971 1.07049 15.7171C1.16053 15.9072 1.24056 16.0873 1.34061 16.2674C1.44065 16.4375 1.5407 16.6075 1.65075 16.7776C1.73079 16.9077 1.80082 17.0377 1.88085 17.1578C2.27103 17.7381 2.72124 18.2783 3.21146 18.7785C5.20236 20.7694 7.96361 22 10.995 22C15.1369 22 18.7385 19.709 20.6194 16.3274C20.6194 16.3074 20.6394 16.2974 20.6494 16.2774C20.7794 16.0373 20.8995 15.7772 21.0195 15.5271V15.5371ZM11.005 1.00045C16.0773 1.00045 20.2692 4.79218 20.9095 9.69441C20.3192 9.97453 19.929 10.4047 19.5389 10.8449C19.0386 11.4152 18.5484 11.9754 17.3779 11.9754C16.8276 11.9754 16.4375 11.8354 16.1873 11.6153C16.0373 11.4852 15.9472 11.3251 15.8972 11.1651C15.8472 11.005 15.8472 10.8349 15.8972 10.6749C15.9572 10.4748 16.0973 10.2847 16.3074 10.1646C16.5075 10.0446 16.5775 9.79445 16.4575 9.59436C16.3774 9.4543 16.2374 9.38427 16.0973 9.38427C14.4466 9.38427 13.7963 10.1246 13.166 10.8449C12.6657 11.4152 12.1755 11.9754 10.995 11.9754C10.4447 11.9754 10.0546 11.8354 9.80445 11.6153C9.65438 11.4852 9.56434 11.3251 9.51432 11.1651C9.4643 11.005 9.4643 10.8349 9.51432 10.6749C9.57435 10.4748 9.71441 10.2847 9.9145 10.1646C10.1146 10.0446 10.1846 9.79445 10.0746 9.59436C9.99454 9.4543 9.85447 9.38427 9.7044 9.38427C8.06366 9.38427 7.41336 10.1246 6.77307 10.8449C6.27285 11.4152 5.78262 11.9754 4.61209 11.9754C4.06184 11.9754 3.66166 11.8354 3.42155 11.6153C3.27148 11.4852 3.18144 11.3251 3.13142 11.1651C3.0814 11.005 3.0814 10.8349 3.13142 10.6749C3.19145 10.4748 3.33151 10.2847 3.5316 10.1646C3.73169 10.0446 3.80173 9.79445 3.68167 9.59436C3.60163 9.4543 3.47158 9.38427 3.32151 9.38427C2.19099 9.38427 1.5407 9.73443 1.03047 10.1846C1.46066 5.0523 5.77262 1.00045 11.005 1.00045Z" fill="#fff"/>
</svg>
