<svg width="22" height="22" viewBox="0 0 22 22" fill="none" xmlns="http://www.w3.org/2000/svg">
<path d="M6.19002 20.4029C6.27002 20.5027 6.29002 20.5726 6.27002 20.6325C6.26002 20.6624 6.22002 20.6923 6.15002 20.6923C6.15002 20.6923 6.13002 20.6923 6.12002 20.6923C6.00002 20.6824 5.81002 20.6025 5.57002 20.4727C5.14002 20.2232 4.90002 19.9936 4.91002 19.8638C4.91002 19.8339 4.93002 19.764 5.05002 19.764C5.31002 19.764 5.93002 20.0835 6.20002 20.4129L6.19002 20.4029ZM3.16002 18.2468C3.16002 18.2468 3.12002 18.2368 3.10002 18.2368C3.06002 18.2368 3.04002 18.2568 3.03002 18.2767C3.00002 18.3167 3.03002 18.3766 3.04002 18.4165C3.10002 18.5462 3.33002 18.8357 3.76002 19.215C3.92002 19.3548 4.03002 19.4346 4.10002 19.4346C4.11002 19.4346 4.12002 19.4346 4.13002 19.4346C4.16002 19.4247 4.17002 19.3947 4.17002 19.3648C4.17002 19.1851 3.48002 18.3666 3.15002 18.2568L3.16002 18.2468ZM1.69002 16.5499L1.66002 16.5299L1.63002 16.5499L1.60002 16.5698V16.6098C1.60002 16.6098 1.63002 16.6697 1.71002 16.7994C1.85002 17.019 2.04002 17.2885 2.19002 17.5081L2.23002 17.568L2.54002 17.9673L2.62002 17.9074C2.62002 17.9074 1.86002 16.6697 1.68002 16.5499H1.69002ZM12.88 21.7504C12.88 21.7504 12.75 21.7604 11.53 21.8802C11.46 21.8802 11.4 21.8902 11.35 21.9001H11.3V22C11.32 22 11.33 22 11.35 22L11.83 21.98C12.14 21.9501 12.56 21.9001 12.85 21.8602C12.89 21.8602 12.9 21.8602 12.92 21.8403L13.01 21.7704L12.9 21.7504C12.9 21.7504 12.9 21.7504 12.89 21.7504H12.88ZM9.74002 21.6207C9.58002 21.6207 9.45002 21.6207 9.33002 21.6506C9.26002 21.6606 9.22002 21.6706 9.20002 21.6905C9.16002 21.7205 9.16002 21.7504 9.16002 21.7604C9.17002 21.8203 9.25002 21.8502 9.54002 21.8902C9.86002 21.9401 10.16 21.96 10.39 21.96C10.72 21.96 10.77 21.9101 10.78 21.8902C10.8 21.8702 10.8 21.8403 10.78 21.8103C10.71 21.6805 10.06 21.6207 9.74002 21.6207ZM7.15002 20.8521C7.06002 20.8521 7.00002 20.862 6.95002 20.892C6.91002 20.9119 6.89002 20.9519 6.90002 20.9918C6.90002 21.0317 6.91002 21.1415 7.44002 21.3412C7.76002 21.451 8.03002 21.5109 8.21002 21.5109C8.34002 21.5109 8.41002 21.4809 8.43002 21.421C8.43002 21.3911 8.43002 21.3511 8.40002 21.3012C8.24002 21.0916 7.51002 20.8521 7.15002 20.8521ZM5.45002 18.3965C5.26002 18.3965 5.13002 18.4664 5.06002 18.5962C4.97002 18.7958 5.06002 19.225 5.70002 19.6043C5.70002 19.6043 5.72002 19.6143 5.73002 19.6243C5.75002 19.6243 5.76002 19.6442 5.78002 19.6542C5.97002 19.754 6.16002 19.804 6.32002 19.804C6.48002 19.804 6.62002 19.7441 6.70002 19.6442C6.75002 19.5744 6.79002 19.4646 6.73002 19.2849C6.57002 18.7958 5.90002 18.3965 5.45002 18.3965ZM3.34002 17.9673C3.42002 18.0372 3.58002 18.1669 3.75002 18.1969C3.77002 18.1969 3.80002 18.1969 3.82002 18.1969C3.93002 18.1969 4.01002 18.147 4.06002 18.0571C4.16002 17.8575 4.06002 17.4882 3.82002 17.1388C3.57002 16.7894 3.24002 16.5499 3.01002 16.5499C2.87002 16.5499 2.77002 16.6397 2.74002 16.7894C2.70002 17.059 2.89002 17.558 3.35002 17.9673H3.34002ZM1.88002 16.3303C1.88002 16.3303 1.88002 16.3303 1.89002 16.3303C1.92002 16.3303 1.98002 16.3103 2.01002 16.2205C2.12002 15.931 1.85002 15.0227 1.47002 14.6234C1.38002 14.5335 1.30002 14.4836 1.23002 14.4836C1.19002 14.4836 1.15002 14.4936 1.13002 14.5236C1.08002 14.5735 1.06002 14.6533 1.06002 14.7731C1.06002 15.0726 1.24002 15.6316 1.56002 16.0807C1.66002 16.2105 1.76002 16.3203 1.87002 16.3203L1.88002 16.3303ZM0.180017 12.3974C0.180017 12.3974 0.130017 12.4573 0.160017 12.7368C0.200017 13.1161 0.340017 13.715 0.490017 14.1343C0.550017 14.284 0.570017 14.3439 0.620017 14.3639H0.640017H0.660017C0.690017 14.3439 0.700017 14.304 0.700017 14.284C0.740017 13.9945 0.450017 12.5771 0.280017 12.4074C0.250017 12.3675 0.200017 12.3675 0.170017 12.4074L0.180017 12.3974ZM17.02 20.1433H16.98C16.83 20.1433 16.08 20.5526 15.62 20.8221C15.27 21.0317 15.26 21.0517 15.25 21.0816L15.21 21.1615H15.3C15.3 21.1615 15.35 21.1415 15.47 21.0916C15.95 20.872 16.53 20.5526 16.7 20.4628C17.03 20.2631 17.04 20.2332 17.04 20.1833V20.1433H17.02ZM14.63 20.7323C14.3 20.7323 13.7 20.892 13.29 21.1615C13.18 21.2314 13.13 21.2813 13.1 21.3112C13.03 21.3911 13.03 21.451 13.05 21.4909C13.08 21.5508 13.17 21.5807 13.32 21.5807C13.35 21.5807 13.38 21.5807 13.42 21.5807C14.07 21.5109 14.85 21.1715 14.91 20.9319C14.93 20.872 14.91 20.8421 14.89 20.8121C14.85 20.7622 14.76 20.7323 14.63 20.7323ZM12.33 21.0018C12.33 20.9319 12.31 20.872 12.26 20.8121C12.14 20.6824 11.86 20.6025 11.51 20.6025C11.12 20.6025 10.77 20.7023 10.56 20.862C10.44 20.9519 10.39 21.0717 10.41 21.1715C10.45 21.3112 10.62 21.411 10.92 21.4709C11.02 21.4809 11.12 21.4909 11.21 21.4909C11.8 21.4909 12.31 21.2613 12.32 21.0018H12.33ZM9.44002 20.4428C9.42002 20.0435 8.73002 19.7241 8.18002 19.7241C7.92002 19.7241 7.72002 19.794 7.61002 19.9237C7.54002 20.0036 7.52002 20.1034 7.54002 20.2132C7.59002 20.4228 7.82002 20.6125 8.18002 20.7522C8.38002 20.8221 8.59002 20.862 8.78002 20.862C9.03002 20.862 9.24002 20.7922 9.35002 20.6724C9.41002 20.6025 9.44002 20.5227 9.44002 20.4428ZM5.82002 16.5698C5.65002 16.8493 5.65002 17.4682 6.36002 17.9074C6.57002 18.0172 6.77002 18.0771 6.97002 18.0771C7.22002 18.0771 7.43002 17.9873 7.56002 17.8176C7.69002 17.6479 7.73002 17.4183 7.67002 17.1787C7.52002 16.5898 6.94002 16.2404 6.47002 16.2404C6.19002 16.2404 5.96002 16.3602 5.82002 16.5798V16.5698ZM3.76002 14.2441C3.54002 14.2441 3.37002 14.3539 3.26002 14.5635C3.12002 14.853 3.10002 15.4918 3.66002 16.0208C3.66002 16.0208 3.76002 16.1007 3.81002 16.1306C3.94002 16.2105 4.07002 16.2504 4.19002 16.2504C4.36002 16.2504 4.52002 16.1706 4.63002 16.0308C4.79002 15.8112 4.83002 15.4918 4.72002 15.1524C4.57002 14.6434 4.15002 14.2541 3.75002 14.2541L3.76002 14.2441ZM1.81002 12.0181C1.64002 12.0181 1.50002 12.1379 1.42002 12.3475C1.29002 12.657 1.27002 13.3457 1.64002 13.8847C1.69002 13.9546 1.79002 14.0644 1.92002 14.1143C1.97002 14.1343 2.01002 14.1443 2.06002 14.1443C2.18002 14.1443 2.28002 14.0844 2.37002 13.9646C2.58002 13.6651 2.60002 13.0962 2.42002 12.617C2.28002 12.2577 2.06002 12.0281 1.83002 12.0281L1.81002 12.0181ZM0.720017 9.74227C0.600017 9.74227 0.500017 9.86205 0.420017 10.0817C0.310017 10.4011 0.230017 11.0998 0.400017 11.6388C0.430017 11.7287 0.490017 11.8584 0.600017 11.8983C0.620017 11.8983 0.630017 11.8983 0.650017 11.8983C0.720017 11.8983 0.780017 11.8584 0.840017 11.7686C1.06002 11.4192 1.16002 10.3911 0.950017 9.93192C0.880017 9.77221 0.790017 9.73229 0.730017 9.73229L0.720017 9.74227ZM0.190017 9.71232C0.300017 9.59254 0.480017 8.79399 0.510017 8.63429C0.560017 8.38474 0.610017 8.14518 0.630017 7.9655C0.670017 7.66605 0.650017 7.60616 0.630017 7.58619L0.610017 7.56623H0.580017C0.580017 7.56623 0.500017 7.59618 0.390017 7.95552C0.370017 8.02539 0.350017 8.09527 0.330017 8.1851C0.280017 8.4047 0.220017 8.68419 0.170017 8.92376C0.150017 9.0136 0.140017 9.09345 0.120017 9.1733C0.100017 9.32303 0.0900171 9.39291 0.0800171 9.47276C0.0800171 9.60252 0.0800171 9.64245 0.0800171 9.68238V9.71232H0.110017L0.140017 9.73229L0.170017 9.70234L0.190017 9.71232ZM19.34 17.9873C19.03 18.4065 19.03 18.4265 19.03 18.4564L19 18.6061L19.11 18.4963L19.21 18.3865C19.66 17.8675 19.69 17.8375 20.33 16.8793C20.33 16.8793 20.36 16.8294 20.36 16.7994L20.38 16.6697L20.28 16.7495C20.15 16.8593 19.42 17.8675 19.33 17.9873H19.34ZM18.68 18.0671C18.4 18.0671 17.81 18.5263 17.43 19.0354C17.34 19.1551 17.27 19.2749 17.23 19.3648C17.19 19.4646 17.19 19.5444 17.22 19.5943C17.24 19.6243 17.27 19.6542 17.34 19.6542C17.39 19.6542 17.46 19.6343 17.55 19.6043C18.17 19.3049 18.91 18.4864 18.83 18.1869C18.81 18.117 18.76 18.0771 18.68 18.0771V18.0671ZM16.58 18.9954C16.56 18.8058 16.41 18.696 16.16 18.696C15.79 18.696 15.2 18.9655 14.86 19.4147C14.74 19.5744 14.63 19.8139 14.72 19.9836C14.78 20.1034 14.92 20.1633 15.13 20.1633C15.15 20.1633 15.16 20.1633 15.18 20.1633C15.94 20.0735 16.62 19.4247 16.57 19.0054L16.58 18.9954ZM12.34 20.0335C12.4 20.0335 12.46 20.0435 12.52 20.0435C12.96 20.0435 13.38 19.8638 13.62 19.5644C13.76 19.3947 13.81 19.205 13.77 19.0354C13.7 18.7359 13.4 18.5462 12.98 18.5462C12.53 18.5462 12.09 18.7559 11.86 19.0753C11.72 19.2649 11.69 19.4646 11.75 19.6343C11.8 19.774 11.95 19.9437 12.33 20.0236L12.34 20.0335ZM9.20002 19.215C9.37002 19.2749 9.53002 19.2949 9.69002 19.2949C10.01 19.2949 10.3 19.1751 10.47 18.9755C10.6 18.8257 10.66 18.6361 10.63 18.4464C10.55 17.9274 9.97002 17.6479 9.46002 17.6479C9.09002 17.6479 8.78002 17.7876 8.62002 18.0372C8.51002 18.2069 8.48002 18.3965 8.54002 18.5862C8.62002 18.8457 8.85002 19.0653 9.20002 19.215ZM8.81002 15.1924C9.00002 14.9528 9.07002 14.6334 8.99002 14.3139C8.87002 13.8149 8.43002 13.4555 7.93002 13.4555C7.61002 13.4555 7.32002 13.6052 7.14002 13.8747C6.99002 14.0943 6.94002 14.3938 6.99002 14.6733C7.05002 14.9728 7.24002 15.2223 7.52002 15.402C7.70002 15.4918 7.88002 15.5417 8.05002 15.5417C8.34002 15.5417 8.61002 15.412 8.79002 15.1824L8.81002 15.1924ZM5.92002 13.3856C6.13002 13.1361 6.23002 12.7867 6.17002 12.4274C6.09002 11.9083 5.72002 11.539 5.28002 11.539C5.02002 11.539 4.79002 11.6688 4.61002 11.8983C4.35002 12.2477 4.22002 12.9664 4.76002 13.4755C4.76002 13.4755 4.78002 13.4954 4.79002 13.5054C4.81002 13.5154 4.82002 13.5354 4.84002 13.5453C4.98002 13.6452 5.14002 13.6951 5.30002 13.6951C5.53002 13.6951 5.75002 13.5853 5.92002 13.3956V13.3856ZM2.80002 11.3993C2.91002 11.4891 3.02002 11.529 3.15002 11.529C3.33002 11.529 3.51002 11.4392 3.67002 11.2595C3.92002 10.98 4.05002 10.5508 4.01002 10.1415C3.96002 9.68238 3.70002 9.37294 3.36002 9.37294C3.16002 9.37294 2.96002 9.48274 2.80002 9.68238C2.53002 10.0018 2.33002 10.7105 2.70002 11.2695C2.74002 11.3194 2.78002 11.3693 2.82002 11.3993H2.80002ZM2.65002 7.68601C2.63002 7.36659 2.48002 7.17694 2.27002 7.17694C2.12002 7.17694 1.95002 7.27676 1.80002 7.44645C1.54002 7.7459 1.25002 8.42467 1.42002 8.98365C1.44002 9.04354 1.47002 9.11341 1.52002 9.16332C1.58002 9.22322 1.66002 9.25316 1.74002 9.25316C1.87002 9.25316 2.02002 9.17331 2.16002 9.02358C2.43002 8.7341 2.69002 8.1851 2.65002 7.68601ZM1.24002 7.03719C1.33002 7.03719 1.44002 6.95734 1.58002 6.80761C1.91002 6.43828 2.36002 5.61977 2.31002 5.24046C2.29002 5.10072 2.20002 5.08075 2.16002 5.08075C2.04002 5.08075 1.89002 5.2205 1.78002 5.34028C1.54002 5.61977 1.17002 6.24863 1.10002 6.7577C1.10002 6.82757 1.09002 6.94736 1.16002 7.00725C1.18002 7.02721 1.21002 7.03719 1.25002 7.03719H1.24002ZM1.82002 5.04083C1.97002 4.86115 3.08002 3.48366 3.10002 3.40381L3.17002 3.22413L3.02002 3.34391C3.02002 3.34391 3.02002 3.34391 3.01002 3.3539L2.74002 3.64337C2.43002 4.02268 2.02002 4.5617 1.72002 4.98093L1.53002 5.25044L1.79002 5.05081C1.79002 5.05081 1.79002 5.05081 1.79002 5.04083H1.82002ZM21.76 12.6969C21.71 13.0063 21.64 13.3557 21.58 13.6252C21.53 13.8348 21.51 13.9446 21.49 14.0045L21.59 14.0345C21.73 13.5054 21.76 13.3956 21.86 12.7169C21.89 12.5172 21.92 12.3475 21.93 12.2377H21.83C21.8 12.4074 21.78 12.5671 21.76 12.6969ZM21.25 13.9446C21.04 13.9446 20.69 14.6633 20.52 15.3121C20.43 15.6316 20.43 15.7913 20.44 15.8412C20.44 15.9809 20.51 16.0109 20.55 16.0109C20.61 16.0109 20.68 15.951 20.73 15.8811C21.11 15.382 21.47 14.284 21.35 14.0145C21.32 13.9546 21.27 13.9446 21.25 13.9446ZM18.83 17.1787C18.88 17.1787 18.94 17.1688 19.01 17.1388C19.62 16.8294 20.06 15.8212 19.88 15.402C19.81 15.2423 19.7 15.2123 19.62 15.2123C19.29 15.2123 18.82 15.7414 18.62 16.3403C18.54 16.5898 18.5 16.9092 18.62 17.0689C18.67 17.1388 18.74 17.1688 18.83 17.1688V17.1787ZM16.56 17.7178H16.58C16.96 17.6579 17.33 17.3784 17.55 16.9891C17.72 16.6697 17.77 16.3502 17.66 16.1107C17.57 15.911 17.4 15.8112 17.19 15.8112C16.83 15.8112 16.31 16.1306 16.08 16.7096C15.98 16.9492 15.94 17.2786 16.09 17.5081C16.18 17.6479 16.34 17.7178 16.55 17.7178H16.56ZM14.76 17.1089C14.96 16.8394 15.04 16.51 14.96 16.2305C14.86 15.8811 14.57 15.6815 14.19 15.6815C13.74 15.6815 13.32 15.961 13.11 16.3902C13.01 16.5998 12.95 16.9192 13.08 17.1887C13.18 17.3983 13.38 17.5381 13.66 17.598C13.66 17.598 13.74 17.598 13.78 17.598C14.16 17.598 14.52 17.4083 14.76 17.0989V17.1089ZM11.67 16.4201C11.86 16.1806 11.94 15.8611 11.88 15.5916C11.76 15.0626 11.28 14.823 10.85 14.823C10.45 14.823 10.1 15.0227 9.90002 15.3521C9.76002 15.5816 9.73002 15.8811 9.81002 16.1406C9.87002 16.3303 10.03 16.5898 10.43 16.7595C10.56 16.7994 10.7 16.8194 10.82 16.8194C11.15 16.8194 11.46 16.6697 11.66 16.4201H11.67ZM9.65002 10.5408C9.32002 10.5408 9.00002 10.7105 8.79002 11C8.60002 11.2595 8.52002 11.5789 8.57002 11.8684C8.62002 12.1279 8.77002 12.3575 9.02002 12.5072C9.17002 12.5871 9.32002 12.617 9.47002 12.617C9.75002 12.617 10.01 12.4873 10.21 12.2677C10.43 12.0081 10.54 11.6488 10.49 11.3094C10.42 10.8303 10.09 10.5308 9.66002 10.5308L9.65002 10.5408ZM6.47002 10.7405C6.62002 10.8503 6.79002 10.9101 6.96002 10.9101C7.20002 10.9101 7.45002 10.8003 7.65002 10.5907C7.89002 10.3412 8.03002 10.0018 8.03002 9.66242C8.03002 9.18329 7.74002 8.87385 7.30002 8.87385C7.03002 8.87385 6.75002 9.00361 6.54002 9.22321C6.36002 9.40289 6.18002 9.72231 6.18002 10.0817C6.18002 10.3312 6.28002 10.5508 6.46002 10.7305L6.47002 10.7405ZM4.55002 8.71414C4.68002 8.86387 4.85002 8.94372 5.03002 8.94372C5.52002 8.94372 6.09002 8.36478 6.17002 7.77585C6.20002 7.53628 6.16002 7.34663 6.04002 7.20688C5.93002 7.0871 5.77002 7.01723 5.59002 7.01723C5.37002 7.01723 5.14002 7.10707 4.93002 7.26677C4.57002 7.55625 4.22002 8.1851 4.55002 8.70416V8.71414ZM4.96002 5.24046C4.88002 5.14064 4.76002 5.09073 4.61002 5.09073C4.44002 5.09073 4.24002 5.16061 4.06002 5.27041C3.63002 5.5499 3.26002 6.11886 3.39002 6.58801C3.39002 6.58801 3.39002 6.60797 3.39002 6.61796C3.39002 6.62794 3.40002 6.6479 3.41002 6.65788C3.48002 6.78765 3.61002 6.85752 3.77002 6.85752C4.21002 6.85752 4.87002 6.32848 5.02002 5.70961C5.08002 5.46006 5.02002 5.32032 4.96002 5.24046ZM3.08002 4.55172C3.08002 4.55172 3.08002 4.66152 3.11002 4.72141C3.14002 4.7813 3.20002 4.84119 3.33002 4.84119C3.73002 4.84119 4.57002 4.14246 4.73002 3.67331C4.78002 3.51361 4.75002 3.42377 4.71002 3.36388C4.68002 3.31397 4.61002 3.26406 4.48002 3.26406C4.36002 3.26406 4.20002 3.31397 4.04002 3.40381C3.63002 3.62341 3.16002 4.1225 3.09002 4.55172H3.08002ZM3.80002 3.0245C4.09002 3.0245 5.35002 2.18602 5.42002 1.87658C5.43002 1.83666 5.42002 1.80671 5.40002 1.78675C5.38002 1.7568 5.35002 1.74682 5.30002 1.74682C5.20002 1.74682 5.04002 1.81669 4.93002 1.8666C4.57002 2.04628 4.04002 2.43557 3.76002 2.76497C3.71002 2.83484 3.66002 2.90471 3.69002 2.9646C3.70002 2.98457 3.73002 3.01451 3.79002 3.01451L3.80002 3.0245ZM5.26002 1.66697C5.36002 1.60708 5.46002 1.55717 5.54002 1.50726C6.07002 1.22777 6.83002 0.878401 6.86002 0.86842L6.84002 0.81851V0.778583L6.76002 0.808529C6.24002 1.02813 6.14002 1.06806 5.49002 1.4274C5.37002 1.48729 5.28002 1.54718 5.20002 1.58711L5.25002 1.67695L5.26002 1.66697ZM21.63 8.83392L21.73 8.81396C21.73 8.81396 21.72 8.76405 21.71 8.7341C21.64 8.42467 21.53 8.03538 21.44 7.7459L21.34 7.77585C21.43 8.09527 21.55 8.52449 21.62 8.83392H21.63ZM21.7 9.343C21.7 9.343 21.62 9.32303 21.59 9.35298C21.48 9.48274 21.54 10.2713 21.61 10.7904C21.65 11.0898 21.7 11.2895 21.75 11.3593C21.77 11.3893 21.79 11.4092 21.82 11.4092C21.9 11.4092 21.91 11.2994 21.93 11.1996C21.99 10.6007 21.87 9.46278 21.7 9.343ZM21.2 10.99C21.11 10.9201 21.01 10.9301 20.92 11.0199C20.75 11.2096 20.64 11.7486 20.67 12.2876C20.67 12.4174 20.73 13.0562 21 13.0562C21.06 13.0562 21.12 13.0263 21.19 12.9564C21.56 12.4374 21.51 11.2395 21.19 11L21.2 10.99ZM19.94 12.1978C19.85 12.088 19.75 12.0281 19.64 12.0281C19.32 12.0281 19.02 12.5671 18.98 13.196C18.97 13.4755 19.01 13.8448 19.19 14.0245C19.26 14.0943 19.35 14.1343 19.45 14.1343C19.5 14.1343 19.55 14.1343 19.6 14.1043C19.84 13.9746 20.03 13.6751 20.1 13.2958C20.19 12.8566 20.12 12.4274 19.93 12.1878L19.94 12.1978ZM18.07 14.0444C18.25 13.6252 18.23 13.1261 18.02 12.8067C17.87 12.5871 17.7 12.5372 17.58 12.5372C17.21 12.5372 16.84 12.9664 16.74 13.5254C16.67 13.8947 16.74 14.2341 16.91 14.4437C17.02 14.5735 17.18 14.6533 17.36 14.6533H17.38C17.68 14.6034 17.93 14.3838 18.08 14.0544L18.07 14.0444ZM15.57 14.0444C15.8 13.6651 15.82 13.186 15.63 12.8267C15.49 12.5671 15.28 12.4274 15.03 12.4274C14.64 12.4274 14.26 12.7568 14.1 13.2259C13.99 13.5553 14.01 13.8947 14.15 14.1443C14.26 14.3439 14.44 14.4737 14.68 14.5236C14.68 14.5236 14.74 14.5236 14.76 14.5236C15.09 14.5236 15.38 14.3439 15.57 14.0345V14.0444ZM11.69 13.755C11.79 13.7849 11.89 13.8049 11.99 13.8049C12.29 13.8049 12.58 13.6551 12.77 13.3956C13 13.0962 13.07 12.6969 12.97 12.3375C12.85 11.9283 12.55 11.6887 12.17 11.6887C11.79 11.6887 11.43 11.9283 11.23 12.2976C11.11 12.5172 11.03 12.8666 11.15 13.196C11.24 13.4455 11.42 13.6352 11.69 13.755ZM10.65 9.5626C10.76 9.62249 10.87 9.64245 10.98 9.64245C11.22 9.64245 11.45 9.52267 11.65 9.31305C11.91 9.03356 12.04 8.6243 12 8.25498C11.96 7.89563 11.77 7.68601 11.46 7.68601C11.17 7.68601 10.84 7.87567 10.61 8.17512C10.39 8.45461 10.28 8.794 10.33 9.07349C10.36 9.27312 10.47 9.4528 10.65 9.5626ZM8.38002 7.61614C8.38002 7.80579 8.43002 7.9655 8.56002 8.09527C8.68002 8.1851 8.82002 8.23501 8.97002 8.23501C9.55002 8.23501 10.12 7.54627 10.17 6.99727C10.19 6.81759 10.15 6.68783 10.06 6.58801C9.98002 6.49817 9.85002 6.44826 9.69002 6.44826C9.43002 6.44826 9.12002 6.57803 8.87002 6.77767C8.58002 7.00725 8.40002 7.33665 8.38002 7.61614ZM8.32002 5.04083C8.10002 5.04083 7.84002 5.1107 7.60002 5.24046C7.26002 5.43012 7.00002 5.70961 6.92002 5.9891C6.88002 6.14881 6.90002 6.29854 6.98002 6.4283C7.09002 6.55806 7.24002 6.61796 7.42002 6.61796C7.93002 6.61796 8.63002 6.07894 8.78002 5.56986C8.83002 5.38021 8.78002 5.27041 8.74002 5.20054C8.66002 5.09074 8.51002 5.04083 8.32002 5.04083ZM7.96002 4.03266C8.01002 3.9029 7.98002 3.81306 7.95002 3.75317C7.88002 3.64337 7.71002 3.58348 7.49002 3.58348C7.32002 3.58348 7.12002 3.62341 6.94002 3.6833C6.42002 3.86297 5.94002 4.29219 6.04002 4.69146C6.11002 4.86115 6.27002 4.94101 6.48002 4.94101C6.99002 4.94101 7.80002 4.4519 7.97002 4.03266H7.96002ZM5.79002 3.01451V3.0245C5.79002 3.0245 5.79002 3.03448 5.79002 3.04446C5.79002 3.05444 5.79002 3.06442 5.79002 3.0744C5.80002 3.17422 5.88002 3.29401 6.17002 3.29401C6.63002 3.29401 7.48002 2.9646 7.73002 2.62522C7.81002 2.50544 7.80002 2.42559 7.77002 2.37568C7.71002 2.26588 7.53002 2.196 7.28002 2.196C7.17002 2.196 7.05002 2.20599 6.93002 2.23593C6.43002 2.33575 5.87002 2.64519 5.80002 3.0245L5.79002 3.01451ZM7.80002 1.02813C7.75002 1.02813 7.69002 1.02813 7.63002 1.02813C7.19002 1.06806 6.59002 1.27767 6.36002 1.54718C6.36002 1.54718 6.31002 1.63702 6.31002 1.67695C6.32002 1.81669 6.55002 1.81669 6.63002 1.81669C7.09002 1.81669 8.04002 1.57713 8.24002 1.3176C8.29002 1.24773 8.28002 1.18784 8.26002 1.16787C8.21002 1.07804 8.05002 1.02813 7.81002 1.02813H7.80002ZM7.71002 0.788565C8.11002 0.788565 9.22002 0.618874 9.33002 0.479128C9.35002 0.449183 9.36002 0.419237 9.34002 0.389291C9.30002 0.309437 9.11002 0.289473 8.96002 0.289473C8.95002 0.289473 8.93002 0.289473 8.92002 0.289473C8.54002 0.289473 7.97002 0.419237 7.62002 0.568965C7.54002 0.608892 7.48002 0.648819 7.48002 0.698728C7.48002 0.778583 7.60002 0.788565 7.71002 0.788565ZM10.89 0.129764V0.0898365V0.0499092L10.87 0.0299455C10.85 0.0199637 10.81 0 10.66 0H10.65C10.65 0 10.6 0 10.58 0L10.12 0.0199637C9.88002 0.0399273 9.56002 0.0798547 9.31002 0.1098H9.21002V0.129764L9.09002 0.229582H9.24002C10.28 0.196309 10.83 0.163037 10.89 0.129764ZM12.58 0.239564H12.6C12.6 0.239564 12.62 0.239564 12.63 0.239564V0.139746C12.63 0.139746 12.61 0.139746 12.59 0.139746C12.55 0.139746 12.18 0.0798547 11.84 0.0499092V0.149728H11.88C12.1 0.179673 12.37 0.209619 12.58 0.239564ZM19.68 4.61161C19.76 4.72141 19.89 4.87113 20 5.03084C20.07 5.12068 20.12 5.19055 20.15 5.24046L20.18 5.28039L20.26 5.23048C20.26 5.23048 20.24 5.20054 20.23 5.19055C20.08 4.96097 19.88 4.68148 19.71 4.44192L19.38 4.02268C19.34 3.97277 19.33 3.95281 19.29 3.95281H19.21L19.24 4.0127C19.27 4.09255 19.43 4.30217 19.68 4.62159V4.61161ZM20.15 5.39019C20.15 5.39019 20.1 5.40017 20.08 5.43012C20.03 5.52994 20.22 5.91923 20.65 6.57803C20.93 7.00725 20.97 7.01723 21.01 7.02721H21.03L21.05 7.00725C21.05 7.00725 21.08 6.90743 21.05 6.79763C20.85 6.22866 20.37 5.42014 20.17 5.39019C20.17 5.39019 20.16 5.39019 20.15 5.39019ZM21.12 8.63429C21.12 8.63429 21.23 8.60434 21.25 8.47458C21.29 7.87567 20.75 6.87748 20.43 6.78765C20.37 6.76768 20.31 6.78765 20.28 6.83756C20.17 7.02721 20.46 7.69599 20.63 8.02539C20.74 8.23501 20.82 8.35479 20.85 8.4047C21 8.60434 21.07 8.63429 21.12 8.63429ZM20.49 9.99182C20.55 9.99182 20.6 9.97185 20.65 9.92194C20.81 9.6724 20.74 9.27312 20.69 9.06351C20.59 8.67421 20.35 8.17512 20.05 8.02539C19.93 7.9655 19.84 7.97548 19.78 8.06532C19.65 8.25498 19.75 8.78401 19.9 9.19327C20.04 9.57258 20.27 9.99182 20.5 9.99182H20.49ZM19.23 10.9002C19.23 10.9002 19.3 10.9002 19.33 10.8802C19.51 10.7804 19.61 10.5508 19.61 10.2414C19.61 9.75225 19.37 9.07349 19 8.85389C18.86 8.77403 18.73 8.78401 18.65 8.89381C18.51 9.06351 18.48 9.46278 18.56 9.92194C18.65 10.3711 18.87 10.9101 19.22 10.9101L19.23 10.9002ZM16.81 10.1615C16.81 10.6207 17 11.3094 17.5 11.3194C17.71 11.2795 17.87 11.1198 17.95 10.8702C18.11 10.3811 17.95 9.68238 17.61 9.32303C17.51 9.21323 17.4 9.16332 17.3 9.16332C17.22 9.16332 17.14 9.20325 17.07 9.26314C16.91 9.42285 16.81 9.76223 16.81 10.1515V10.1615ZM15.9 10.8602C16.13 10.441 16.12 9.81214 15.86 9.39291C15.71 9.14336 15.54 9.08347 15.42 9.08347C15.12 9.08347 14.84 9.42285 14.74 9.92194C14.62 10.461 14.77 11.0998 15.28 11.2196C15.28 11.2196 15.31 11.2196 15.33 11.2196C15.56 11.2196 15.76 11.0898 15.89 10.8602H15.9ZM12.52 9.19327C12.37 9.51269 12.33 9.86205 12.43 10.1415C12.5 10.3412 12.65 10.4909 12.84 10.5807C12.91 10.6007 12.98 10.6107 13.05 10.6107C13.29 10.6107 13.51 10.4909 13.67 10.2713C13.91 9.94191 13.99 9.44281 13.87 9.03356C13.74 8.61432 13.48 8.54445 13.34 8.54445C13.04 8.54445 12.7 8.81396 12.52 9.19327ZM13.21 5.12068C13 5.12068 12.68 5.36024 12.47 5.59981C12.23 5.88928 12.09 6.2087 12.12 6.44826C12.14 6.57803 12.2 6.67785 12.3 6.7577C12.36 6.78765 12.42 6.80761 12.49 6.80761C12.66 6.80761 12.83 6.71777 12.99 6.54808C13.27 6.24863 13.46 5.7695 13.44 5.41015C13.42 5.16061 13.28 5.12068 13.2 5.12068H13.21ZM12.2 4.43193C11.98 4.43193 11.62 4.58166 11.39 4.73139C11.12 4.90108 10.82 5.19055 10.78 5.47005C10.77 5.57984 10.8 5.67966 10.87 5.75952C10.94 5.81941 11.03 5.84935 11.13 5.84935C11.65 5.84935 12.34 5.12068 12.42 4.71143C12.44 4.63157 12.42 4.5617 12.39 4.51179C12.35 4.46188 12.28 4.44192 12.19 4.44192L12.2 4.43193ZM9.80002 4.62159C9.88002 4.70144 9.99002 4.74137 10.13 4.74137C10.68 4.74137 11.55 4.16242 11.67 3.9029C11.71 3.83302 11.69 3.77313 11.67 3.74319C11.63 3.67331 11.52 3.64337 11.35 3.64337C11.14 3.64337 10.86 3.69328 10.61 3.78311C10.19 3.92286 9.86002 4.15244 9.77002 4.37204C9.74002 4.46188 9.74002 4.54173 9.78002 4.61161L9.80002 4.62159ZM11.22 3.08439C11.27 3.0245 11.25 2.97459 11.24 2.95462C11.17 2.8049 10.75 2.79491 10.57 2.79491C10.45 2.79491 10.32 2.79491 10.2 2.81488C9.72002 2.87477 9.33002 3.0245 9.19002 3.22413C9.14002 3.29401 9.13002 3.3539 9.14002 3.42377V3.43375C9.20002 3.55353 9.35002 3.61342 9.59002 3.61342C10.15 3.61342 11.08 3.26406 11.22 3.09437V3.08439ZM8.97002 2.25589V2.27586C8.98002 2.45553 9.24002 2.53539 9.73002 2.53539C10.22 2.53539 10.95 2.42559 11.1 2.29582C11.14 2.26588 11.15 2.22595 11.13 2.18602C11.07 2.02631 10.55 1.92649 10.2 1.90653C10.14 1.90653 10.07 1.90653 10.01 1.90653C9.54002 1.90653 9.03002 2.01633 8.97002 2.26588V2.25589ZM9.36002 1.24773V1.25771C9.36002 1.25771 9.36002 1.26769 9.35002 1.28766C9.34002 1.32758 9.35002 1.36751 9.37002 1.39746C9.52002 1.60708 10.44 1.67695 10.87 1.67695C11.14 1.67695 11.31 1.65698 11.37 1.61706C11.41 1.59709 11.42 1.55717 11.42 1.51724C11.39 1.36751 10.94 1.21778 10.67 1.15789C10.46 1.10798 10.24 1.08802 10.04 1.08802C9.73002 1.08802 9.49002 1.14791 9.39002 1.24773H9.36002ZM11.45 0.698728C11.17 0.588928 10.84 0.529037 10.57 0.529037C10.43 0.529037 10.32 0.549001 10.24 0.578946C10.24 0.578946 10.17 0.618874 10.17 0.668783C10.17 0.688747 10.17 0.718692 10.19 0.748638C10.35 0.938292 11.56 1.18784 11.86 1.18784C11.9 1.18784 11.93 1.18784 11.95 1.17786C11.98 1.15789 12 1.12795 12 1.098C12 0.97822 11.72 0.808529 11.46 0.718692L11.45 0.698728ZM12.72 0.958256C12.72 0.958256 12.76 0.958256 12.77 0.958256C12.81 0.948274 12.83 0.918329 12.84 0.878401C12.85 0.768601 12.68 0.628856 12.54 0.539019C12.23 0.349364 11.82 0.26951 11.56 0.26951C11.53 0.26951 11.51 0.26951 11.49 0.26951C11.49 0.26951 11.38 0.279491 11.35 0.319419C11.33 0.339382 11.33 0.369328 11.35 0.389291C11.43 0.549001 12.49 0.968238 12.73 0.968238L12.72 0.958256ZM13.76 0.988202C13.85 0.988202 13.88 0.938292 13.9 0.908347C13.93 0.838474 13.9 0.738656 13.82 0.648819C13.64 0.449183 13.26 0.329401 12.98 0.289473C12.94 0.289473 12.9 0.289473 12.86 0.289473C12.81 0.289473 12.78 0.289473 12.76 0.309437C12.74 0.329401 12.73 0.359346 12.74 0.389291C12.79 0.539019 13.54 0.988202 13.75 0.988202H13.76ZM14.99 1.28766C15.11 1.28766 15.2 1.22777 15.21 1.12795C15.22 1.04809 15.18 0.908347 14.65 0.718692C14.58 0.698728 14.5 0.668783 14.43 0.658801C14.4 0.658801 14.38 0.658801 14.36 0.658801C14.31 0.658801 14.28 0.678765 14.26 0.70871C14.24 0.758619 14.26 0.808529 14.3 0.858438C14.54 1.18784 14.82 1.30762 14.99 1.30762V1.28766ZM15.92 1.77677C16.05 1.85662 16.25 1.88657 16.4 1.88657C16.44 1.88657 16.47 1.88657 16.49 1.88657C16.5 1.88657 16.51 1.88657 16.52 1.88657C16.58 1.87658 16.62 1.84664 16.62 1.80671C16.63 1.74682 16.58 1.67695 16.32 1.51724C16.09 1.38747 15.93 1.3176 15.82 1.3176C15.76 1.3176 15.72 1.34755 15.71 1.36751C15.69 1.39746 15.68 1.44737 15.69 1.49728C15.71 1.60708 15.79 1.71688 15.91 1.78675L15.92 1.77677ZM17.56 2.745C17.64 2.76497 17.73 2.79491 17.79 2.79491C17.85 2.79491 17.87 2.76497 17.88 2.745C17.9 2.67513 17.83 2.60526 17.74 2.5254C17.46 2.28584 17.18 2.13611 16.99 2.13611C16.93 2.13611 16.89 2.14609 16.85 2.17604C16.81 2.20599 16.76 2.25589 16.77 2.32577C16.79 2.46551 17.05 2.61524 17.55 2.75499L17.56 2.745ZM17.61 3.01451C17.61 3.01451 17.52 3.04446 17.52 3.10435C17.52 3.1842 17.61 3.31397 18.33 3.69328C18.46 3.76315 18.64 3.85299 18.74 3.87295C18.76 3.87295 18.77 3.87295 18.78 3.87295C18.83 3.87295 18.85 3.84301 18.86 3.83302C18.89 3.78311 18.84 3.70326 18.81 3.66333C18.54 3.30399 18.03 3.00453 17.72 3.00453C17.68 3.00453 17.64 3.00453 17.61 3.0245V3.01451ZM18.06 3.84301C17.99 3.84301 17.97 3.89292 17.97 3.91288C17.96 3.96279 17.93 4.06261 18.72 4.65153C18.85 4.75135 18.96 4.83121 19.06 4.8911C19.2 4.98094 19.3 5.02086 19.36 5.02086C19.4 5.02086 19.43 5.0009 19.44 4.99092C19.47 4.95099 19.46 4.8911 19.45 4.87113C19.25 4.37204 18.43 3.85299 18.09 3.85299C18.08 3.85299 18.07 3.85299 18.06 3.85299V3.84301ZM19.46 6.11886C19.52 6.11886 19.57 6.07894 19.59 6.01905C19.59 5.51995 18.56 4.66152 18.18 4.63157C18.1 4.63157 18.08 4.66152 18.07 4.68148C18.05 4.72141 18 4.84119 18.7 5.5499C19.07 5.91923 19.32 6.10888 19.46 6.10888V6.11886ZM19.05 7.04717C19.05 7.04717 19.13 7.03719 19.16 7.00725V6.99727C19.22 6.88747 19.21 6.72776 19.11 6.52812C18.88 6.02903 18.22 5.36024 17.9 5.30035C17.89 5.30035 17.88 5.30035 17.87 5.30035C17.81 5.30035 17.79 5.3303 17.78 5.35026C17.71 5.49001 17.99 5.92921 18.23 6.27857C18.43 6.56805 18.81 7.05716 19.05 7.05716V7.04717ZM18.26 7.66605C18.35 7.60616 18.39 7.49636 18.38 7.34663C18.34 6.82757 17.7 5.91923 17.34 5.75952C17.26 5.72957 17.2 5.73955 17.17 5.78946C17.07 5.94917 17.32 6.5381 17.4 6.71777C17.53 7.00725 17.87 7.67603 18.19 7.67603C18.21 7.67603 18.23 7.67603 18.25 7.67603L18.26 7.66605ZM16.54 5.97912C16.54 5.97912 16.46 5.93919 16.42 5.93919C16.38 5.93919 16.35 5.95915 16.32 5.9891C16.18 6.15879 16.3 6.79763 16.32 6.8675C16.42 7.36659 16.66 7.95552 17 7.9655C17.08 7.94554 17.19 7.88565 17.23 7.69599C17.32 7.20688 16.87 6.2087 16.53 5.97912H16.54ZM15.5 7.89563C15.5 7.89563 15.51 7.89563 15.52 7.89563C15.66 7.89563 15.78 7.81578 15.85 7.66605C16.04 7.25679 15.9 6.36841 15.59 5.99908C15.53 5.92921 15.47 5.88928 15.41 5.88928C15.12 5.88928 15.05 6.69781 15.05 6.70779C15.01 7.22685 15.13 7.80579 15.5 7.89563ZM13.82 7.45643C13.82 7.45643 13.9 7.47639 13.93 7.47639C14.08 7.47639 14.22 7.38656 14.33 7.22685C14.56 6.87748 14.64 6.15879 14.48 5.78946C14.42 5.6597 14.34 5.58983 14.24 5.58983C14.01 5.58983 13.76 5.97912 13.65 6.23865C13.45 6.70779 13.44 7.27676 13.81 7.45643H13.82ZM12.92 2.28584C12.66 2.8548 13.26 3.69328 14.27 4.16242C14.69 4.35208 15.14 4.46188 15.53 4.46188C16.05 4.46188 16.42 4.28221 16.57 3.97277C16.83 3.40381 16.23 2.56533 15.22 2.09618C14.8 1.90653 14.35 1.79673 13.96 1.79673C13.44 1.79673 13.07 1.9764 12.92 2.28584Z" fill="#49577C"/>
<path d="M11 1.03822C16.51 1.03822 21 5.52007 21 11.0201C21 16.52 16.51 21.0019 11 21.0019C5.49 21.0019 1 16.52 1 11.0201C1 5.52007 5.49 1.03822 11 1.03822ZM11 0.0400391C4.92 0.0400391 0 4.9511 0 11.0201C0 17.089 4.92 22.0001 11 22.0001C17.08 22.0001 22 17.089 22 11.0201C22 4.9511 17.08 0.0400391 11 0.0400391Z" fill="#49577C"/>
</svg>
