<svg width="24" height="24" viewBox="0 0 24 24" fill="none" xmlns="http://www.w3.org/2000/svg">
<mask id="mask0_3055_963" style="mask-type:alpha" maskUnits="userSpaceOnUse" x="0" y="0" width="24" height="24">
<rect width="24" height="24" fill="#D9D9D9"/>
</mask>
<g mask="url(#mask0_3055_963)">
<path d="M17 21C16.1667 21 15.4583 20.7083 14.875 20.125C14.2917 19.5417 14 18.8333 14 18C14 17.1667 14.2917 16.4583 14.875 15.875C15.4583 15.2917 16.1667 15 17 15C17.8333 15 18.5417 15.2917 19.125 15.875C19.7083 16.4583 20 17.1667 20 18C20 18.8333 19.7083 19.5417 19.125 20.125C18.5417 20.7083 17.8333 21 17 21ZM16.25 14V12H17.75V14H16.25ZM16.25 24V22H17.75V24H16.25ZM20.375 15.675L19.3 14.625L20.725 13.2L21.775 14.275L20.375 15.675ZM13.275 22.775L12.225 21.725L13.65 20.3L14.7 21.35L13.275 22.775ZM21 18.75V17.25H23V18.75H21ZM11 18.75V17.25H13V18.75H11ZM20.725 22.775L19.325 21.35L20.375 20.3L21.8 21.7L20.725 22.775ZM13.625 15.7L12.225 14.275L13.275 13.225L14.7 14.625L13.625 15.7ZM3 22V4H6V2H8V4H16V2H18V4H21V10H5V20H9V22H3ZM5 8H19V6H5V8Z" fill="#F6DD0E"/>
</g>
</svg>
