<svg width="25" height="24" viewBox="0 0 25 24" fill="none" xmlns="http://www.w3.org/2000/svg">
<mask id="mask0_3055_615" style="mask-type:alpha" maskUnits="userSpaceOnUse" x="0" y="0" width="25" height="24">
<rect x="0.365723" width="24" height="24" fill="#D9D9D9"/>
</mask>
<g mask="url(#mask0_3055_615)">
<path d="M12.3657 21.5C10.1491 21.5 8.26156 20.7333 6.70322 19.2C5.14489 17.6667 4.36572 15.8 4.36572 13.6C4.36572 12.55 4.56989 11.5458 4.97822 10.5875C5.38656 9.62917 5.96572 8.78333 6.71572 8.05L12.3657 2.5L18.0157 8.05C18.7657 8.78333 19.3449 9.62917 19.7532 10.5875C20.1616 11.5458 20.3657 12.55 20.3657 13.6C20.3657 15.8 19.5866 17.6667 18.0282 19.2C16.4699 20.7333 14.5824 21.5 12.3657 21.5ZM6.36572 13.6H18.3657C18.3657 12.8167 18.2157 12.0708 17.9157 11.3625C17.6157 10.6542 17.1824 10.0333 16.6157 9.5L12.3657 5.3L8.11572 9.5C7.54906 10.0333 7.11572 10.6542 6.81572 11.3625C6.51572 12.0708 6.36572 12.8167 6.36572 13.6Z" fill="#1CD7C7"/>
</g>
</svg>
