<svg width="24" height="24" viewBox="0 0 24 24" fill="none" xmlns="http://www.w3.org/2000/svg">
<mask id="mask0_1759_1071" style="mask-type:alpha" maskUnits="userSpaceOnUse" x="0" y="0" width="24" height="24">
<rect width="24" height="24" fill="#D9D9D9"/>
</mask>
<g mask="url(#mask0_1759_1071)">
<path d="M9.57499 12L5.69999 8.10005C5.51665 7.91672 5.42082 7.68755 5.41249 7.41255C5.40415 7.13755 5.49999 6.90005 5.69999 6.70005C5.88332 6.51672 6.11665 6.42505 6.39999 6.42505C6.68332 6.42505 6.91665 6.51672 7.09999 6.70005L11.7 11.3C11.8 11.4 11.8708 11.5084 11.9125 11.625C11.9542 11.7417 11.975 11.8667 11.975 12C11.975 12.1334 11.9542 12.2584 11.9125 12.375C11.8708 12.4917 11.8 12.6 11.7 12.7L7.09999 17.3C6.91665 17.4834 6.68749 17.5792 6.41249 17.5875C6.13749 17.5959 5.89999 17.5 5.69999 17.3C5.51665 17.1167 5.42499 16.8834 5.42499 16.6C5.42499 16.3167 5.51665 16.0834 5.69999 15.9L9.57499 12ZM16.175 12L12.3 8.10005C12.1167 7.91672 12.0208 7.68755 12.0125 7.41255C12.0042 7.13755 12.1 6.90005 12.3 6.70005C12.4833 6.51672 12.7167 6.42505 13 6.42505C13.2833 6.42505 13.5167 6.51672 13.7 6.70005L18.3 11.3C18.4 11.4 18.4708 11.5084 18.5125 11.625C18.5542 11.7417 18.575 11.8667 18.575 12C18.575 12.1334 18.5542 12.2584 18.5125 12.375C18.4708 12.4917 18.4 12.6 18.3 12.7L13.7 17.3C13.5167 17.4834 13.2875 17.5792 13.0125 17.5875C12.7375 17.5959 12.5 17.5 12.3 17.3C12.1167 17.1167 12.025 16.8834 12.025 16.6C12.025 16.3167 12.1167 16.0834 12.3 15.9L16.175 12Z" fill="#27355A"/>
</g>
</svg>
