<svg width="24" height="24" viewBox="0 0 24 24" fill="none" xmlns="http://www.w3.org/2000/svg">
<mask id="mask0_3197_29" style="mask-type:alpha" maskUnits="userSpaceOnUse" x="0" y="0" width="24" height="24">
<rect width="24" height="24" fill="#D9D9D9"/>
</mask>
<g mask="url(#mask0_3197_29)">
<path d="M12 23.3L8.65001 20H4.00001V15.35L0.700012 12L4.00001 8.64995V3.99995H8.65001L12 0.699951L15.35 3.99995H20V8.64995L23.3 12L20 15.35V20H15.35L12 23.3ZM12 17C13.3833 17 14.5625 16.5125 15.5375 15.5375C16.5125 14.5625 17 13.3833 17 12C17 10.6166 16.5125 9.43745 15.5375 8.46245C14.5625 7.48745 13.3833 6.99995 12 6.99995C10.6167 6.99995 9.43751 7.48745 8.46251 8.46245C7.48751 9.43745 7.00001 10.6166 7.00001 12C7.00001 13.3833 7.48751 14.5625 8.46251 15.5375C9.43751 16.5125 10.6167 17 12 17ZM12 20.5L14.5 18H18V14.5L20.5 12L18 9.49995V5.99995H14.5L12 3.49995L9.50001 5.99995H6.00001V9.49995L3.50001 12L6.00001 14.5V18H9.50001L12 20.5Z" fill="#3B4766"/>
</g>
</svg>
