<svg width="20" height="20" viewBox="0 0 20 20" fill="none" xmlns="http://www.w3.org/2000/svg">
<mask id="mask0_901_4571" style="mask-type:alpha" maskUnits="userSpaceOnUse" x="0" y="0" width="20" height="20">
<rect width="20" height="20" fill="#D9D9D9"/>
</mask>
<g mask="url(#mask0_901_4571)">
<path d="M10 17.9167C8.90601 17.9167 7.87747 17.7087 6.91442 17.2925C5.95122 16.8764 5.1133 16.3121 4.40067 15.5994C3.68803 14.8868 3.12365 14.0489 2.70754 13.0857C2.29143 12.1226 2.08337 11.0941 2.08337 10C2.08337 8.90601 2.29143 7.87747 2.70754 6.91442C3.12365 5.95122 3.68803 5.1133 4.40067 4.40067C5.1133 3.68803 5.95122 3.12365 6.91442 2.70754C7.87747 2.29143 8.90601 2.08337 10 2.08337C11.985 2.08337 13.7099 2.7215 15.1746 3.99775C16.6395 5.27386 17.5166 6.86226 17.8061 8.76296H16.5305C16.3253 7.65282 15.8697 6.65837 15.1636 5.77962C14.4573 4.90087 13.5695 4.24678 12.5 3.81733V4.16671C12.5 4.62504 12.3368 5.0174 12.0105 5.34379C11.6841 5.67018 11.2917 5.83337 10.8334 5.83337H9.16671V7.50004C9.16671 7.73615 9.08685 7.93407 8.92712 8.09379C8.7674 8.25351 8.56949 8.33337 8.33337 8.33337H6.66671V10H8.26921V12.5H7.50004L3.50004 8.50004C3.45837 8.75004 3.42018 9.00004 3.38546 9.25004C3.35074 9.50004 3.33337 9.75004 3.33337 10C3.33337 11.8195 3.97226 13.382 5.25004 14.6875C6.52782 15.9931 8.11115 16.6528 10 16.6667V17.9167ZM17.5513 17.5961L14.7805 14.8413C14.5102 15.0134 14.2191 15.1523 13.9071 15.258C13.5952 15.3638 13.265 15.4167 12.9167 15.4167C11.9873 15.4167 11.1993 15.0935 10.553 14.4471C9.90657 13.8007 9.58337 13.0128 9.58337 12.0834C9.58337 11.1539 9.90657 10.366 10.553 9.71962C11.1993 9.07324 11.9873 8.75004 12.9167 8.75004C13.8462 8.75004 14.6341 9.07324 15.2805 9.71962C15.9268 10.366 16.25 11.1539 16.25 12.0834C16.25 12.437 16.1958 12.7712 16.0873 13.0859C15.9789 13.4005 15.8359 13.6929 15.6586 13.9632L18.4294 16.718L17.5513 17.5961ZM12.9167 14.1667C13.5 14.1667 13.9931 13.9653 14.3959 13.5625C14.7987 13.1598 15 12.6667 15 12.0834C15 11.5 14.7987 11.007 14.3959 10.6042C13.9931 10.2014 13.5 10 12.9167 10C12.3334 10 11.8403 10.2014 11.4375 10.6042C11.0348 11.007 10.8334 11.5 10.8334 12.0834C10.8334 12.6667 11.0348 13.1598 11.4375 13.5625C11.8403 13.9653 12.3334 14.1667 12.9167 14.1667Z" fill="#49577C"/>
</g>
</svg>
