<svg width="24" height="24" viewBox="0 0 24 24" fill="none" xmlns="http://www.w3.org/2000/svg">
<mask id="mask0_155_913" style="mask-type:alpha" maskUnits="userSpaceOnUse" x="0" y="0" width="24" height="24">
<rect width="24" height="24" fill="#D9D9D9"/>
</mask>
<g mask="url(#mask0_155_913)">
<path fill-rule="evenodd" clip-rule="evenodd" d="M12 2C11.2044 2 10.4413 2.31664 9.87868 2.88026C9.31607 3.44388 9 4.20831 9 5.00539V9.01037C9 9.01111 9 9.01185 9 9.01258C9 9.01332 9 9.01406 9 9.01479V12.9838C8.28586 13.5204 7.725 14.2412 7.3806 15.0741C6.9594 16.0929 6.8855 17.2223 7.17037 18.2874C7.45525 19.3525 8.08298 20.2936 8.9562 20.9649C9.82942 21.6362 10.8993 22 12 22C13.1007 22 14.1706 21.6361 15.0438 20.9649C15.917 20.2936 16.5448 19.3525 16.8296 18.2874C17.1145 17.2223 17.0406 16.0929 16.6194 15.0741C16.275 14.2412 15.7142 13.5204 15 12.9838V5.00539C15 4.20831 14.6839 3.44388 14.1213 2.88026C13.5587 2.31664 12.7957 2 12 2ZM11 10.0144V13.5207C11 13.8786 10.8094 14.2093 10.5 14.3883C9.92808 14.7191 9.48109 15.2297 9.22836 15.8409C8.97564 16.4521 8.9313 17.1298 9.10222 17.7689C9.27315 18.4079 9.64979 18.9726 10.1737 19.3753C10.6977 19.7781 11.3396 19.9964 12 19.9964C12.6604 19.9964 13.3024 19.7781 13.8263 19.3753C14.3502 18.9726 14.7269 18.4079 14.8978 17.7689C15.0687 17.1298 15.0244 16.4521 14.7716 15.8409C14.5189 15.2297 14.0719 14.7191 13.5 14.3883C13.1906 14.2093 13 13.8786 13 13.5207V10.0144H11ZM13 8.01079V5.00539C13 4.7397 12.8946 4.48489 12.7071 4.29701C12.5196 4.10914 12.2652 4.0036 12 4.0036C11.7348 4.0036 11.4804 4.10914 11.2929 4.29701C11.1054 4.48489 11 4.7397 11 5.00539V8.01079H13Z" fill="#F6DD0E"/>
</g>
</svg>
