<svg width="24" height="24" viewBox="0 0 24 24" fill="none" xmlns="http://www.w3.org/2000/svg">
<mask id="mask0_155_901" style="mask-type:alpha" maskUnits="userSpaceOnUse" x="0" y="0" width="24" height="24">
<rect width="24" height="24" fill="#D9D9D9"/>
</mask>
<g mask="url(#mask0_155_901)">
<path fill-rule="evenodd" clip-rule="evenodd" d="M12.9316 2.90909C12.9316 2.40701 12.5145 2 12 2C11.4855 2 11.0683 2.40701 11.0683 2.90909V3.81818H10.1367C9.70464 3.81818 9.32927 4.10807 9.23 4.51841C9.13073 4.92874 9.33362 5.35184 9.72007 5.54039L11.0683 6.19821V8.28402L9.17448 9.35843L7.3167 8.3118L7.40702 6.8435C7.4329 6.42264 7.15885 6.03964 6.74504 5.91836C6.33123 5.79708 5.88627 5.96935 5.67024 6.33448L5.20442 7.12178L4.3976 6.66723C3.95201 6.4162 3.38223 6.56517 3.12497 6.99999C2.86771 7.4348 3.02038 7.99079 3.46597 8.24183L4.27279 8.69637L3.80697 9.48367C3.59094 9.8488 3.66053 10.311 3.97507 10.6C4.28961 10.8891 4.76654 10.9292 5.12711 10.6969L6.38507 9.88639L8.23626 10.9293L8.24287 13.0669L6.38509 14.1136L5.12713 13.3031C4.76657 13.0708 4.28963 13.1109 3.97509 13.4C3.66055 13.689 3.59096 14.1512 3.807 14.5163L4.27281 15.3036L3.46599 15.7581C3.0204 16.0092 2.86773 16.5652 3.12499 17C3.38226 17.4348 3.95203 17.5838 4.39763 17.3327L5.20444 16.8782L5.67026 17.6655C5.8863 18.0306 6.33126 18.2029 6.74506 18.0816C7.15887 17.9603 7.43293 17.5773 7.40704 17.1565L7.31672 15.6882L9.16789 14.6453L11.0684 15.7085V17.8018L9.72012 18.4596C9.33366 18.6482 9.13078 19.0713 9.23005 19.4816C9.32932 19.8919 9.70469 20.1818 10.1368 20.1818H11.0684V21.0909C11.0684 21.593 11.4855 22 12 22C12.5145 22 12.9317 21.593 12.9317 21.0909V20.1818H13.8633C14.2954 20.1818 14.6707 19.8919 14.77 19.4816C14.8693 19.0713 14.6664 18.6482 14.2799 18.4596L12.9317 17.8018V15.716L14.8255 14.6416L16.6833 15.6882L16.593 17.1565C16.5671 17.5774 16.8411 17.9604 17.255 18.0816C17.6688 18.2029 18.1137 18.0306 18.3298 17.6655L18.7956 16.8782L19.6024 17.3328C20.048 17.5838 20.6178 17.4348 20.875 17C21.1323 16.5652 20.9796 16.0092 20.534 15.7582L19.7272 15.3036L20.193 14.5163C20.4091 14.1512 20.3395 13.689 20.0249 13.4C19.7104 13.1109 19.2335 13.0708 18.8729 13.3031L17.6149 14.1136L15.7637 13.0707L15.7571 10.9331L17.6149 9.88642L18.8729 10.6969C19.2334 10.9292 19.7104 10.8891 20.0249 10.6C20.3395 10.311 20.409 9.84883 20.193 9.4837L19.7272 8.6964L20.534 8.24186C20.9796 7.99082 21.1323 7.43483 20.875 7.00001C20.6177 6.5652 20.048 6.41623 19.6024 6.66726L18.7956 7.12181L18.3297 6.33451C18.1137 5.96938 17.6687 5.79711 17.2549 5.91839C16.8411 6.03967 16.5671 6.42267 16.593 6.84353L16.6833 8.31183L14.8321 9.35474L12.9316 8.29149V6.19821L14.2799 5.54039C14.6663 5.35184 14.8692 4.92874 14.77 4.51841C14.6707 4.10807 14.2953 3.81818 13.8632 3.81818H12.9316V2.90909ZM10.0996 10.9368L10.1062 13.0744L12.0067 14.1376L13.9004 13.0632L13.8938 10.9256L11.9933 9.86238L10.0996 10.9368Z" fill="#3CB3E4"/>
</g>
</svg>
