<svg width="24" height="24" viewBox="0 0 24 24" fill="none" xmlns="http://www.w3.org/2000/svg">
<mask id="mask0_155_894" style="mask-type:alpha" maskUnits="userSpaceOnUse" x="0" y="0" width="24" height="24">
<rect width="24" height="24" fill="#D9D9D9"/>
</mask>
<g mask="url(#mask0_155_894)">
<path d="M11 12.9975H2C2 7.80999 5.947 3.54479 11.001 3.04465L11 2.99463C11.0008 2.86165 11.028 2.73015 11.0802 2.60782C11.1323 2.4855 11.2084 2.3748 11.3038 2.28222C11.3992 2.18963 11.5122 2.11702 11.636 2.06861C11.7598 2.02021 11.8921 1.99699 12.025 2.00031C12.1579 2.00364 12.2888 2.03344 12.4101 2.08798C12.5313 2.14251 12.6405 2.22069 12.7312 2.31793C12.8219 2.41517 12.8923 2.52953 12.9383 2.65431C12.9842 2.77909 13.0049 2.91179 12.999 3.04465C18.053 3.54479 22 7.80899 22 12.9975H13V18.9992C13 19.2644 13.1054 19.5189 13.2929 19.7065C13.4804 19.894 13.7348 19.9994 14 19.9994C14.2652 19.9994 14.5196 19.894 14.7071 19.7065C14.8946 19.5189 15 19.2644 15 18.9992C15 18.7339 15.1054 18.4794 15.2929 18.2918C15.4804 18.1043 15.7348 17.9989 16 17.9989C16.2652 17.9989 16.5196 18.1043 16.7071 18.2918C16.8946 18.4794 17 18.7339 17 18.9992C17 19.795 16.6839 20.5583 16.1213 21.1211C15.5587 21.6838 14.7956 22 14 22C13.2044 22 12.4413 21.6838 11.8787 21.1211C11.3161 20.5583 11 19.795 11 18.9992V12.9975Z" fill="#24D130"/>
</g>
</svg>
