<svg width="20" height="20" viewBox="0 0 20 20" fill="none" xmlns="http://www.w3.org/2000/svg">
<mask id="mask0_901_4558" style="mask-type:alpha" maskUnits="userSpaceOnUse" x="0" y="0" width="20" height="20">
<rect width="20" height="20" fill="#D9D9D9"/>
</mask>
<g mask="url(#mask0_901_4558)">
<path d="M1.875 17.2756V16.0256C2.35472 16.0042 2.7909 15.8995 3.18354 15.7114C3.57618 15.5235 3.99417 15.2677 4.4375 14.9439C4.85944 15.2804 5.31431 15.5441 5.80208 15.7348C6.28986 15.9254 6.76556 16.0208 7.22917 16.0208C7.68222 16.0208 8.15875 15.9302 8.65875 15.7491C9.15875 15.568 9.61278 15.305 10.0208 14.96C10.4653 15.3275 10.9236 15.5961 11.3958 15.766C11.8681 15.9359 12.3403 16.0208 12.8125 16.0208C13.2815 16.0208 13.7335 15.9359 14.1683 15.766C14.6031 15.5961 15.0817 15.3221 15.6042 14.9439C16.0924 15.3125 16.5328 15.5796 16.9254 15.7452C17.3181 15.9107 17.7179 16.0042 18.125 16.0256V17.2756C17.6976 17.2596 17.2756 17.1857 16.859 17.0537C16.4423 16.9218 16.024 16.7334 15.6042 16.4887C15.1383 16.7772 14.6672 16.9831 14.1906 17.1064C13.7142 17.2299 13.2549 17.2916 12.8125 17.2916C12.3756 17.2916 11.9162 17.2286 11.4344 17.1025C10.9524 16.9765 10.4786 16.7693 10.0129 16.4808C9.58875 16.7607 9.13625 16.9657 8.65542 17.096C8.17472 17.2264 7.69931 17.2916 7.22917 17.2916C6.77292 17.2916 6.30868 17.2264 5.83646 17.096C5.36424 16.9657 4.89792 16.7633 4.4375 16.4887C4.02833 16.728 3.60847 16.9136 3.17792 17.0456C2.74736 17.1775 2.31306 17.2542 1.875 17.2756ZM1.875 13.9423V12.0833C1.875 10.7627 2.13007 9.54322 2.64021 8.42475C3.15035 7.30614 3.8475 6.33899 4.73167 5.52329C5.61569 4.7076 6.65333 4.0692 7.84458 3.60808C9.03583 3.14711 10.3099 2.91663 11.6667 2.91663C12.0608 2.91663 12.4542 2.93558 12.8469 2.9735C13.2395 3.01142 13.5977 3.06406 13.9215 3.13142C13.6672 3.55989 13.4708 4.00593 13.3325 4.46954C13.1942 4.93315 13.125 5.3669 13.125 5.77079C13.125 6.59343 13.4158 7.29565 13.9975 7.87746C14.5793 8.45913 15.2815 8.74996 16.1042 8.74996H18.125V9.99996H16.1042C14.9268 9.99996 13.9276 9.5894 13.1067 8.76829C12.2856 7.94732 11.875 6.94815 11.875 5.77079C11.875 5.52829 11.8983 5.27003 11.9448 4.996C11.9912 4.72197 12.0528 4.46739 12.1298 4.23225C10.9472 4.47156 9.98403 5.03086 9.24042 5.91017C8.49681 6.78947 8.125 7.80822 8.125 8.96642C8.125 9.59461 8.21688 10.1651 8.40063 10.6779C8.58438 11.1907 8.83813 11.6832 9.16188 12.1554C9.28896 12.0859 9.42569 12.0007 9.57208 11.8998C9.71847 11.7989 9.86375 11.6999 10.0079 11.6027C10.4268 11.9477 10.8948 12.2148 11.4119 12.4039C11.929 12.5929 12.3958 12.6875 12.8125 12.6875C13.2292 12.6875 13.6918 12.5908 14.2004 12.3975C14.7089 12.2041 15.1768 11.9392 15.6042 11.6027C16.0112 11.8985 16.4188 12.1474 16.8269 12.3493C17.2351 12.5513 17.6678 12.6656 18.125 12.6923V13.9423C17.6976 13.9263 17.2756 13.8483 16.859 13.7083C16.4423 13.5683 16.024 13.376 15.6042 13.1314C15.1383 13.4199 14.6749 13.6298 14.214 13.7612C13.753 13.8926 13.2858 13.9583 12.8125 13.9583C12.3339 13.9583 11.8433 13.8809 11.3406 13.726C10.8378 13.571 10.3979 13.3728 10.0208 13.1314C9.56889 13.406 9.1175 13.6103 8.66667 13.7443C8.21583 13.8785 7.73667 13.9498 7.22917 13.9583C6.71639 13.9669 6.23319 13.9004 5.77958 13.7587C5.32611 13.6172 4.87875 13.4161 4.4375 13.1554C4.02833 13.3947 3.60847 13.5803 3.17792 13.7123C2.74736 13.8442 2.31306 13.9209 1.875 13.9423Z" fill="#fff"/>
</g>
</svg>
