<svg width="22" height="22" viewBox="0 0 22 22" fill="none" xmlns="http://www.w3.org/2000/svg">
<path d="M14.99 7.85004C14.99 7.85004 14.99 7.77004 14.98 7.73004C14.98 7.69004 14.98 7.65004 14.96 7.61004C14.96 7.58004 14.96 7.55004 14.95 7.53004C14.95 7.48004 14.93 7.43004 14.92 7.39004C14.92 7.37004 14.92 7.36004 14.92 7.34004C14.74 6.51004 14.31 5.77004 13.7 5.21004C13.7 5.21004 13.69 5.21004 13.68 5.20004C13.64 5.16004 13.6 5.13004 13.55 5.09004C13.54 5.09004 13.53 5.07004 13.51 5.06004C12.82 4.50004 11.95 4.17004 10.99 4.17004C10.03 4.17004 9.15999 4.51004 8.46999 5.06004C8.45999 5.06004 8.44999 5.08004 8.42999 5.09004C8.38999 5.13004 8.33999 5.16004 8.29999 5.20004C8.29999 5.20004 8.28999 5.20004 8.27999 5.21004C7.66999 5.76004 7.23999 6.50004 7.05999 7.34004C7.05999 7.36004 7.05999 7.37004 7.05999 7.39004C7.05999 7.44004 7.03999 7.49004 7.02999 7.53004C7.02999 7.56004 7.02999 7.59004 7.01999 7.61004C7.01999 7.65004 7.00999 7.69004 6.99999 7.73004C6.99999 7.77004 6.99999 7.81004 6.98999 7.85004C6.98999 7.88004 6.98999 7.91004 6.98999 7.94004C6.98999 8.01004 6.98999 8.09004 6.98999 8.16004C6.98999 8.23004 6.98999 8.31004 6.98999 8.38004C6.98999 8.41004 6.98999 8.44004 6.98999 8.47004C6.98999 8.51004 6.98999 8.55004 6.99999 8.59004C6.99999 8.63004 6.99999 8.67004 7.01999 8.71004C7.01999 8.74004 7.01999 8.77004 7.02999 8.79004C7.02999 8.84004 7.04999 8.89004 7.05999 8.93004C7.05999 8.95004 7.05999 8.96004 7.05999 8.98004C7.23999 9.81004 7.66999 10.55 8.27999 11.11C8.27999 11.11 8.27999 11.11 8.28999 11.12C8.32999 11.16 8.37999 11.2 8.41999 11.23C8.42999 11.23 8.43999 11.25 8.44999 11.26C9.13999 11.82 10.02 12.16 10.97 12.16C11.92 12.16 12.8 11.82 13.49 11.26C13.5 11.26 13.51 11.24 13.52 11.23C13.56 11.19 13.61 11.16 13.65 11.12C13.65 11.12 13.65 11.12 13.66 11.11C14.27 10.56 14.7 9.82004 14.88 8.98004C14.88 8.96004 14.88 8.95004 14.88 8.93004C14.88 8.88004 14.9 8.83004 14.91 8.79004C14.91 8.76004 14.91 8.73004 14.92 8.71004C14.92 8.67004 14.93 8.63004 14.94 8.59004C14.94 8.55004 14.94 8.51004 14.95 8.47004C14.95 8.44004 14.95 8.41004 14.95 8.38004C14.95 8.31004 14.95 8.23004 14.95 8.16004C14.95 8.09004 14.95 8.01004 14.95 7.94004C14.95 7.91004 14.95 7.88004 14.95 7.85004H14.99ZM11 11.09C9.37999 11.09 8.06999 9.77004 8.06999 8.16004C8.06999 6.55004 9.38999 5.23004 11 5.23004C12.61 5.23004 13.93 6.55004 13.93 8.16004C13.93 9.77004 12.61 11.09 11 11.09Z" fill="#49577C"/>
<path d="M11 0C4.92 0 0 4.92 0 11C0 14.42 1.56 17.47 4 19.49C5.9 21.06 8.34 22 11 22C13.66 22 16.1 21.06 18 19.49C20.44 17.47 22 14.42 22 11C22 4.92 17.08 0 11 0ZM12.5 17.38H9.5V15.13C9.5 14.99 9.61 14.88 9.75 14.88H12.25C12.39 14.88 12.5 14.99 12.5 15.13V17.38ZM18 18.13V17.38H16.5V13.63C16.5 13.49 16.39 13.38 16.25 13.38H5.75C5.61 13.38 5.5 13.49 5.5 13.63V17.38H4V18.13C2.15 16.31 1 13.79 1 11C1 5.49 5.49 1 11 1C16.51 1 21 5.49 21 11C21 13.79 19.85 16.31 18 18.13Z" fill="#49577C"/>
<path d="M11 8.84997C11.3811 8.84997 11.69 8.54105 11.69 8.15997C11.69 7.77889 11.3811 7.46997 11 7.46997C10.6189 7.46997 10.31 7.77889 10.31 8.15997C10.31 8.54105 10.6189 8.84997 11 8.84997Z" fill="#49577C"/>
</svg>
