<svg width="23" height="22" viewBox="0 0 23 22" fill="none" xmlns="http://www.w3.org/2000/svg">
<path d="M21.8897 9.26C21.8897 9.26 21.8897 9.22 21.8897 9.19C21.0081 3.98 16.4899 0 11.0199 0C9.38697 0 7.84417 0.36 6.45164 1H6.38151C6.38151 1 6.30136 1.02 6.27131 1.05L6.19116 1.13C5.61011 1.41 5.06912 1.74 4.55819 2.12C3.72668 2.73 2.98533 3.45 2.34417 4.26C1.87331 4.87 1.46256 5.53 1.12195 6.23C1.03178 6.43 0.931599 6.62 0.851453 6.82C0.691162 7.2 0.560925 7.6 0.450725 8C0.450725 8.01 0.450725 8.02 0.450725 8.03C0.370579 8.33 0.290433 8.63 0.230324 8.94C0.210288 9.03 0.200269 9.12 0.190251 9.21C0.150178 9.45 0.110106 9.69 0.0900691 9.94C0.0600145 10.29 0.039978 10.64 0.039978 11C0.039978 11.46 0.0800509 11.91 0.130142 12.36H0.0900691C0.42067 15.04 1.72304 17.42 3.6265 19.14C3.86694 19.36 4.12741 19.57 4.38788 19.77C6.23124 21.16 8.52541 22 11.0199 22C17.111 22 22.04 17.08 22.04 11C22.04 10.4 21.9799 9.83 21.8897 9.26ZM1.40246 13.79H1.80318C1.80318 13.79 1.88333 13.81 1.91338 13.84C1.95346 13.88 2.01357 13.94 2.05364 13.98C2.08369 14.01 2.12377 14.03 2.16384 14.03H2.27404C2.27404 14.03 2.35419 14.05 2.38424 14.08C2.48442 14.18 2.70482 14.4 2.79499 14.49C2.82504 14.52 2.86511 14.54 2.90519 14.54H3.09553C3.09553 14.54 3.17568 14.56 3.20573 14.59C3.23579 14.62 3.25583 14.66 3.25583 14.7V14.89C3.25583 14.89 3.23579 14.97 3.20573 15C3.15564 15.05 3.05546 15.15 3.00537 15.2C2.97532 15.23 2.95528 15.27 2.95528 15.31V15.83C2.95528 15.83 2.97532 15.91 3.00537 15.94C3.16566 16.1 3.69663 16.63 3.85692 16.78C3.88697 16.81 3.90701 16.85 3.90701 16.89V18.05C2.7449 16.88 1.87331 15.42 1.40246 13.8V13.79ZM11.0199 21C8.67568 21 6.51175 20.18 4.80865 18.83L6.61193 17.03C6.61193 17.03 6.66202 16.96 6.66202 16.92V16.44C6.66202 16.44 6.68205 16.36 6.71211 16.33C6.78224 16.26 6.90246 16.14 6.97258 16.07C7.00264 16.04 7.02267 16 7.02267 15.96V15.83C7.02267 15.83 7.00264 15.75 6.97258 15.72C6.90246 15.65 6.78224 15.53 6.71211 15.46C6.68205 15.43 6.64198 15.41 6.60191 15.41H6.09098C6.09098 15.41 6.01083 15.39 5.98078 15.36L4.81867 14.2C4.81867 14.2 4.74854 14.15 4.70847 14.15H3.72668C3.72668 14.15 3.64654 14.17 3.61648 14.2C3.60646 14.21 3.58643 14.23 3.57641 14.24C3.54635 14.27 3.50628 14.29 3.46621 14.29H3.08552C3.08552 14.29 3.00537 14.27 2.97532 14.24C2.84508 14.11 2.46439 13.73 2.33415 13.6C2.30409 13.57 2.26402 13.55 2.22395 13.55H1.83324C1.83324 13.55 1.75309 13.53 1.72304 13.5C1.68297 13.46 1.62286 13.4 1.58278 13.36C1.55273 13.33 1.53269 13.29 1.53269 13.25V12.84C1.53269 12.84 1.55273 12.76 1.58278 12.73L1.84326 12.47C1.84326 12.47 1.91338 12.42 1.95346 12.42H2.67477C2.67477 12.42 2.75491 12.44 2.78497 12.47C2.81502 12.5 2.83506 12.54 2.83506 12.58V12.63C2.83506 12.63 2.83506 12.65 2.84508 12.66C2.88515 12.7 2.93524 12.71 2.98533 12.69C3.03542 12.67 3.06548 12.62 3.06548 12.57V12.35C3.06548 12.35 3.08552 12.27 3.11557 12.24C3.17568 12.18 3.2959 12.06 3.35601 12C3.38606 11.97 3.4061 11.93 3.4061 11.89V11.72C3.4061 11.72 3.42613 11.64 3.45619 11.61C3.6265 11.44 4.22759 10.84 4.3979 10.67C4.42796 10.64 4.44799 10.6 4.44799 10.56V10.27C4.44799 10.18 4.51812 10.11 4.60828 10.11H4.89881C4.89881 10.11 4.97896 10.09 5.00901 10.06C5.04909 10.02 5.10919 9.96 5.14927 9.92C5.17932 9.89 5.19936 9.85 5.19936 9.81C5.19936 9.81 5.18934 9.74 5.15929 9.71C5.08916 9.64 4.93889 9.48 4.85874 9.41C4.82868 9.38 4.80865 9.34 4.80865 9.3V8.99C4.80865 8.99 4.78861 8.91 4.75856 8.88L4.58825 8.71C4.58825 8.71 4.51812 8.66 4.47805 8.66C4.43797 8.66 4.3979 8.68 4.36785 8.71C4.33779 8.74 4.29772 8.76 4.25765 8.76C4.21757 8.76 4.1775 8.74 4.14745 8.71C4.01721 8.58 3.80683 8.37 3.70664 8.27C3.67659 8.24 3.63652 8.22 3.59644 8.22H3.32595C3.23579 8.22 3.16566 8.29 3.16566 8.38V9.68C3.16566 9.68 3.14562 9.76 3.11557 9.79C3.08552 9.82 3.04544 9.84 3.00537 9.84H2.89517C2.89517 9.84 2.81502 9.82 2.78497 9.79C2.61466 9.62 2.04362 9.05 1.88333 8.89C1.85328 8.86 1.83324 8.82 1.83324 8.78V8.52C1.83324 8.52 1.85328 8.44 1.88333 8.41C2.00355 8.29 2.31411 7.98 2.43433 7.86C2.46439 7.83 2.48442 7.79 2.48442 7.75V7.21C2.48442 7.21 2.46439 7.13 2.43433 7.1L2.12377 6.79C2.12377 6.79 2.02358 6.75 1.97349 6.76C2.09371 6.51 2.21393 6.26 2.35419 6.03C2.72486 6.4 3.16566 6.84 3.30592 6.98C3.33597 7.01 3.35601 7.05 3.35601 7.09V7.29C3.35601 7.29 3.37604 7.37 3.4061 7.4C3.58643 7.58 4.27768 8.27 4.27768 8.27C4.27768 8.27 4.47805 8.07 4.56821 7.98C4.59827 7.95 4.6183 7.91 4.6183 7.87V7.38C4.6183 7.38 4.59827 7.3 4.56821 7.27C4.49808 7.2 4.38788 7.09 4.31776 7.02C4.2877 6.99 4.26766 6.95 4.26766 6.91V6.56C4.26766 6.56 4.24763 6.48 4.21757 6.45C4.04726 6.28 3.47623 5.71 3.30592 5.54C3.27586 5.51 3.23579 5.49 3.19572 5.49H2.69481C2.83506 5.28 2.97532 5.09 3.12559 4.89C3.14562 4.89 3.16566 4.91 3.1857 4.9C3.24581 4.88 3.28588 4.82 3.28588 4.76V4.69C3.5163 4.41 3.75674 4.14 4.00719 3.89V4.29C4.00719 4.29 4.02723 4.37 4.05728 4.4C4.27768 4.62 5.18934 5.53 5.39972 5.74C5.42978 5.77 5.44981 5.81 5.44981 5.85V7.72C5.44981 7.72 5.46985 7.8 5.49991 7.83L6.101 8.43C6.101 8.43 6.2112 8.49 6.27131 8.46C6.33142 8.44 6.37149 8.38 6.37149 8.32V8.05C6.37149 8.05 6.39153 7.97 6.42158 7.94C6.68205 7.68 7.9744 6.39 8.23488 6.13C8.26493 6.1 8.28497 6.06 8.28497 6.02V3.67C8.28497 3.67 8.30501 3.59 8.33506 3.56C8.44526 3.45 8.73579 3.16 8.84599 3.05C8.87604 3.02 8.89608 2.98 8.89608 2.94V2.31C8.89608 2.31 8.87604 2.23 8.84599 2.2C8.81593 2.17 8.77586 2.15 8.73579 2.15H8.31502C8.31502 2.15 8.23488 2.13 8.20482 2.1C8.17477 2.07 8.15473 2.03 8.15473 1.99V1.41C9.08643 1.13 10.0682 0.97 11.0901 0.97C14.1056 0.97 16.8105 2.32 18.6538 4.43C18.6238 4.43 18.5937 4.44 18.5737 4.47C18.3633 4.68 17.4717 5.57 17.2513 5.79C17.2212 5.82 17.1811 5.84 17.1411 5.84H16.1893C16.1893 5.84 16.1092 5.86 16.0791 5.89L15.0573 6.91C15.0573 6.91 14.9872 6.96 14.9471 6.96H13.4944C13.4944 6.96 13.4143 6.94 13.3842 6.91C13.274 6.8 12.9935 6.52 12.8833 6.41C12.8533 6.38 12.8132 6.36 12.7731 6.36H12.3123C12.3123 6.36 12.2321 6.38 12.2021 6.41L10.6994 7.91C10.6994 7.91 10.6493 7.98 10.6493 8.02V8.58C10.6493 8.58 10.6693 8.66 10.6994 8.69C10.8096 8.8 11.0901 9.08 11.2504 9.24C11.3105 9.3 11.4107 9.3 11.4708 9.24C11.5609 9.15 11.6711 9.04 11.7413 8.97C11.7713 8.94 11.7913 8.9 11.7913 8.86V8.14C11.7913 8.14 11.8114 8.06 11.8414 8.03C11.9316 7.94 12.142 7.73 12.1921 7.68C12.1921 7.68 12.2121 7.67 12.2221 7.67C12.2622 7.67 12.2923 7.69 12.3023 7.73C12.3123 7.76 12.3023 7.8 12.2822 7.83C12.2121 7.9 12.132 7.98 12.0919 8.03C12.0618 8.06 12.0418 8.1 12.0418 8.14V8.33C12.0418 8.33 12.0618 8.41 12.0919 8.44C12.1219 8.47 12.162 8.51 12.1921 8.54C12.2221 8.57 12.2422 8.61 12.2422 8.65V9.13C12.2422 9.13 12.2221 9.21 12.1921 9.24C12.1019 9.33 11.9216 9.51 11.8414 9.59C11.8114 9.62 11.7713 9.64 11.7312 9.64H10.8296C10.8296 9.64 10.7494 9.66 10.7194 9.69C10.5892 9.82 10.2085 10.2 10.0782 10.33C10.0482 10.36 10.0281 10.4 10.0281 10.44V10.84C10.0281 10.84 10.0081 10.92 9.97805 10.95C9.94799 10.98 9.90792 11 9.86785 11H9.55728C9.55728 11 9.47714 11.02 9.44708 11.05C9.41703 11.08 9.39699 11.12 9.39699 11.16V11.58C9.39699 11.58 9.41703 11.66 9.44708 11.69C9.47714 11.72 9.51721 11.74 9.55728 11.74H9.90792C9.90792 11.74 9.98807 11.72 10.0181 11.69C10.1584 11.55 10.5691 11.14 10.7094 11C10.7394 10.97 10.7795 10.95 10.8196 10.95H10.9899C10.9899 10.95 11.07 10.97 11.1001 11L11.4607 11.36C11.4607 11.36 11.5309 11.4 11.5709 11.38C11.611 11.36 11.6311 11.33 11.6311 11.29V11.27C11.591 11.23 11.3505 10.99 11.2904 10.93C11.2904 10.93 11.2804 10.91 11.2804 10.9C11.2804 10.86 11.3005 10.82 11.3405 10.81C11.3806 10.8 11.4207 10.81 11.4507 10.83C11.601 10.98 11.8114 11.19 11.9015 11.28C11.9316 11.31 11.9516 11.35 11.9516 11.39V11.74C11.9917 11.7 12.7631 10.93 12.9635 10.73C12.9935 10.7 13.0336 10.68 13.0737 10.68H13.3342C13.3342 10.68 13.4143 10.7 13.4444 10.73C13.5245 10.81 13.7048 10.99 13.775 11.06C13.795 11.08 13.805 11.11 13.805 11.14C13.805 11.18 13.795 11.21 13.7649 11.24C13.7349 11.27 13.7048 11.28 13.6648 11.28H12.8332C12.8332 11.28 12.7531 11.3 12.723 11.33C12.6429 11.41 12.4826 11.57 12.4726 11.58C12.4726 11.58 12.6429 11.75 12.723 11.83C12.7531 11.86 12.7932 11.88 12.8332 11.88H13.1137C13.2039 11.88 13.274 11.95 13.274 12.04V12.23C13.274 12.32 13.2039 12.39 13.1137 12.39H11.6511C11.6511 12.39 11.5709 12.37 11.5409 12.34C11.4607 12.26 11.2804 12.08 11.2003 12C11.1702 11.97 11.1301 11.95 11.0901 11.95H9.90792C9.90792 11.95 9.82777 11.97 9.79772 12C9.61739 12.18 8.93615 12.86 8.74581 13.05C8.71575 13.08 8.69572 13.12 8.69572 13.16V14.01C8.69572 14.01 8.71575 14.09 8.74581 14.12C8.86602 14.24 9.21666 14.59 9.33688 14.71C9.36694 14.74 9.40701 14.76 9.44708 14.76H10.8797C10.8797 14.76 10.9598 14.78 10.9899 14.81C11.0199 14.84 11.04 14.88 11.04 14.92V16.53C11.04 16.53 11.06 16.61 11.0901 16.64C11.1602 16.71 11.2904 16.84 11.3606 16.91C11.3906 16.94 11.4107 16.98 11.4107 17.02V17.92C11.4107 17.92 11.4307 18 11.4607 18.03L11.7312 18.3C11.7312 18.3 11.8014 18.35 11.8414 18.35H12.3824C12.3824 18.35 12.4626 18.33 12.4926 18.3L13.234 17.56C13.234 17.56 13.2841 17.49 13.2841 17.45V17.01C13.2841 17.01 13.3041 16.93 13.3342 16.9L13.7449 16.49C13.7449 16.49 13.795 16.42 13.795 16.38V15.5C13.795 15.5 13.815 15.42 13.8451 15.39L14.6265 14.61C14.6265 14.61 14.6766 14.54 14.6766 14.5V14.16C14.6766 14.16 14.6566 14.08 14.6265 14.05C14.5964 14.02 14.5564 14 14.5163 14H14.0054C14.0054 14 13.9252 13.98 13.8952 13.95C13.795 13.85 13.5646 13.62 13.4644 13.52C13.4343 13.49 13.4143 13.45 13.4143 13.41V13.23C13.4143 13.23 13.3943 13.15 13.3642 13.12C13.3241 13.08 13.254 13.01 13.2039 12.96C13.1739 12.93 13.1538 12.89 13.1538 12.85C13.1538 12.81 13.1739 12.77 13.2039 12.74C13.254 12.69 13.2941 12.65 13.2941 12.65C13.2941 12.65 13.5846 12.94 13.6948 13.05C13.7249 13.08 13.7449 13.12 13.7449 13.16V13.42C13.7449 13.42 13.7649 13.5 13.795 13.53C13.8651 13.6 14.0054 13.74 14.0755 13.81C14.1056 13.84 14.1456 13.86 14.1857 13.86H14.6866C14.6866 13.86 14.7668 13.84 14.7968 13.81C14.907 13.7 15.1675 13.44 15.3278 13.28C15.3879 13.22 15.3879 13.12 15.3278 13.06C15.3278 13.06 15.3278 13.06 15.3178 13.05C15.2877 13.02 15.2476 13 15.2076 13H14.8068C14.8068 13 14.7267 12.98 14.6966 12.95C14.6666 12.92 14.6265 12.88 14.5864 12.84C14.5464 12.8 14.5363 12.75 14.5564 12.7C14.5764 12.65 14.6165 12.62 14.6766 12.62H14.6866H14.6966C14.7167 12.64 14.7868 12.71 14.8369 12.76C14.8669 12.79 14.907 12.81 14.9471 12.81H15.2276C15.2276 12.81 15.3077 12.83 15.3378 12.86C15.3378 12.86 15.3478 12.87 15.3578 12.88C15.3879 12.91 15.428 12.93 15.468 12.93H15.979C15.979 12.93 16.0591 12.95 16.0892 12.98L16.6402 13.53C16.6402 13.53 16.6903 13.6 16.6903 13.64V13.84C16.6903 13.84 16.7103 13.92 16.7403 13.95C16.7403 13.95 16.7604 13.97 16.7704 13.97C16.8005 14 16.8205 14.04 16.8205 14.08V14.15C16.8205 14.15 16.8405 14.23 16.8706 14.26C16.8906 14.28 16.9207 14.31 16.9507 14.34C17.0108 14.4 17.111 14.4 17.1711 14.34C17.2012 14.31 17.2212 14.29 17.2513 14.26C17.2813 14.23 17.3014 14.19 17.3014 14.15V13.9C17.3014 13.9 17.3214 13.82 17.3515 13.79C17.4617 13.68 17.7321 13.41 17.8423 13.3C17.8724 13.27 17.9125 13.25 17.9525 13.25H18.203C18.203 13.25 18.2831 13.27 18.3132 13.3C18.4835 13.47 19.0946 14.08 19.3551 14.34C19.3852 14.37 19.4252 14.39 19.4653 14.39C19.5054 14.39 19.5454 14.37 19.5755 14.34C19.6356 14.28 19.7158 14.2 19.7859 14.13C19.8159 14.1 19.836 14.06 19.836 14.02C19.836 13.98 19.8159 13.94 19.7859 13.91C19.7258 13.85 19.6556 13.78 19.5955 13.72C19.5655 13.69 19.5454 13.65 19.5454 13.61C19.5454 13.57 19.5655 13.53 19.5955 13.5L19.856 13.24C19.856 13.24 19.9261 13.19 19.9662 13.19H20.3469C20.3469 13.19 20.427 13.17 20.4571 13.14L20.7977 12.8C20.7977 12.8 20.8478 12.73 20.8478 12.69V11.59C20.8478 11.5 20.9179 11.43 21.0081 11.43H21.0983C21.0983 11.43 21.1784 11.45 21.2085 11.47C21.1784 12.19 21.0682 12.89 20.8879 13.56H20.8578C20.8578 13.56 20.7977 13.59 20.7977 13.62V13.88C20.7977 13.88 20.7977 13.89 20.7977 13.9C20.7276 14.14 20.6374 14.37 20.5473 14.6C20.5473 14.6 20.5473 14.6 20.5272 14.6C20.5072 14.6 20.4972 14.6 20.4872 14.62C20.387 14.72 20.1465 14.96 20.0764 15.03C20.0664 15.04 20.0464 15.05 20.0363 15.05H19.9061C19.9061 15.05 19.876 15.05 19.866 15.07C19.856 15.09 19.846 15.1 19.846 15.11V15.24C19.846 15.24 19.846 15.27 19.866 15.28C19.9061 15.32 20.0163 15.43 20.0664 15.48C20.0764 15.49 20.0964 15.5 20.1065 15.5H20.1566C18.5035 18.75 15.1274 20.99 11.2303 20.99L11.0199 21ZM14.366 11.23C14.366 11.23 14.2658 11.13 14.2258 11.09C14.1957 11.06 14.1757 11.02 14.1757 10.98V10.92C14.1757 10.92 14.1957 10.84 14.2258 10.81C14.2759 10.76 14.366 10.67 14.4161 10.62C14.4462 10.59 14.4862 10.57 14.5263 10.57H14.5764C14.5764 10.57 14.6465 10.58 14.6766 10.61C14.7066 10.64 14.7167 10.67 14.7167 10.71V10.73C14.7167 10.73 14.7167 10.75 14.7066 10.76L14.6265 10.84C14.5664 10.9 14.5664 11 14.6265 11.06C14.6666 11.1 14.7167 11.15 14.7467 11.18C14.7768 11.21 14.7968 11.25 14.7968 11.29V11.63C14.7968 11.63 14.7768 11.71 14.7567 11.73C14.7267 11.76 14.6966 11.77 14.6566 11.77H14.6265C14.6265 11.77 14.5964 11.77 14.5864 11.75L14.4662 11.63C14.4662 11.63 14.4161 11.56 14.4161 11.52V11.33C14.4161 11.33 14.3961 11.25 14.366 11.22V11.23Z" fill="#fff"/>
<path d="M9.70758 9.46002C9.70758 9.46002 9.75767 9.53002 9.75767 9.57002V9.75002C9.75767 9.75002 9.73763 9.83002 9.70758 9.86002C9.67752 9.89002 9.64747 9.92003 9.63745 9.93003C9.63745 9.93003 9.63745 9.93002 9.63745 9.94002C9.63745 10 9.6675 10.04 9.70758 10.06C9.74765 10.08 9.79774 10.06 9.8278 10.04C9.83781 10.03 9.84783 10.02 9.86787 10.02H10.0181C10.0181 10.02 10.0983 10 10.1283 9.97003C10.1584 9.94003 10.1784 9.90002 10.1784 9.86002V9.78002C10.1784 9.78002 10.1584 9.70002 10.1283 9.67002C10.0883 9.63002 10.0382 9.58002 9.9981 9.54002C9.96805 9.51002 9.94801 9.47003 9.94801 9.43003V9.21002C9.94801 9.12002 9.87789 9.05002 9.78772 9.05002H9.75767V8.99002C9.75767 8.99002 9.71759 8.90002 9.6675 8.90002C9.60739 8.90002 9.56732 8.95002 9.56732 9.00002V9.24002C9.56732 9.24002 9.58736 9.32003 9.61741 9.35003C9.64747 9.38003 9.68754 9.42002 9.71759 9.45002L9.70758 9.46002Z" fill="#fff"/>
<path d="M9.29665 9.96995C9.29665 9.96995 9.36665 9.95995 9.38665 9.92995L9.48666 9.82995C9.48666 9.82995 9.53666 9.75995 9.53666 9.71995V9.57995C9.53666 9.57995 9.52665 9.50995 9.49665 9.48995C9.47665 9.46995 9.43666 9.44995 9.40666 9.44995H9.38665H9.36666C9.34666 9.46995 9.28665 9.52995 9.24665 9.56995C9.21665 9.59995 9.19666 9.63995 9.19666 9.67995V9.88995C9.19666 9.88995 9.19665 9.91995 9.20665 9.91995C9.22665 9.93995 9.26665 9.95995 9.29665 9.95995V9.96995Z" fill="#fff"/>
<path d="M19.3251 15.43L18.6739 14.78C18.6739 14.78 18.6438 14.76 18.6338 14.76H18.5336C18.5336 14.76 18.4835 14.78 18.4735 14.8C18.4735 14.82 18.4735 14.85 18.4835 14.87C18.6138 15 18.8141 15.2 18.8742 15.26C18.8843 15.27 18.8943 15.29 18.8943 15.3V15.4C18.8943 15.4 18.8943 15.43 18.9143 15.44L19.1347 15.66C19.1347 15.66 19.1648 15.68 19.1748 15.68H19.2649C19.2649 15.68 19.295 15.68 19.305 15.66C19.315 15.64 19.3251 15.63 19.3251 15.62C19.3251 15.57 19.3251 15.5 19.3251 15.46C19.3251 15.44 19.3251 15.43 19.305 15.42L19.3251 15.43Z" fill="#fff"/>
<path d="M14.3252 16.49C14.2652 16.47 14.1952 16.48 14.1552 16.52C14.0752 16.6 13.9952 16.68 13.9452 16.73C13.9152 16.76 13.8952 16.8 13.8952 16.84V17.32C13.8952 17.32 13.8952 17.36 13.9152 17.37L13.9352 17.39C13.9652 17.42 14.0052 17.44 14.0452 17.44C14.0852 17.44 14.1252 17.42 14.1552 17.39C14.1852 17.36 14.2152 17.33 14.2352 17.31C14.2652 17.28 14.2852 17.24 14.2852 17.2V17.11C14.2852 17.11 14.3052 17.03 14.3352 17C14.3452 16.99 14.3652 16.97 14.3752 16.96C14.4052 16.93 14.4252 16.89 14.4252 16.85V16.63C14.4252 16.57 14.3852 16.51 14.3252 16.49Z" fill="#fff"/>
</svg>
