<svg width="20" height="20" viewBox="0 0 20 20" fill="none" xmlns="http://www.w3.org/2000/svg">
<mask id="mask0_901_4596" style="mask-type:alpha" maskUnits="userSpaceOnUse" x="0" y="0" width="20" height="20">
<rect width="20" height="20" fill="#D9D9D9"/>
</mask>
<g mask="url(#mask0_901_4596)">
<path d="M1.875 17.7002V16.4423C2.37069 16.3995 2.73903 16.254 2.98 16.0057C3.22097 15.7572 3.71375 15.633 4.45833 15.633C5.22972 15.633 5.74576 15.7718 6.00646 16.0496C6.26715 16.3274 6.67472 16.4663 7.22917 16.4663C7.78361 16.4663 8.19118 16.3274 8.45187 16.0496C8.71257 15.7718 9.22861 15.633 10 15.633C10.7489 15.633 11.2684 15.7718 11.5585 16.0496C11.8485 16.3274 12.2596 16.4663 12.7917 16.4663C13.3461 16.4663 13.7537 16.3274 14.0144 16.0496C14.2751 15.7718 14.7911 15.633 15.5625 15.633C16.3071 15.633 16.7964 15.7572 17.0304 16.0057C17.2644 16.254 17.6293 16.3995 18.125 16.4423V17.7002C17.4583 17.6683 16.9931 17.5241 16.7292 17.2675C16.4653 17.0111 16.0764 16.883 15.5625 16.883C15.0219 16.883 14.6144 17.0218 14.3398 17.2996C14.0652 17.5774 13.5492 17.7163 12.7917 17.7163C12.0342 17.7163 11.5147 17.5774 11.2331 17.2996C10.9516 17.0218 10.5406 16.883 10 16.883C9.44556 16.883 9.03799 17.0218 8.77729 17.2996C8.5166 17.5774 8.00056 17.7163 7.22917 17.7163C6.45778 17.7163 5.94174 17.5774 5.68104 17.2996C5.42035 17.0218 5.01278 16.883 4.45833 16.883C3.94444 16.883 3.55556 17.0111 3.29167 17.2675C3.02778 17.5241 2.55556 17.6683 1.875 17.7002ZM7.22917 14.375C6.48556 14.375 5.97083 14.2361 5.685 13.9584C5.39931 13.6806 4.99042 13.5417 4.45833 13.5417C3.97222 13.5417 3.58465 13.6699 3.29562 13.9263C3.0066 14.1827 2.53306 14.3269 1.875 14.359V13.1011C2.37069 13.0583 2.73687 12.9127 2.97354 12.6644C3.21021 12.4159 3.70083 12.2917 4.44542 12.2917C4.60889 12.2917 4.76437 12.3085 4.91188 12.3421C5.05938 12.3759 5.23993 12.4477 5.45354 12.5577L4.45354 8.82378L3.24354 10.3717L2.25958 9.59462L8.27396 2.16357L17.1971 5.57378L16.7452 6.74358L14.9231 6.0192L16.6667 12.5304C16.9092 12.6042 17.1415 12.7097 17.3637 12.8469C17.586 12.9843 17.8397 13.069 18.125 13.1011V14.3511C17.4669 14.3104 17.0017 14.1653 16.7292 13.9159C16.4567 13.6664 16.0678 13.5417 15.5625 13.5417C15.0081 13.5417 14.6005 13.6806 14.3398 13.9584C14.0791 14.2361 13.5631 14.375 12.7917 14.375C12.0428 14.375 11.5233 14.2361 11.2331 13.9584C10.9431 13.6806 10.5321 13.5417 10 13.5417C9.44556 13.5417 9.03799 13.6806 8.77729 13.9584C8.5166 14.2361 8.00056 14.375 7.22917 14.375ZM7.22917 13.125C7.6725 13.125 8.0141 13.0265 8.25396 12.8294C8.49382 12.6323 8.84451 12.4782 9.30604 12.3671L8.47917 9.33337L11.7083 8.4792L12.931 13.1042C13.383 13.0711 13.734 12.9386 13.984 12.7067C14.234 12.4749 14.672 12.3409 15.2981 12.3046L13.4662 5.44878L8.67958 3.6667L5.42458 7.60733L6.90229 13.0915C6.95785 13.1054 7.01285 13.1144 7.06729 13.1186C7.12174 13.1229 7.17569 13.125 7.22917 13.125Z" fill="#fff"/>
</g>
</svg>
