<svg width="32" height="32" viewBox="0 0 32 32" fill="none" xmlns="http://www.w3.org/2000/svg">
<mask id="mask0_901_4803" style="mask-type:alpha" maskUnits="userSpaceOnUse" x="0" y="0" width="32" height="32">
<rect width="32" height="32" fill="#D9D9D9"/>
</mask>
<g mask="url(#mask0_901_4803)">
<path fill-rule="evenodd" clip-rule="evenodd" d="M26.394 26.6667L22.6325 10.3669C22.553 10.0223 22.3398 9.72342 22.04 9.536L17.3333 6.59434V4H14.6666V6.59434L9.95996 9.536C9.66009 9.72342 9.44695 10.0223 9.36744 10.3669L5.60594 26.6667H2.66663V29.3333H6.6398C6.65852 29.3337 6.67719 29.3337 6.6958 29.3333H25.3041C25.3227 29.3337 25.3414 29.3337 25.3601 29.3333H29.3333V26.6667H26.394ZM17.3333 25.7239L22.2947 20.7624L21.8983 19.0445L17.3333 23.6095V25.7239ZM18.2761 26.6667H23.6572L22.6483 22.2945L18.2761 26.6667ZM17.3333 19.6095V21.7239L21.5447 17.5124L21.1483 15.7945L17.3333 19.6095ZM20.7947 14.2624L17.3333 17.7239V15.6095L20.3983 12.5445L20.7947 14.2624ZM19.7855 11.2716L17.3333 13.7239V9.739L19.7855 11.2716ZM8.34269 26.6667H14.6666L14.6666 9.739L11.8416 11.5046L8.34269 26.6667Z" fill="white"/>
</g>
</svg>
