<svg width="24" height="24" viewBox="0 0 24 24" fill="none" xmlns="http://www.w3.org/2000/svg">
<mask id="mask0_2226_5874" style="mask-type:alpha" maskUnits="userSpaceOnUse" x="0" y="0" width="24" height="24">
<rect y="3.05176e-05" width="24" height="24" fill="#D9D9D9"/>
</mask>
<g mask="url(#mask0_2226_5874)">
<path d="M8 14C7.71667 14 7.47917 13.9042 7.2875 13.7125C7.09583 13.5209 7 13.2834 7 13C7 12.7167 7.09583 12.4792 7.2875 12.2875C7.47917 12.0959 7.71667 12 8 12C8.28333 12 8.52083 12.0959 8.7125 12.2875C8.90417 12.4792 9 12.7167 9 13C9 13.2834 8.90417 13.5209 8.7125 13.7125C8.52083 13.9042 8.28333 14 8 14ZM12 14C11.7167 14 11.4792 13.9042 11.2875 13.7125C11.0958 13.5209 11 13.2834 11 13C11 12.7167 11.0958 12.4792 11.2875 12.2875C11.4792 12.0959 11.7167 12 12 12C12.2833 12 12.5208 12.0959 12.7125 12.2875C12.9042 12.4792 13 12.7167 13 13C13 13.2834 12.9042 13.5209 12.7125 13.7125C12.5208 13.9042 12.2833 14 12 14ZM16 14C15.7167 14 15.4792 13.9042 15.2875 13.7125C15.0958 13.5209 15 13.2834 15 13C15 12.7167 15.0958 12.4792 15.2875 12.2875C15.4792 12.0959 15.7167 12 16 12C16.2833 12 16.5208 12.0959 16.7125 12.2875C16.9042 12.4792 17 12.7167 17 13C17 13.2834 16.9042 13.5209 16.7125 13.7125C16.5208 13.9042 16.2833 14 16 14ZM5 22C4.45 22 3.97917 21.8042 3.5875 21.4125C3.19583 21.0209 3 20.55 3 20V6.00003C3 5.45003 3.19583 4.9792 3.5875 4.58753C3.97917 4.19586 4.45 4.00003 5 4.00003H6V3.00003C6 2.7167 6.09583 2.4792 6.2875 2.28753C6.47917 2.09586 6.71667 2.00003 7 2.00003C7.28333 2.00003 7.52083 2.09586 7.7125 2.28753C7.90417 2.4792 8 2.7167 8 3.00003V4.00003H16V3.00003C16 2.7167 16.0958 2.4792 16.2875 2.28753C16.4792 2.09586 16.7167 2.00003 17 2.00003C17.2833 2.00003 17.5208 2.09586 17.7125 2.28753C17.9042 2.4792 18 2.7167 18 3.00003V4.00003H19C19.55 4.00003 20.0208 4.19586 20.4125 4.58753C20.8042 4.9792 21 5.45003 21 6.00003V20C21 20.55 20.8042 21.0209 20.4125 21.4125C20.0208 21.8042 19.55 22 19 22H5ZM5 20H19V10H5V20ZM5 8.00003H19V6.00003H5V8.00003Z" fill="#1C1B1F"/>
</g>
</svg>
