<svg width="12" height="15" viewBox="0 0 12 15" fill="none" xmlns="http://www.w3.org/2000/svg">
<path d="M6 7.5C6.4125 7.5 6.765 7.35 7.0575 7.0575C7.35 6.765 7.5 6.4125 7.5 6C7.5 5.5875 7.35 5.235 7.0575 4.9425C6.765 4.65 6.4125 4.5 6 4.5C5.5875 4.5 5.235 4.65 4.9425 4.9425C4.65 5.235 4.5 5.5875 4.5 6C4.5 6.4125 4.65 6.765 4.9425 7.0575C5.235 7.35 5.5875 7.5 6 7.5ZM6 15C3.99 13.29 2.4825 11.7 1.4925 10.23C0.5025 8.76 0 7.4025 0 6.15C0 4.275 0.6 2.7825 1.8075 1.6725C3.015 0.555 4.41 0 6 0C7.59 0 8.985 0.555 10.1925 1.6725C11.4 2.79 12 4.2825 12 6.1575C12 7.41 11.505 8.7675 10.5075 10.2375C9.51 11.7075 8.01 13.2975 6 15.0075V15Z" fill="#FF1F00"/>
</svg>
