<svg width="148" height="36" viewBox="0 0 148 36" fill="none" xmlns="http://www.w3.org/2000/svg">
<path d="M27.7148 17.1345C24.5962 15.0114 20.6055 15.8748 18.5088 19.0638C16.7557 21.7243 14.1129 22.059 13.091 22.059C9.75214 22.059 7.47048 19.7157 6.79214 17.2843C6.78333 17.2579 6.78333 17.2402 6.77452 17.2138C6.76571 17.1874 6.7569 17.161 6.7569 17.1345C6.49262 16.1214 6.42214 15.6369 6.42214 14.5621C6.42214 8.75667 12.3774 2.29048 20.9579 2.29048C29.741 2.29048 34.7712 8.97691 36.0662 12.6945C36.0398 12.6329 36.0221 12.5624 36.0045 12.5007C33.5114 5.23286 26.6136 0 18.5 0C8.28976 0 0 8.28095 0 18.5C0 27.6355 6.58952 35.4495 15.725 35.4495C23.0105 35.4495 27.9086 31.3619 30.155 25.7326C31.3883 22.6581 30.5162 19.0374 27.7148 17.1345Z" fill="#003668"/>
<path d="M36.1895 13.0557C35.106 9.42619 30.0405 2.29048 20.9667 2.29048C12.3862 2.29048 6.43095 8.75667 6.43095 14.5621C6.43095 15.6369 6.49262 16.1214 6.76571 17.1345C6.65119 16.694 6.59833 16.2448 6.59833 15.8131C6.59833 9.76976 12.6505 5.57643 18.8788 5.57643C27.3007 5.57643 34.1369 12.4038 34.1369 20.8257C34.1369 27.4329 30.34 33.1502 24.8164 35.89C31.9169 33.3264 37 26.5079 37 18.5C37 16.606 36.7445 14.941 36.1895 13.0557Z" fill="#E6002D"/>
<path d="M51.902 13.734H50.39V5.25H45.714V3.892H51.902V13.734ZM54.954 3.136H56.466V15.33H54.954V3.136ZM61.8715 3.066L65.6235 8.456L64.4195 9.282L61.8715 5.586L59.3515 9.38L58.1195 8.554L61.8715 3.066ZM68.4375 9.604H66.9255V3.136H68.4375V5.502H70.1875V7H68.4375V9.604ZM67.8215 12.74C67.8215 13.1507 67.7375 13.538 67.5695 13.902C67.4015 14.2567 67.1775 14.5693 66.8975 14.84C66.6082 15.1107 66.2675 15.3253 65.8755 15.484C65.4929 15.6427 65.0869 15.722 64.6575 15.722C64.2282 15.722 63.8175 15.6427 63.4255 15.484C63.0335 15.3253 62.6929 15.1107 62.4035 14.84C62.1235 14.5693 61.8995 14.2567 61.7315 13.902C61.5635 13.538 61.4795 13.1507 61.4795 12.74C61.4795 12.3293 61.5635 11.942 61.7315 11.578C61.8995 11.214 62.1235 10.8967 62.4035 10.626C62.6929 10.3553 63.0335 10.1407 63.4255 9.982C63.8175 9.82333 64.2282 9.744 64.6575 9.744C65.0869 9.744 65.4929 9.82333 65.8755 9.982C66.2675 10.1407 66.6082 10.3553 66.8975 10.626C67.1775 10.8967 67.4015 11.214 67.5695 11.578C67.7375 11.942 67.8215 12.3293 67.8215 12.74ZM66.3375 12.726C66.3375 12.2687 66.1695 11.8767 65.8335 11.55C65.4975 11.214 65.1009 11.046 64.6435 11.046C64.1862 11.046 63.7895 11.214 63.4535 11.55C63.1269 11.8767 62.9635 12.2687 62.9635 12.726C62.9635 13.1833 63.1269 13.5753 63.4535 13.902C63.7895 14.2287 64.1862 14.392 64.6435 14.392C65.1009 14.392 65.4975 14.2287 65.8335 13.902C66.1695 13.5753 66.3375 13.1833 66.3375 12.726ZM71.2391 5.46V4.186H74.0951V2.996H75.7051V4.186H78.4211V5.46H75.4811L78.5331 8.568L77.5251 9.506L74.8931 6.776L72.3031 9.73L71.2671 8.764L74.3191 5.46H71.2391ZM80.4931 9.954V7.182H78.3651V5.88H80.4931V3.136H82.0051V9.954H80.4931ZM80.9691 12.74C80.9691 13.1507 80.8851 13.538 80.7171 13.902C80.5491 14.2567 80.3251 14.5693 80.0451 14.84C79.7557 15.1107 79.4151 15.3253 79.0231 15.484C78.6404 15.6427 78.2344 15.722 77.8051 15.722C77.3757 15.722 76.9651 15.6427 76.5731 15.484C76.1811 15.3253 75.8404 15.1107 75.5511 14.84C75.2711 14.5693 75.0471 14.2567 74.8791 13.902C74.7111 13.538 74.6271 13.1507 74.6271 12.74C74.6271 12.3293 74.7111 11.942 74.8791 11.578C75.0471 11.214 75.2711 10.8967 75.5511 10.626C75.8404 10.3553 76.1811 10.1407 76.5731 9.982C76.9651 9.82333 77.3757 9.744 77.8051 9.744C78.2344 9.744 78.6404 9.82333 79.0231 9.982C79.4151 10.1407 79.7557 10.3553 80.0451 10.626C80.3251 10.8967 80.5491 11.214 80.7171 11.578C80.8851 11.942 80.9691 12.3293 80.9691 12.74ZM79.4851 12.726C79.4851 12.2687 79.3171 11.8767 78.9811 11.55C78.6451 11.214 78.2484 11.046 77.7911 11.046C77.3337 11.046 76.9371 11.214 76.6011 11.55C76.2744 11.8767 76.1111 12.2687 76.1111 12.726C76.1111 13.1833 76.2744 13.5753 76.6011 13.902C76.9371 14.2287 77.3337 14.392 77.7911 14.392C78.2484 14.392 78.6451 14.2287 78.9811 13.902C79.3171 13.5753 79.4851 13.1833 79.4851 12.726ZM51.902 30.734H50.39V22.25H45.714V20.892H51.902V30.734ZM54.954 20.136H56.466V32.33H54.954V20.136ZM61.8715 20.066L65.6235 25.456L64.4195 26.282L61.8715 22.586L59.3515 26.38L58.1195 25.554L61.8715 20.066ZM68.4375 26.604H66.9255V20.136H68.4375V22.502H70.1875V24H68.4375V26.604ZM67.8215 29.74C67.8215 30.1507 67.7375 30.538 67.5695 30.902C67.4015 31.2567 67.1775 31.5693 66.8975 31.84C66.6082 32.1107 66.2675 32.3253 65.8755 32.484C65.4929 32.6427 65.0869 32.722 64.6575 32.722C64.2282 32.722 63.8175 32.6427 63.4255 32.484C63.0335 32.3253 62.6929 32.1107 62.4035 31.84C62.1235 31.5693 61.8995 31.2567 61.7315 30.902C61.5635 30.538 61.4795 30.1507 61.4795 29.74C61.4795 29.3293 61.5635 28.942 61.7315 28.578C61.8995 28.214 62.1235 27.8967 62.4035 27.626C62.6929 27.3553 63.0335 27.1407 63.4255 26.982C63.8175 26.8233 64.2282 26.744 64.6575 26.744C65.0869 26.744 65.4929 26.8233 65.8755 26.982C66.2675 27.1407 66.6082 27.3553 66.8975 27.626C67.1775 27.8967 67.4015 28.214 67.5695 28.578C67.7375 28.942 67.8215 29.3293 67.8215 29.74ZM66.3375 29.726C66.3375 29.2687 66.1695 28.8767 65.8335 28.55C65.4975 28.214 65.1009 28.046 64.6435 28.046C64.1862 28.046 63.7895 28.214 63.4535 28.55C63.1269 28.8767 62.9635 29.2687 62.9635 29.726C62.9635 30.1833 63.1269 30.5753 63.4535 30.902C63.7895 31.2287 64.1862 31.392 64.6435 31.392C65.1009 31.392 65.4975 31.2287 65.8335 30.902C66.1695 30.5753 66.3375 30.1833 66.3375 29.726ZM70.9311 22.222V20.892H78.2671V22.222H75.2011L78.5611 30.202L77.2311 30.776L74.6691 24.546L72.1211 30.874L70.7351 30.286L74.1091 22.222H70.9311ZM81.2071 32.33H79.6951V20.136H81.2071V24.84H82.9571V26.352H81.2071V32.33ZM84.9886 20.738H94.3966V24.938H86.5006V26.562H94.4246V27.878H92.5906V30.09H95.2926V31.434H84.0926V30.09H86.7946V27.878H84.9886V23.65H92.8846V22.054H84.9886V20.738ZM91.0926 27.878H88.2926V30.09H91.0926V27.878ZM101.916 30.734H100.46V22.25H96.7361V20.892H101.916V30.734ZM106.34 20.136H107.796V32.33H106.34V26.45H104.94V32.26H103.526V20.15H104.94V25.148H106.34V20.136ZM114.56 23.272H111.186V25.05H114.56V23.272ZM116.03 26.31H109.688V20.402H111.186V21.998H114.56V20.402H116.03V26.31ZM119.516 26.604H118.004V20.136H119.516V22.53H121.266V24.028H119.516V26.604ZM118.9 29.74C118.9 30.1507 118.816 30.538 118.648 30.902C118.48 31.2567 118.256 31.5693 117.976 31.84C117.686 32.1107 117.346 32.3253 116.954 32.484C116.571 32.6427 116.165 32.722 115.736 32.722C115.306 32.722 114.896 32.6427 114.504 32.484C114.112 32.3253 113.771 32.1107 113.482 31.84C113.202 31.5693 112.978 31.2567 112.81 30.902C112.642 30.538 112.558 30.1507 112.558 29.74C112.558 29.3293 112.642 28.942 112.81 28.578C112.978 28.214 113.202 27.8967 113.482 27.626C113.771 27.3553 114.112 27.1407 114.504 26.982C114.896 26.8233 115.306 26.744 115.736 26.744C116.165 26.744 116.571 26.8233 116.954 26.982C117.346 27.1407 117.686 27.3553 117.976 27.626C118.256 27.8967 118.48 28.214 118.648 28.578C118.816 28.942 118.9 29.3293 118.9 29.74ZM117.416 29.726C117.416 29.2687 117.248 28.8767 116.912 28.55C116.576 28.214 116.179 28.046 115.722 28.046C115.264 28.046 114.868 28.214 114.532 28.55C114.205 28.8767 114.042 29.2687 114.042 29.726C114.042 30.1833 114.205 30.5753 114.532 30.902C114.868 31.2287 115.264 31.392 115.722 31.392C116.179 31.392 116.576 31.2287 116.912 30.902C117.248 30.5753 117.416 30.1833 117.416 29.726ZM123.157 20.766H132.845V22.096H131.235V25.96H132.845V27.276H128.757V30.09H133.601V31.434H122.401V30.09H127.231V27.276H123.157V25.96H124.767V22.096H123.157V20.766ZM129.765 22.096H126.237V25.96H129.765V22.096ZM142.199 24.826V25.988H135.619V20.486H142.059V21.69H137.117V22.67H141.611V23.79H137.117V24.826H142.199ZM144.341 20.136H145.853V26.24H144.341V24H142.451V22.67H144.341V20.136ZM136.277 26.842H145.853V29.992H137.789V30.86H145.993V32.092H136.277V28.858H144.341V28.032H136.277V26.842Z" fill="#1E222F"/>
</svg>
