<svg width="122" height="36" viewBox="0 0 122 36" fill="none" xmlns="http://www.w3.org/2000/svg">
<path d="M27.7148 17.1345C24.5962 15.0114 20.6055 15.8748 18.5088 19.0638C16.7557 21.7243 14.1129 22.059 13.091 22.059C9.75214 22.059 7.47048 19.7157 6.79214 17.2843C6.78333 17.2579 6.78333 17.2402 6.77452 17.2138C6.76571 17.1874 6.7569 17.161 6.7569 17.1345C6.49262 16.1214 6.42214 15.6369 6.42214 14.5621C6.42214 8.75667 12.3774 2.29048 20.9579 2.29048C29.741 2.29048 34.7712 8.97691 36.0662 12.6945C36.0398 12.6329 36.0221 12.5624 36.0045 12.5007C33.5114 5.23286 26.6136 0 18.5 0C8.28976 0 0 8.28095 0 18.5C0 27.6355 6.58952 35.4495 15.725 35.4495C23.0105 35.4495 27.9086 31.3619 30.155 25.7326C31.3883 22.6581 30.5162 19.0374 27.7148 17.1345Z" fill="#003668"/>
<path d="M36.1895 13.0557C35.106 9.42619 30.0405 2.29048 20.9667 2.29048C12.3862 2.29048 6.43095 8.75667 6.43095 14.5621C6.43095 15.6369 6.49262 16.1214 6.76571 17.1345C6.65119 16.694 6.59833 16.2448 6.59833 15.8131C6.59833 9.76976 12.6505 5.57643 18.8788 5.57643C27.3007 5.57643 34.1369 12.4038 34.1369 20.8257C34.1369 27.4329 30.34 33.1502 24.8164 35.89C31.9169 33.3264 37 26.5079 37 18.5C37 16.606 36.7445 14.941 36.1895 13.0557Z" fill="#E6002D"/>
<path d="M51.902 13.734H50.39V5.25H45.714V3.892H51.902V13.734ZM54.954 3.136H56.466V15.33H54.954V3.136ZM61.8715 3.066L65.6235 8.456L64.4195 9.282L61.8715 5.586L59.3515 9.38L58.1195 8.554L61.8715 3.066ZM68.4375 9.604H66.9255V3.136H68.4375V5.502H70.1875V7H68.4375V9.604ZM67.8215 12.74C67.8215 13.1507 67.7375 13.538 67.5695 13.902C67.4015 14.2567 67.1775 14.5693 66.8975 14.84C66.6082 15.1107 66.2675 15.3253 65.8755 15.484C65.4929 15.6427 65.0869 15.722 64.6575 15.722C64.2282 15.722 63.8175 15.6427 63.4255 15.484C63.0335 15.3253 62.6929 15.1107 62.4035 14.84C62.1235 14.5693 61.8995 14.2567 61.7315 13.902C61.5635 13.538 61.4795 13.1507 61.4795 12.74C61.4795 12.3293 61.5635 11.942 61.7315 11.578C61.8995 11.214 62.1235 10.8967 62.4035 10.626C62.6929 10.3553 63.0335 10.1407 63.4255 9.982C63.8175 9.82333 64.2282 9.744 64.6575 9.744C65.0869 9.744 65.4929 9.82333 65.8755 9.982C66.2675 10.1407 66.6082 10.3553 66.8975 10.626C67.1775 10.8967 67.4015 11.214 67.5695 11.578C67.7375 11.942 67.8215 12.3293 67.8215 12.74ZM66.3375 12.726C66.3375 12.2687 66.1695 11.8767 65.8335 11.55C65.4975 11.214 65.1009 11.046 64.6435 11.046C64.1862 11.046 63.7895 11.214 63.4535 11.55C63.1269 11.8767 62.9635 12.2687 62.9635 12.726C62.9635 13.1833 63.1269 13.5753 63.4535 13.902C63.7895 14.2287 64.1862 14.392 64.6435 14.392C65.1009 14.392 65.4975 14.2287 65.8335 13.902C66.1695 13.5753 66.3375 13.1833 66.3375 12.726ZM71.2391 5.46V4.186H74.0951V2.996H75.7051V4.186H78.4211V5.46H75.4811L78.5331 8.568L77.5251 9.506L74.8931 6.776L72.3031 9.73L71.2671 8.764L74.3191 5.46H71.2391ZM80.4931 9.954V7.182H78.3651V5.88H80.4931V3.136H82.0051V9.954H80.4931ZM80.9691 12.74C80.9691 13.1507 80.8851 13.538 80.7171 13.902C80.5491 14.2567 80.3251 14.5693 80.0451 14.84C79.7557 15.1107 79.4151 15.3253 79.0231 15.484C78.6404 15.6427 78.2344 15.722 77.8051 15.722C77.3757 15.722 76.9651 15.6427 76.5731 15.484C76.1811 15.3253 75.8404 15.1107 75.5511 14.84C75.2711 14.5693 75.0471 14.2567 74.8791 13.902C74.7111 13.538 74.6271 13.1507 74.6271 12.74C74.6271 12.3293 74.7111 11.942 74.8791 11.578C75.0471 11.214 75.2711 10.8967 75.5511 10.626C75.8404 10.3553 76.1811 10.1407 76.5731 9.982C76.9651 9.82333 77.3757 9.744 77.8051 9.744C78.2344 9.744 78.6404 9.82333 79.0231 9.982C79.4151 10.1407 79.7557 10.3553 80.0451 10.626C80.3251 10.8967 80.5491 11.214 80.7171 11.578C80.8851 11.942 80.9691 12.3293 80.9691 12.74ZM79.4851 12.726C79.4851 12.2687 79.3171 11.8767 78.9811 11.55C78.6451 11.214 78.2484 11.046 77.7911 11.046C77.3337 11.046 76.9371 11.214 76.6011 11.55C76.2744 11.8767 76.1111 12.2687 76.1111 12.726C76.1111 13.1833 76.2744 13.5753 76.6011 13.902C76.9371 14.2287 77.3337 14.392 77.7911 14.392C78.2484 14.392 78.6451 14.2287 78.9811 13.902C79.3171 13.5753 79.4851 13.1833 79.4851 12.726ZM51.902 30.734H50.39V22.25H45.714V20.892H51.902V30.734ZM54.954 20.136H56.466V32.33H54.954V20.136ZM68.9695 21.284V22.586H66.5755C67.0422 23.1367 67.2755 23.7387 67.2755 24.392C67.2755 24.784 67.1915 25.1573 67.0235 25.512C66.8555 25.8667 66.6315 26.1747 66.3515 26.436C66.0715 26.6973 65.7402 26.9073 65.3575 27.066C64.9842 27.2153 64.5829 27.29 64.1535 27.29C63.7242 27.29 63.3182 27.2153 62.9355 27.066C62.5622 26.9073 62.2355 26.6973 61.9555 26.436C61.6755 26.1747 61.4515 25.8667 61.2835 25.512C61.1155 25.1573 61.0315 24.784 61.0315 24.392C61.0315 23.7293 61.2649 23.1273 61.7315 22.586H59.3375V21.284H63.3275V19.94H64.9655V21.284H68.9695ZM65.7915 24.392C65.7915 23.944 65.6282 23.5613 65.3015 23.244C64.9842 22.9267 64.6015 22.768 64.1535 22.768C63.7055 22.768 63.3182 22.9267 62.9915 23.244C62.6742 23.5613 62.5155 23.944 62.5155 24.392C62.5155 24.84 62.6742 25.2227 62.9915 25.54C63.3182 25.8573 63.7055 26.016 64.1535 26.016C64.6015 26.016 64.9842 25.8573 65.3015 25.54C65.6282 25.2227 65.7915 24.84 65.7915 24.392ZM58.5535 29.6V28.27H69.7535V29.6H64.9095V32.33H63.3835V29.6H58.5535ZM71.2811 21.788V20.486H78.2811V21.788H75.2991L78.4071 25.582L77.3431 26.45L74.8511 23.342L72.3731 26.66L71.2671 25.764L74.3611 21.788H71.2811ZM80.4931 26.604V23.958H78.2251V22.656H80.4931V20.136H82.0051V26.604H80.4931ZM80.9691 29.74C80.9691 30.1507 80.8851 30.538 80.7171 30.902C80.5491 31.2567 80.3251 31.5693 80.0451 31.84C79.7557 32.1107 79.4151 32.3253 79.0231 32.484C78.6404 32.6427 78.2344 32.722 77.8051 32.722C77.3757 32.722 76.9651 32.6427 76.5731 32.484C76.1811 32.3253 75.8404 32.1107 75.5511 31.84C75.2711 31.5693 75.0471 31.2567 74.8791 30.902C74.7111 30.538 74.6271 30.1507 74.6271 29.74C74.6271 29.3293 74.7111 28.942 74.8791 28.578C75.0471 28.214 75.2711 27.8967 75.5511 27.626C75.8404 27.3553 76.1811 27.1407 76.5731 26.982C76.9651 26.8233 77.3757 26.744 77.8051 26.744C78.2344 26.744 78.6404 26.8233 79.0231 26.982C79.4151 27.1407 79.7557 27.3553 80.0451 27.626C80.3251 27.8967 80.5491 28.214 80.7171 28.578C80.8851 28.942 80.9691 29.3293 80.9691 29.74ZM79.4851 29.726C79.4851 29.2687 79.3171 28.8767 78.9811 28.55C78.6451 28.214 78.2484 28.046 77.7911 28.046C77.3337 28.046 76.9371 28.214 76.6011 28.55C76.2744 28.8767 76.1111 29.2687 76.1111 29.726C76.1111 30.1833 76.2744 30.5753 76.6011 30.902C76.9371 31.2287 77.3337 31.392 77.7911 31.392C78.2484 31.392 78.6451 31.2287 78.9811 30.902C79.3171 30.5753 79.4851 30.1833 79.4851 29.726ZM92.8986 26.296V23.846H86.4866V26.296H92.8986ZM92.8986 22.53V20.654H94.3966V27.626H90.4486V30.09H95.2926V31.434H84.0926V30.09H88.9226V27.626H84.9886V20.654H86.4866V22.53H92.8986ZM97.6181 20.766H107.306V22.096H105.696V25.96H107.306V27.276H103.218V30.09H108.062V31.434H96.8621V30.09H101.692V27.276H97.6181V25.96H99.2281V22.096H97.6181V20.766ZM104.226 22.096H100.698V25.96H104.226V22.096ZM116.66 24.826V25.988H110.08V20.486H116.52V21.69H111.578V22.67H116.072V23.79H111.578V24.826H116.66ZM118.802 20.136H120.314V26.24H118.802V24H116.912V22.67H118.802V20.136ZM110.738 26.842H120.314V29.992H112.25V30.86H120.454V32.092H110.738V28.858H118.802V28.032H110.738V26.842Z" fill="#1E222F"/>
</svg>
