<svg width="260" height="30" viewBox="0 0 260 30" fill="none" xmlns="http://www.w3.org/2000/svg">
<path d="M53.8565 18.1847V14.8776H42.2808V12.6651H51.8328V9.42789H42.2808V7.35513H52.0757V4.05967H38.4531V18.1847H53.8565ZM59.8236 27.9081V24.4962H44.3624V20.0246H40.5347V27.9081H59.8236ZM59.2454 21.6782V13.0145H62.3446V9.46283H59.2338V3.45414H55.4061V21.6782H59.2454ZM86.1898 16.5079C83.4607 14.4584 80.4656 12.0829 78.2221 10.0218C77.3317 9.31145 76.8113 8.22849 76.8113 7.0873V3.93158H72.8679V7.12224C72.8679 8.26342 72.3475 9.33473 71.4571 10.0334C69.2137 12.1062 66.207 14.4817 63.4894 16.5195L65.8254 19.1163C69.2715 16.6243 71.8156 14.668 74.8454 12.1062C77.8752 14.6797 80.4193 16.636 83.8654 19.1163L86.2014 16.5195L86.1898 16.5079ZM86.9068 26.4874V23.0755H76.7766V17.1716H72.8911V23.0755H62.7609V26.4758H86.9068V26.4874ZM104.831 28.0245C108.162 28.0245 110.359 26.2312 110.359 23.3317C110.359 20.4322 108.162 18.6389 104.831 18.6389H101.755V16.9038H111.885V13.6084H87.7394V16.9038H97.8695V18.6389H94.7935C91.463 18.6389 89.2658 20.4322 89.2658 23.3317C89.2658 26.2312 91.463 28.0245 94.7935 28.0245H104.831ZM110.96 10.2547C108.3 9.49776 105.352 8.69427 102.796 7.71612C102.368 7.58803 102.021 7.27362 101.848 6.85441H109.873V3.53566H89.7284V6.83112H97.7192C97.5689 7.25033 97.222 7.56474 96.8057 7.69283C94.25 8.69427 91.278 9.5327 88.6414 10.3478L90.2835 13.0843C92.897 12.3274 95.5336 11.5705 98.1124 10.6506C98.7137 10.4177 99.2804 10.1149 99.8008 9.73066C100.31 10.1149 100.876 10.4293 101.466 10.6506C104.045 11.5705 106.716 12.2692 109.318 12.9679L110.949 10.2314L110.96 10.2547ZM104.415 21.9343C105.745 21.9343 106.52 22.47 106.52 23.3317C106.52 24.1934 105.745 24.7291 104.415 24.7291H95.1982C93.8684 24.7291 93.0936 24.1934 93.0936 23.3317C93.0936 22.47 93.8684 21.9343 95.1982 21.9343H104.415ZM135.141 27.9197V17.8354H131.313V19.652H119.818V17.8354H115.991V27.9197H135.141ZM129.613 16.2983V13.061H117.76V11.7219H127.832V3.93158H113.897V7.16881H124.004V8.50796H113.932V16.275H129.613V16.2983ZM135.141 16.997V3.45414H131.313V16.9853H135.141V16.997ZM131.313 24.6243H119.818V22.8077H131.313V24.6243ZM161.623 28.0944C164.814 28.0944 167.15 26.1148 167.15 22.8077C167.15 19.5006 164.814 17.521 161.623 17.521H152.244C149.052 17.521 146.716 19.5006 146.716 22.8077C146.716 26.1148 149.052 28.0944 152.244 28.0944H161.623ZM160.512 14.2372C158.824 12.9795 157.02 11.5822 155.436 10.2081C154.846 9.69572 154.534 8.95046 154.58 8.17026V7.41335H159.853V4.0946H145.259V7.39006H150.694V8.14697C150.741 8.92717 150.417 9.68408 149.839 10.1848C148.012 11.6986 146.069 13.2008 144.172 14.6564L146.474 17.1949C148.555 15.6345 150.637 14.0625 152.637 12.5021C154.522 13.8995 156.361 15.2968 158.327 16.7524L160.524 14.2139L160.512 14.2372ZM166.503 16.8689V3.45414H162.675V8.28671H158.292V11.5239H162.675V16.8339H166.503V16.8689ZM161.206 20.8863C162.536 20.8863 163.311 21.585 163.311 22.8193C163.311 24.0537 162.536 24.7524 161.206 24.7524H152.66C151.33 24.7524 150.556 24.0537 150.556 22.8193C150.556 21.585 151.33 20.8863 152.66 20.8863H161.206ZM192.649 17.9518V3.45414H188.879V8.84566H186.717V3.73362H182.993V17.9285H186.717V12.537H188.879V17.9285H192.649V17.9518ZM182.681 14.9591C181.293 13.5851 179.963 12.3857 178.633 11.0232C178.113 10.441 177.859 9.67243 177.939 8.90388V8.76414H181.883V5.41046H177.939V3H174.112V5.37553H169.833V8.72921H174.112V8.86895C174.181 9.6375 173.927 10.4061 173.418 10.9883C171.972 12.6069 170.481 14.1207 168.954 15.7626L171.672 17.9751C173.175 16.4147 174.609 15.0174 176.135 13.4453C177.523 14.8194 178.911 16.077 180.241 17.4162L182.681 14.9359V14.9591ZM192.649 28.2108V18.9067H172.828V22.2022H188.81V28.2108H192.637H192.649ZM218.183 26.5107V23.1105H208.052V18.9184H216.494V15.5064H212.909V7.61131H215.939V4.21105H196.292V7.62296H199.322V15.4715H195.737V18.8834H204.178V23.0755H194.048V26.4758H218.194L218.183 26.5107ZM209.082 15.4948H203.138V7.61131H209.082V15.4599V15.4948ZM241.993 28.2108V25.0784H226.116V24.042H241.438V17.1134H222.265V20.2458H237.61V21.2822H222.288V28.2108H241.993ZM235.644 15.7976V12.6185H224.069V11.4191H232.638V8.34493H224.057V7.14552H233.91V3.93158H220.229V15.7743H235.633L235.644 15.7976ZM241.45 16.2983V3.45414H237.61V8.00724H233.702V11.5007H237.61V16.275H241.45V16.2983Z" fill="#111"/>
<path d="M27.3757 0.900349V3.96752C27.3757 8.7077 26.545 12.7381 24.8836 16.0715C23.348 19.1766 21.158 21.5214 18.3386 23.1183C15.6576 24.6519 12.5865 25.4124 9.12524 25.4124H6.23033C6.33103 23.8661 6.57017 22.4846 6.96035 21.2932C7.35054 20.1019 7.91693 18.9739 8.68471 17.9346C9.4399 16.8953 10.4594 15.8053 11.7055 14.69C12.2719 14.183 12.6746 13.714 12.9264 13.3085C13.1278 12.9663 13.1781 12.7254 13.0774 12.586C12.9767 12.4466 12.7753 12.4846 12.4733 12.6621C9.32662 14.5379 6.99811 16.7939 5.47514 19.4301C3.91441 22.1424 3.09629 25.4884 3.04594 29.4428V29.9878H0C0 27.9092 0.176211 25.9954 0.516048 24.259C0.176211 22.2818 0 19.5949 0 16.1982C0 14.1196 0.390183 12.1298 1.18313 10.2286C1.95091 8.41619 3.04594 6.79388 4.45563 5.37437C5.86532 3.95485 7.4764 2.85219 9.27627 2.07906C11.1643 1.28058 13.1403 0.887674 15.2045 0.887674C15.8087 0.887674 16.7653 0.989068 18.0617 1.19186C19.1189 1.35662 19.9497 1.45802 20.5538 1.49604C21.5859 1.57208 22.6054 1.58476 23.5997 1.52139C24.7955 1.41999 26.0541 1.20453 27.3757 0.875V0.900349Z" fill="#14B975"/>
</svg>
