<svg width="152" height="36" viewBox="0 0 152 36" fill="none" xmlns="http://www.w3.org/2000/svg">
<path d="M27.7148 17.1345C24.5962 15.0114 20.6055 15.8748 18.5088 19.0638C16.7557 21.7243 14.1129 22.059 13.091 22.059C9.75214 22.059 7.47048 19.7157 6.79214 17.2843C6.78333 17.2579 6.78333 17.2402 6.77452 17.2138C6.76571 17.1874 6.7569 17.161 6.7569 17.1345C6.49262 16.1214 6.42214 15.6369 6.42214 14.5621C6.42214 8.75667 12.3774 2.29048 20.9579 2.29048C29.741 2.29048 34.7712 8.97691 36.0662 12.6945C36.0398 12.6329 36.0221 12.5624 36.0045 12.5007C33.5114 5.23286 26.6136 0 18.5 0C8.28976 0 0 8.28095 0 18.5C0 27.6355 6.58952 35.4495 15.725 35.4495C23.0105 35.4495 27.9086 31.3619 30.155 25.7326C31.3883 22.6581 30.5162 19.0374 27.7148 17.1345Z" fill="#003668"/>
<path d="M36.1895 13.0557C35.106 9.42619 30.0405 2.29048 20.9667 2.29048C12.3862 2.29048 6.43095 8.75667 6.43095 14.5621C6.43095 15.6369 6.49262 16.1214 6.76571 17.1345C6.65119 16.694 6.59833 16.2448 6.59833 15.8131C6.59833 9.76976 12.6505 5.57643 18.8788 5.57643C27.3007 5.57643 34.1369 12.4038 34.1369 20.8257C34.1369 27.4329 30.34 33.1502 24.8164 35.89C31.9169 33.3264 37 26.5079 37 18.5C37 16.606 36.7445 14.941 36.1895 13.0557Z" fill="#E6002D"/>
<path d="M52.888 21.696H51.16V12H45.816V10.448H52.888V21.696ZM56.376 9.584H58.104V23.52H56.376V9.584ZM64.2818 9.504L68.5698 15.664L67.1938 16.608L64.2818 12.384L61.4018 16.72L59.9938 15.776L64.2818 9.504ZM71.7858 16.976H70.0578V9.584H71.7858V12.288H73.7858V14H71.7858V16.976ZM71.0818 20.56C71.0818 21.0293 70.9858 21.472 70.7938 21.888C70.6018 22.2933 70.3458 22.6507 70.0258 22.96C69.6951 23.2693 69.3058 23.5147 68.8578 23.696C68.4204 23.8773 67.9564 23.968 67.4658 23.968C66.9751 23.968 66.5058 23.8773 66.0578 23.696C65.6098 23.5147 65.2204 23.2693 64.8898 22.96C64.5698 22.6507 64.3138 22.2933 64.1218 21.888C63.9298 21.472 63.8338 21.0293 63.8338 20.56C63.8338 20.0907 63.9298 19.648 64.1218 19.232C64.3138 18.816 64.5698 18.4533 64.8898 18.144C65.2204 17.8347 65.6098 17.5893 66.0578 17.408C66.5058 17.2267 66.9751 17.136 67.4658 17.136C67.9564 17.136 68.4204 17.2267 68.8578 17.408C69.3058 17.5893 69.6951 17.8347 70.0258 18.144C70.3458 18.4533 70.6018 18.816 70.7938 19.232C70.9858 19.648 71.0818 20.0907 71.0818 20.56ZM69.3858 20.544C69.3858 20.0213 69.1938 19.5733 68.8098 19.2C68.4258 18.816 67.9724 18.624 67.4498 18.624C66.9271 18.624 66.4738 18.816 66.0898 19.2C65.7164 19.5733 65.5298 20.0213 65.5298 20.544C65.5298 21.0667 65.7164 21.5147 66.0898 21.888C66.4738 22.2613 66.9271 22.448 67.4498 22.448C67.9724 22.448 68.4258 22.2613 68.8098 21.888C69.1938 21.5147 69.3858 21.0667 69.3858 20.544ZM74.9875 12.24V10.784H78.2515V9.424H80.0915V10.784H83.1955V12.24H79.8355L83.3235 15.792L82.1715 16.864L79.1635 13.744L76.2035 17.12L75.0195 16.016L78.5075 12.24H74.9875ZM85.5635 17.376V14.208H83.1315V12.72H85.5635V9.584H87.2915V17.376H85.5635ZM86.1075 20.56C86.1075 21.0293 86.0115 21.472 85.8195 21.888C85.6275 22.2933 85.3715 22.6507 85.0515 22.96C84.7208 23.2693 84.3315 23.5147 83.8835 23.696C83.4462 23.8773 82.9822 23.968 82.4915 23.968C82.0008 23.968 81.5315 23.8773 81.0835 23.696C80.6355 23.5147 80.2462 23.2693 79.9155 22.96C79.5955 22.6507 79.3395 22.2933 79.1475 21.888C78.9555 21.472 78.8595 21.0293 78.8595 20.56C78.8595 20.0907 78.9555 19.648 79.1475 19.232C79.3395 18.816 79.5955 18.4533 79.9155 18.144C80.2462 17.8347 80.6355 17.5893 81.0835 17.408C81.5315 17.2267 82.0008 17.136 82.4915 17.136C82.9822 17.136 83.4462 17.2267 83.8835 17.408C84.3315 17.5893 84.7208 17.8347 85.0515 18.144C85.3715 18.4533 85.6275 18.816 85.8195 19.232C86.0115 19.648 86.1075 20.0907 86.1075 20.56ZM84.4115 20.544C84.4115 20.0213 84.2195 19.5733 83.8355 19.2C83.4515 18.816 82.9982 18.624 82.4755 18.624C81.9528 18.624 81.4995 18.816 81.1155 19.2C80.7422 19.5733 80.5555 20.0213 80.5555 20.544C80.5555 21.0667 80.7422 21.5147 81.1155 21.888C81.4995 22.2613 81.9528 22.448 82.4755 22.448C82.9982 22.448 83.4515 22.2613 83.8355 21.888C84.2195 21.5147 84.4115 21.0667 84.4115 20.544ZM102.026 15.632H94.6021V9.904H96.3461V14.192H102.026V15.632ZM105.77 11.84H107.77V13.52H105.77V16.192H104.042V9.584H105.77V11.84ZM95.0181 16.848H105.77V20.656H96.7461V21.84H105.93V23.248H95.0181V19.36H104.042V18.208H95.0181V16.848ZM113.612 17.008L115.516 9.68L118.572 21.12L117.18 21.616L115.516 15.344L113.612 21.776L111.724 15.376L110.092 21.728L108.652 21.216L111.708 9.68L113.612 17.008ZM119.628 9.584H121.356V23.52H119.628V9.584ZM124.686 15.888V9.856H126.414V14.352H135.598V15.888H124.686ZM123.662 19.664V18.112H136.462V19.664H130.926V23.52H129.182V19.664H123.662ZM146.191 21.6H138.767V15.232H144.303V11.968H138.767V10.448H146.031V16.736H140.479V20.08H146.191V21.6ZM148.735 9.584H150.463V23.52H148.735V9.584Z" fill="#1E222F"/>
</svg>
