<svg width="148" height="37" viewBox="0 0 148 37" fill="none" xmlns="http://www.w3.org/2000/svg">
<path d="M27.7148 17.1345C24.5962 15.0114 20.6055 15.8748 18.5088 19.0638C16.7557 21.7243 14.1129 22.059 13.091 22.059C9.75214 22.059 7.47048 19.7157 6.79214 17.2843C6.78333 17.2579 6.78333 17.2402 6.77452 17.2138C6.76571 17.1874 6.7569 17.161 6.7569 17.1345C6.49262 16.1214 6.42214 15.6369 6.42214 14.5621C6.42214 8.75667 12.3774 2.29048 20.9579 2.29048C29.741 2.29048 34.7712 8.97691 36.0662 12.6945C36.0398 12.6329 36.0221 12.5624 36.0045 12.5007C33.5114 5.23286 26.6136 0 18.5 0C8.28976 0 0 8.28095 0 18.5C0 27.6355 6.58952 35.4495 15.725 35.4495C23.0105 35.4495 27.9086 31.3619 30.155 25.7326C31.3883 22.6581 30.5162 19.0374 27.7148 17.1345Z" fill="#003668"/>
<path d="M36.1895 13.0557C35.106 9.42619 30.0405 2.29048 20.9667 2.29048C12.3862 2.29048 6.43095 8.75667 6.43095 14.5621C6.43095 15.6369 6.49262 16.1214 6.76571 17.1345C6.65119 16.694 6.59833 16.2448 6.59833 15.8131C6.59833 9.76976 12.6505 5.57643 18.8788 5.57643C27.3007 5.57643 34.1369 12.4038 34.1369 20.8257C34.1369 27.4329 30.34 33.1502 24.8164 35.89C31.9169 33.3264 37 26.5079 37 18.5C37 16.606 36.7445 14.941 36.1895 13.0557Z" fill="#E6002D"/>
<path d="M57.64 19.872V24.016H55.912V21.392H46.888V19.872H57.64ZM51.416 28.688V26.656H45.896V25.136H58.696V26.656H53.16V28.688H57.672V33.552H55.944V30.208H46.76V28.688H51.416ZM68.5218 27.104H61.0018V22.848H66.6338V21.456H61.0018V19.984H68.3618V24.256H62.7138V25.664H68.5218V27.104ZM70.9698 19.584H72.6978V27.36H70.9698V19.584ZM71.0018 30.4H63.4818V31.808H71.0018V30.4ZM61.7858 27.84H63.4818V28.992H71.0018V27.84H72.6978V33.248H61.7858V27.84ZM82.0755 31.696H80.3475V22H75.0035V20.448H82.0755V31.696ZM85.5635 19.584H87.2915V33.52H85.5635V19.584ZM93.4693 19.504L97.7573 25.664L96.3813 26.608L93.4693 22.384L90.5893 26.72L89.1813 25.776L93.4693 19.504ZM100.973 26.976H99.2453V19.584H100.973V22.288H102.973V24H100.973V26.976ZM100.269 30.56C100.269 31.0293 100.173 31.472 99.9813 31.888C99.7893 32.2933 99.5333 32.6507 99.2133 32.96C98.8826 33.2693 98.4933 33.5147 98.0453 33.696C97.6079 33.8773 97.1439 33.968 96.6533 33.968C96.1626 33.968 95.6933 33.8773 95.2453 33.696C94.7973 33.5147 94.4079 33.2693 94.0773 32.96C93.7573 32.6507 93.5013 32.2933 93.3093 31.888C93.1173 31.472 93.0213 31.0293 93.0213 30.56C93.0213 30.0907 93.1173 29.648 93.3093 29.232C93.5013 28.816 93.7573 28.4533 94.0773 28.144C94.4079 27.8347 94.7973 27.5893 95.2453 27.408C95.6933 27.2267 96.1626 27.136 96.6533 27.136C97.1439 27.136 97.6079 27.2267 98.0453 27.408C98.4933 27.5893 98.8826 27.8347 99.2133 28.144C99.5333 28.4533 99.7893 28.816 99.9813 29.232C100.173 29.648 100.269 30.0907 100.269 30.56ZM98.5733 30.544C98.5733 30.0213 98.3813 29.5733 97.9973 29.2C97.6133 28.816 97.1599 28.624 96.6373 28.624C96.1146 28.624 95.6613 28.816 95.2773 29.2C94.9039 29.5733 94.7173 30.0213 94.7173 30.544C94.7173 31.0667 94.9039 31.5147 95.2773 31.888C95.6613 32.2613 96.1146 32.448 96.6373 32.448C97.1599 32.448 97.6133 32.2613 97.9973 31.888C98.3813 31.5147 98.5733 31.0667 98.5733 30.544ZM110.511 28.96V21.888H104.559V20.352H112.223V28.96H110.511ZM113.087 30.592V32.128H104.047V30.592H106.895V26H108.607V30.592H113.087ZM115.887 33.52H114.159V19.584H115.887V25.456H117.679V27.104H115.887V33.52ZM126.737 20.464V21.952H118.609V20.464H121.793V19.296H123.633V20.464H126.737ZM125.937 25.2C125.937 25.6053 125.851 25.9893 125.681 26.352C125.51 26.7147 125.281 27.0293 124.993 27.296C124.694 27.5627 124.353 27.776 123.969 27.936C123.585 28.096 123.169 28.176 122.721 28.176C122.273 28.176 121.851 28.096 121.457 27.936C121.073 27.776 120.731 27.5627 120.433 27.296C120.145 27.0293 119.915 26.7147 119.745 26.352C119.574 25.9893 119.489 25.6053 119.489 25.2C119.489 24.7947 119.574 24.4107 119.745 24.048C119.915 23.6853 120.145 23.3707 120.433 23.104C120.731 22.8373 121.073 22.624 121.457 22.464C121.851 22.304 122.273 22.224 122.721 22.224C123.169 22.224 123.585 22.304 123.969 22.464C124.353 22.624 124.694 22.8373 124.993 23.104C125.281 23.3707 125.51 23.6853 125.681 24.048C125.851 24.4107 125.937 24.7947 125.937 25.2ZM124.289 25.184C124.289 24.768 124.134 24.4107 123.825 24.112C123.515 23.8133 123.147 23.664 122.721 23.664C122.294 23.664 121.926 23.8133 121.617 24.112C121.318 24.4107 121.169 24.768 121.169 25.184C121.169 25.6 121.318 25.9573 121.617 26.256C121.926 26.5547 122.294 26.704 122.721 26.704C123.147 26.704 123.515 26.5547 123.825 26.256C124.134 25.9573 124.289 25.6 124.289 25.184ZM130.161 27.984H128.433V19.584H130.161V22.848H132.161V24.56H130.161V27.984ZM119.185 28.768H130.161V33.392H128.433V30.304H119.185V28.768ZM139.747 22.64C139.747 22.1493 139.565 21.7333 139.203 21.392C138.851 21.0507 138.429 20.88 137.939 20.88C137.448 20.88 137.021 21.0507 136.659 21.392C136.307 21.7333 136.131 22.1493 136.131 22.64C136.131 23.1307 136.307 23.5467 136.659 23.888C137.021 24.2293 137.448 24.4 137.939 24.4C138.429 24.4 138.851 24.2293 139.203 23.888C139.565 23.5467 139.747 23.1307 139.747 22.64ZM141.427 22.64C141.427 23.088 141.331 23.5093 141.139 23.904C140.957 24.288 140.712 24.6293 140.403 24.928C140.083 25.216 139.709 25.4453 139.283 25.616C138.867 25.7867 138.419 25.872 137.939 25.872C137.459 25.872 137.005 25.7867 136.579 25.616C136.163 25.4453 135.795 25.216 135.475 24.928C135.165 24.6293 134.915 24.288 134.723 23.904C134.541 23.5093 134.451 23.088 134.451 22.64C134.451 22.192 134.541 21.776 134.723 21.392C134.915 20.9973 135.165 20.6507 135.475 20.352C135.795 20.064 136.163 19.8347 136.579 19.664C137.005 19.4933 137.459 19.408 137.939 19.408C138.419 19.408 138.867 19.4933 139.283 19.664C139.709 19.8347 140.083 20.064 140.403 20.352C140.712 20.6507 140.957 20.9973 141.139 21.392C141.331 21.776 141.427 22.192 141.427 22.64ZM142.659 27.952H138.963V30.064H137.235V27.952H133.395V26.432H142.659V27.952ZM143.763 19.584H145.491V30.224H143.763V25.088H141.827V23.584H143.763V19.584ZM134.339 33.28V29.296H136.067V31.776H145.651V33.28H134.339Z" fill="#1E222F"/>
<rect x="46" y="2" width="48" height="13" rx="2" fill="#5F79C2"/>
<path d="M51.308 6.73V6.093H52.47V5.498H53.275V6.093H54.402V6.73H53.1L54.472 8.669L53.933 9.04L52.862 7.514L51.826 9.089L51.273 8.704L52.631 6.73H51.308ZM56.075 5.568H56.803V9.04H56.075V7.647H55.466V9.005H54.752V5.575H55.466V6.947H56.075V5.568ZM51.826 9.355H56.803V11.609H56.047V10.027H51.826V9.355ZM61.1998 7.164C61.1998 7.37867 61.1554 7.57933 61.0668 7.766C60.9828 7.95267 60.8661 8.116 60.7168 8.256C60.5721 8.396 60.3994 8.508 60.1988 8.592C60.0028 8.67133 59.7928 8.711 59.5688 8.711C59.3448 8.711 59.1324 8.67133 58.9318 8.592C58.7358 8.508 58.5654 8.396 58.4208 8.256C58.2714 8.116 58.1524 7.95267 58.0638 7.766C57.9798 7.57933 57.9378 7.37867 57.9378 7.164C57.9378 6.94933 57.9798 6.74867 58.0638 6.562C58.1524 6.37067 58.2714 6.205 58.4208 6.065C58.5654 5.925 58.7358 5.81533 58.9318 5.736C59.1324 5.652 59.3448 5.61 59.5688 5.61C59.7928 5.61 60.0028 5.652 60.1988 5.736C60.3994 5.81533 60.5721 5.925 60.7168 6.065C60.8661 6.205 60.9828 6.37067 61.0668 6.562C61.1554 6.74867 61.1998 6.94933 61.1998 7.164ZM60.4718 7.164C60.4718 6.91667 60.3831 6.70433 60.2058 6.527C60.0331 6.34967 59.8231 6.261 59.5758 6.261C59.3284 6.261 59.1161 6.34967 58.9388 6.527C58.7614 6.70433 58.6728 6.91667 58.6728 7.164C58.6728 7.41133 58.7614 7.62367 58.9388 7.801C59.1161 7.97367 59.3284 8.06 59.5758 8.06C59.8231 8.06 60.0331 7.97367 60.2058 7.801C60.3831 7.62367 60.4718 7.41133 60.4718 7.164ZM62.3618 5.568H63.1178V8.795H62.3618V5.568ZM62.3688 9.754H59.0928V10.895H62.3688V9.754ZM58.3438 9.11H63.1178V11.546H58.3438V9.11ZM67.8575 6.947C67.8575 6.69967 67.7689 6.48967 67.5915 6.317C67.4189 6.14433 67.2089 6.058 66.9615 6.058C66.7142 6.058 66.5019 6.14433 66.3245 6.317C66.1519 6.48967 66.0655 6.69967 66.0655 6.947C66.0655 7.19433 66.1519 7.40433 66.3245 7.577C66.5019 7.74967 66.7142 7.836 66.9615 7.836C67.2089 7.836 67.4189 7.74967 67.5915 7.577C67.7689 7.40433 67.8575 7.19433 67.8575 6.947ZM68.6135 6.947C68.6135 7.157 68.5692 7.35767 68.4805 7.549C68.3919 7.73567 68.2729 7.899 68.1235 8.039C67.9742 8.179 67.7992 8.291 67.5985 8.375C67.3979 8.45433 67.1855 8.494 66.9615 8.494C66.7375 8.494 66.5252 8.45433 66.3245 8.375C66.1239 8.291 65.9489 8.179 65.7995 8.039C65.6502 7.899 65.5312 7.73567 65.4425 7.549C65.3539 7.35767 65.3095 7.157 65.3095 6.947C65.3095 6.737 65.3539 6.53867 65.4425 6.352C65.5312 6.16067 65.6502 5.995 65.7995 5.855C65.9489 5.715 66.1239 5.60533 66.3245 5.526C66.5252 5.442 66.7375 5.4 66.9615 5.4C67.1855 5.4 67.3979 5.442 67.5985 5.526C67.7992 5.60533 67.9742 5.715 68.1235 5.855C68.2729 5.995 68.3919 6.16067 68.4805 6.352C68.5692 6.53867 68.6135 6.737 68.6135 6.947ZM69.7615 8.739V9.404H67.3675V10.293H66.6045V9.404H64.1615V8.739H69.7615ZM65.3725 9.894V10.895H69.3905V11.56H64.6095V9.894H65.3725ZM71.6733 5.953V5.442H72.4783V5.953H73.5983V6.583H70.4273V5.953H71.6733ZM73.4653 8.018C73.4653 8.19533 73.428 8.361 73.3533 8.515C73.2786 8.669 73.1783 8.80433 73.0523 8.921C72.9263 9.03767 72.7793 9.131 72.6113 9.201C72.448 9.26633 72.2706 9.299 72.0793 9.299C71.888 9.299 71.7083 9.26633 71.5403 9.201C71.377 9.131 71.2323 9.03767 71.1063 8.921C70.9803 8.80433 70.88 8.669 70.8053 8.515C70.7306 8.361 70.6933 8.19533 70.6933 8.018C70.6933 7.84067 70.7306 7.675 70.8053 7.521C70.88 7.36233 70.9803 7.22467 71.1063 7.108C71.2323 6.99133 71.377 6.90033 71.5403 6.835C71.7083 6.765 71.888 6.73 72.0793 6.73C72.2706 6.73 72.448 6.765 72.6113 6.835C72.7793 6.90033 72.9263 6.99133 73.0523 7.108C73.1783 7.22467 73.2786 7.36233 73.3533 7.521C73.428 7.675 73.4653 7.84067 73.4653 8.018ZM72.7583 8.011C72.7583 7.829 72.6906 7.67267 72.5553 7.542C72.4246 7.40667 72.266 7.339 72.0793 7.339C71.8926 7.339 71.734 7.40667 71.6033 7.542C71.4726 7.67267 71.4073 7.829 71.4073 8.011C71.4073 8.193 71.4726 8.34933 71.6033 8.48C71.734 8.61067 71.8926 8.676 72.0793 8.676C72.266 8.676 72.4246 8.61067 72.5553 8.48C72.6906 8.34933 72.7583 8.193 72.7583 8.011ZM74.6763 8.907H73.9763V5.575H74.6763V6.898H75.2993V5.568H76.0273V8.991H75.2993V7.584H74.6763V8.907ZM75.4323 10.482C75.4323 10.6687 75.3926 10.8437 75.3133 11.007C75.234 11.175 75.129 11.322 74.9983 11.448C74.863 11.574 74.7066 11.6743 74.5293 11.749C74.352 11.8237 74.163 11.861 73.9623 11.861C73.7616 11.861 73.5703 11.8237 73.3883 11.749C73.211 11.6743 73.0546 11.574 72.9193 11.448C72.7886 11.322 72.6836 11.175 72.6043 11.007C72.525 10.8437 72.4853 10.6687 72.4853 10.482C72.4853 10.2953 72.525 10.118 72.6043 9.95C72.6836 9.782 72.7886 9.635 72.9193 9.509C73.0546 9.383 73.211 9.28267 73.3883 9.208C73.5703 9.13333 73.7616 9.096 73.9623 9.096C74.163 9.096 74.352 9.13333 74.5293 9.208C74.7066 9.28267 74.863 9.383 74.9983 9.509C75.129 9.635 75.234 9.782 75.3133 9.95C75.3926 10.118 75.4323 10.2953 75.4323 10.482ZM74.6903 10.475C74.6903 10.279 74.618 10.1087 74.4733 9.964C74.3286 9.81933 74.156 9.747 73.9553 9.747C73.7546 9.747 73.582 9.81933 73.4373 9.964C73.2973 10.1087 73.2273 10.279 73.2273 10.475C73.2273 10.671 73.2973 10.8413 73.4373 10.986C73.582 11.126 73.7546 11.196 73.9553 11.196C74.156 11.196 74.3286 11.126 74.4733 10.986C74.618 10.8413 74.6903 10.671 74.6903 10.475ZM79.9901 10.867H79.2341V6.625H76.8961V5.946H79.9901V10.867ZM81.5161 5.568H82.2721V11.665H81.5161V5.568ZM86.0878 7.976V6.352H83.4908V5.694H86.8368V7.976H86.0878ZM87.1728 8.557V9.222H83.2178V8.557H84.4568V7.192H85.2058V8.557H87.1728ZM88.3978 9.572H87.6418V5.568H88.3978V7.206H89.1818V7.899H88.3978V9.572ZM83.6518 11.56V9.733H84.4078V10.895H88.5098V11.56H83.6518Z" fill="white"/>
</svg>
